<?xml version="1.0" encoding="UTF-8"?>
<svg id="Capa_2" data-name="Capa 2" xmlns="http://www.w3.org/2000/svg" viewBox="0 0 45.88 45.1">
  <defs>
    <style>
      .cls-1 {
        fill: #ffd133;
      }
    </style>
  </defs>
  <g id="Layer_1" data-name="Layer 1">
    <g>
      <path class="cls-1" d="M45.22,15.36c.28,1.34,.48,2.83,.65,4.62,.07,.7-.45,1.34-1.16,1.4-.71,.07-1.34-.46-1.41-1.15-.51-5.26-1.15-7.64-3.97-11.41-1.84-2.47-4.75-4.67-7.4-5.61-3.16-1.13-6.71-.74-9.52,1.01-3.17,1.99-4.36,4.86-4.72,7.34,2.96-2.28,6.21-3.78,9.51-3.77,4.23,.04,7.71,2.49,9.32,6.58,1.78,4.55,.74,9.72-2.6,12.86-2.77,2.59-6.07,3.36-9.31,2.15-4.36-1.63-8.03-6.59-9.22-12.21-3.64,3.98-6.55,8.92-7.86,12.45-1.07,2.88-1.53,5.82-2.02,8.94-.23,1.44-.46,2.92-.76,4.38-.14,.7-.81,1.15-1.52,1.01-.7-.14-1.15-.81-1.01-1.52,.29-1.43,.51-2.88,.74-4.28,.49-3.11,1-6.31,2.15-9.44,1.49-4.01,5.16-10.19,9.88-14.8-.16-5.06,2-9.34,6.05-11.87C24.5-.13,28.89-.6,32.79,.79c3.15,1.11,6.44,3.61,8.6,6.5,2.17,2.89,3.21,5.12,3.83,8.08Zm-27.32,1.19c1,4.78,4.08,9.09,7.61,10.42,2.34,.86,4.56,.33,6.64-1.62,2.98-2.81,3.14-7.06,1.97-10.04-1.22-3.11-3.75-4.91-6.94-4.92-3.25-.02-6.56,1.84-9.55,4.53,.06,.55,.15,1.09,.26,1.63Z"/>
      <path class="cls-1" d="M12.04,40.02c.11,.51-.23,.64-1.82,1.25-.44,.18-.88,.34-1.15,.46-1.81,.79-3.33,1.58-4.77,2.49-.06,.04-.18,.16-.27,.25-.29,.3-.62,.64-1.08,.61-.24-.01-.46-.13-.62-.33-.99-1.24-1.37-3.68-1.74-6.04-.18-1.15-.36-2.24-.57-2.98-.11-.35,.09-.7,.43-.8,.34-.1,.7,.1,.8,.44,.24,.81,.42,1.94,.61,3.13,.28,1.77,.62,3.93,1.23,5.07h0c.16-.18,.33-.34,.51-.45,1.5-.95,3.07-1.78,4.95-2.59,.26-.11,.7-.28,1.15-.45,.08-.15,.21-.28,.39-.33,.1-.04,.19-.06,.29-.1,.23-.08,.45-.15,.69-.2,.68-.14,.87,.25,.92,.43,.02,.05,.03,.09,.04,.13Z"/>
    </g>
  </g>
</svg>