<?xml version="1.0" encoding="UTF-8"?>
<svg id="Capa_2" data-name="Capa 2" xmlns="http://www.w3.org/2000/svg" viewBox="0 0 84.54 46.93">
  <defs>
    <style>
      .cls-1 {
        stroke: #000;
      }

      .cls-1, .cls-2 {
        fill: #ffd133;
      }

      .cls-1, .cls-2, .cls-3 {
        stroke-miterlimit: 10;
      }

      .cls-2 {
        stroke-width: 2.5px;
      }

      .cls-2, .cls-3 {
        stroke: #4d4d4d;
      }

      .cls-3 {
        fill: #fff;
      }
    </style>
  </defs>
  <g id="Layer_1" data-name="Layer 1">
    <line class="cls-1" x1="13.9" y1="23.47" x2="70.64" y2="23.47"/>
    <path class="cls-2" d="M11.16,45.68c-5.47,0-9.91-9.95-9.91-22.22S5.69,1.25,11.16,1.25h62.22c5.47,0,9.91,9.95,9.91,22.22s-4.44,22.22-9.91,22.22H11.16"/>
    <g>
      <path class="cls-3" d="M69.12,34.5h-1.36c3.61-4.33,3.69-11.07,3.69-11.07,0,0,.05-5.29-3.58-10.96h1.15c3.95,4.52,4.06,10.99,4.06,10.99,0,0,.11,6.95-3.96,11.04Z"/>
      <path class="cls-3" d="M64.26,34.5h-1.37c3.64-4.33,3.72-11.07,3.72-11.07,0,0,.05-5.29-3.58-10.96h1.15c3.95,4.52,4.06,10.99,4.06,10.99,0,0,.11,6.95-3.98,11.04Z"/>
      <path class="cls-3" d="M59.36,34.5h-1.36c3.64-4.33,3.72-11.07,3.72-11.07,0,0,.05-5.29-3.61-10.96h1.15c3.95,4.52,4.06,10.99,4.06,10.99,0,0,.11,6.95-3.96,11.04Z"/>
      <path class="cls-3" d="M47.06,12.44h-7.17c-.5,0-.91,.4-.91,.91v20.23c0,.5,.42,.9,.91,.9h7.22c6.9,0,12.04-4.02,12.04-11.05s-5.14-10.99-12.09-10.99Zm0,16.2h-1.39v-10.37h1.44c3.56,0,5.27,2.19,5.27,5.16,0,2.78-1.98,5.21-5.32,5.21Z"/>
      <path class="cls-3" d="M37.03,13.35c0-.51-.4-.91-.91-.91h-8.88c-.28,0-.56,.14-.72,.38l-14.87,20.24c-.45,.59-.02,1.42,.73,1.42h7.14c.3,0,.58-.16,.75-.4l1.47-2.17h7.78v1.66c-.01,.49,.39,.9,.88,.91h5.78c.49,0,.89-.42,.88-.91l-.03-20.22Zm-12.08,12.73l4.54-7.09,.03,7.09h-4.57Z"/>
    </g>
  </g>
</svg>