<?xml version="1.0" encoding="UTF-8"?>
<svg id="Capa_2" data-name="Capa 2" xmlns="http://www.w3.org/2000/svg" viewBox="0 0 65.16 54.36">
  <defs>
    <style>
      .cls-1 {
        fill: #ffd133;
      }

      .cls-1, .cls-2 {
        fill-rule: evenodd;
      }
    </style>
  </defs>
  <g id="Layer_1" data-name="Layer 1">
    <g>
      <path class="cls-2" d="M64.02,5.87c-.94-3.94-6.11-6.18-9.97-5.74-.4-.08-.82-.13-1.28-.13-2.68,0-5.36-.04-8.02,.11-4.83,.27-9.53,1.38-14.26,2.33-6.38,1.29-12.62,3.06-18.71,5.37-2.71,1.03-5.38,2.17-7.72,3.96-2.11,1.62-3.36,3.71-3.78,6.33-.48,2.99-.35,5.91,.4,8.86,1.12,4.41,2.68,8.62,5.11,12.47,2.07,3.25,5.05,4.91,8.9,4.54,3.49-.32,6.98-.84,10.44-1.46,2.78-.5,5.5-1.32,8.27-1.92,1.16-.26,1.25-.15,1,.98-.79,3.43-1.62,6.85-2.44,10.27-.14,.59-.3,1.19-.36,1.79-.02,.24,.18,.51,.35,.71,.04,.04,.26-.02,.42-.12,1.67,.03,3.42-.84,5.02-1.27,1.33-.35,2-2.2,2.75-3.17,.68-.91,1.18-2.11,1.74-3.08,.76-1.31,1.77-2.46,2.59-3.74,.62-.94,1.57-1.88,2.23-2.9,1.97-.25,3.96-1.15,5.84-1.77,2.28-.77,4.69-1.93,6.57-3.45,3.37-2.68,5.09-7.16,5.61-11.31,.7-5.7,.64-12.06-.7-17.66Zm.07,8.68c-1.23-.41-2.56-.46-3.85-.64-.04-1.06-.11-2.15-.21-3.24,0-.05,0-.11-.01-.16,.99,.31,1.99,.64,2.99,.76,.14,.03,.4-.39,.25-.44-1.03-.41-2.16-.65-3.28-.86-.04-.48-.1-.98-.18-1.49,1.2,.42,2.39,.85,3.62,1.1,.06,.01,.11-.02,.17-.09,.28,1.66,.43,3.36,.5,5.06Zm-1.45-8.61c.22,.48,.41,1.02,.56,1.65,.12,.45,.21,.91,.3,1.38-1.24-.47-2.52-.84-3.82-1.16-.18-.95-.45-1.94-.84-2.9,1.24,.4,2.44,.99,3.75,1.05,0,0,.03-.01,.05-.02Zm-.33-.63c-1.21-.34-2.46-.75-3.7-.93-.07-.13-.12-.27-.19-.4-.08-.19-.18-.37-.28-.55,1.12,.39,2.28,.73,3.43,.93,.27,.29,.52,.6,.74,.95Zm-3.22-2.65c.45,.21,.84,.43,1.21,.66-.87-.19-1.75-.38-2.61-.6-.2-.3-.42-.58-.64-.84,.69,.22,1.37,.45,2.04,.78Zm-24.73,42.71c.37-1.56,.79-3.11,1.08-4.68,.18-.96-.16-1.31-1.12-1.15-1.42,.25-2.83,.63-4.24,.94-3.51,.77-7,1.64-10.53,2.26-1.86,.34-3.79,.36-5.7,.39-3.18,.08-5.55-1.4-7.26-4.03-2.26-3.49-3.72-7.34-4.82-11.33-.72-2.61-1.06-5.21-.89-7.93,.24-4.07,2.2-6.97,5.76-8.72,2.8-1.38,5.68-2.65,8.64-3.64,4.7-1.57,9.42-3.22,14.27-4.19,6.73-1.34,13.51-2.61,20.45-2.51,4.39,.06,6.25,1.26,7.2,6,.6,3.06,.89,6.22,.92,9.35,.05,3.73-.32,7.47-.53,11.21-.04,.68-.14,1.38-.32,2.03-.5,1.83-1.34,3.27-3.27,4.12-3.99,1.74-7.84,3.81-12.09,4.88-1.19,.3-1.98,.96-2.6,2.02-1.89,3.23-3.87,6.41-5.81,9.62-.07-.01-.14-.04-.21-.05,.36-1.53,.72-3.06,1.07-4.59Zm8.35-.95c-.59,.97-1.25,1.87-1.79,2.86-.71,1.3-1.82,2.52-2.43,3.84-.59,1.26-2.99,1.49-4.16,1.89-.41,.14-1,.49-1.39,.47,.24-.37,.47-.73,.67-1.1,.05-.09,.1-.18,.15-.27h.02c.36-.02,.72-.08,1.07-.16,1.04-.21,2.06-.48,3.07-.81,.07-.03,.25-.29,.12-.3-1.01-.12-2.01,.23-2.99,.45-.25,.05-.58,.07-.9,.11,1.36-2.48,2.79-4.9,4.38-7.21,0,.03,.02,.07,.06,.08,.73,.15,1.51-.05,2.23-.2,.13-.02,.39-.5,.2-.5-.76,.03-1.46,.39-2.23,.28-.02,0-.02,.01-.03,.01,.47-.69,.95-1.37,1.45-2.03,1.17,.35,2.35,.69,3.51,1.08-.36,.49-.69,.99-1.01,1.51Zm1.59-2.31c-.26-.23-.81-.3-1.15-.38-.74-.17-1.65-.45-2.48-.49,.21-.27,.42-.55,.63-.81,.07-.09,.14-.16,.2-.23,.42,.11,.85,.23,1.29,.33,.73,.17,1.53,.46,2.3,.54-.26,.35-.53,.69-.79,1.04Zm1.37-1.8c-.65-.35-1.49-.41-2.2-.53-.14-.03-.29-.05-.44-.08,.7-.1,1.29-.1,2.04-.05h.04c.28,.09,.57,.19,.87,.26-.1,.14-.2,.27-.31,.4Zm1.59-1.8s-.06,0-.08,.03c-.01-.02-.04-.02-.06-.02-.81,0-1.61,0-2.43-.03,1.85-.65,3.68-1.34,5.5-2.08,.43,.26,.86,.5,1.29,.75,.04,.01,.09,.05,.14,.07-1.41,.52-2.91,1.13-4.36,1.28Zm5.48-1.68c-.25-.15-.55-.25-.82-.36-.33-.12-.66-.24-.98-.36,.36-.15,.74-.3,1.11-.47,.03,0,.06-.02,.08-.03,.16,.13,.35,.26,.52,.36,.3,.19,.57,.41,.87,.59-.26,.1-.52,.19-.78,.27Zm1.79-.65c-.26-.45-.83-.6-1.27-.82-.09-.05-.18-.09-.28-.14,.82-.4,1.63-.88,2.43-1.35,.57,.45,1.3,.78,1.99,.96-.89,.51-1.88,.96-2.87,1.35Zm4.08-2.15c-.15,.12-.33,.24-.49,.35,0-.06-.01-.13-.06-.15-.6-.4-1.32-.52-1.98-.77,.13-.07,.26-.15,.39-.23,.12-.07,.23-.14,.34-.23,.29,.15,.58,.3,.84,.48,.29,.17,.67,.41,1.03,.5-.02,.01-.04,.04-.07,.05Zm.75-.63c-.16-.11-.33-.14-.53-.21-.27-.09-.52-.21-.77-.33-.23-.11-.47-.2-.71-.27,.81-.72,1.36-1.64,1.59-2.8,.22-1.2,.59-2.39,.74-3.59,.03-.3,.07-.6,.1-.91,.42,.12,.84,.23,1.26,.37,.72,.23,1.49,.44,2.25,.43,.03,0,.07-.01,.11-.05-.65,2.79-1.87,5.4-4.04,7.36Zm4.63-11.77c-.07,1.35-.22,2.7-.51,4.03-1.2-.3-2.45-.51-3.65-.86,.03-.25,.06-.5,.09-.75,.18,.06,.36,.1,.52,.13,.9,.23,1.84,.64,2.76,.66,.18,.01,.44-.38,.3-.52-.6-.55-1.71-.54-2.46-.75-.35-.09-.71-.2-1.06-.29,.19-2.06,.3-4.14,.32-6.26,1.18,.38,2.31,.9,3.62,.83,.06,0,.14-.08,.21-.15-.02,1.32-.07,2.65-.14,3.93Zm-2.15-4.7c-.51-.1-1.02-.25-1.54-.37,0-.69-.02-1.38-.04-2.08,1.2,.29,2.45,.47,3.61,.57,.07,0,.17-.08,.23-.2,.03,.82,.04,1.63,.04,2.43-.76-.13-1.54-.18-2.3-.35Z"/>
      <path class="cls-1" d="M58.12,16.13c.05,3.73-.32,7.47-.53,11.21-.04,.68-.14,1.38-.32,2.03-.5,1.83-1.34,3.27-3.27,4.12-3.99,1.74-7.84,3.81-12.09,4.88-1.19,.3-1.98,.96-2.6,2.02-1.89,3.23-3.87,6.41-5.81,9.62-.07-.01-.14-.04-.21-.05,.36-1.53,.72-3.06,1.07-4.59,.37-1.56,.79-3.11,1.08-4.68,.18-.96-.16-1.31-1.12-1.15-1.42,.25-2.83,.63-4.24,.94-3.51,.77-7,1.64-10.53,2.26-1.86,.34-3.79,.36-5.7,.39-3.18,.08-5.55-1.4-7.26-4.03-2.26-3.49-3.72-7.34-4.82-11.33-.72-2.61-1.06-5.21-.89-7.93,.24-4.07,2.2-6.97,5.76-8.72,2.8-1.38,5.68-2.65,8.64-3.64,4.7-1.57,9.42-3.22,14.27-4.19,6.73-1.34,13.51-2.61,20.45-2.51,4.39,.06,6.25,1.26,7.2,6,.6,3.06,.89,6.22,.92,9.35Z"/>
      <path class="cls-2" d="M38.63,49.36c-.51-.2-1.14-.01-1.66,.09-.32,.05-.64,.14-.96,.19-.38,.07-.66,.25-1.01,.36-.08,.03-.26,.33-.12,.33,.5,0,1.1-.12,1.6-.2,.65-.09,1.37-.11,1.97-.38,.07-.04,.33-.33,.19-.39Z"/>
      <path class="cls-2" d="M39.45,47.67c-1,0-2.02,.45-3.01,.63-.1,.02-.26,.35-.13,.34,.99-.08,1.98-.24,2.95-.48,.12-.02,.39-.48,.19-.49Z"/>
      <path class="cls-2" d="M40.72,45.64c-1.13-.07-2.25,.31-3.34,.54-.11,.01-.3,.39-.16,.38,1.06-.05,2.24-.06,3.27-.33,.14-.04,.48-.56,.23-.59Z"/>
    </g>
  </g>
</svg>