<?xml version="1.0" encoding="UTF-8"?>
<svg id="Capa_2" data-name="Capa 2" xmlns="http://www.w3.org/2000/svg" viewBox="0 0 102.28 87.86">
  <defs>
    <style>
      .cls-1 {
        fill: #4d4d4d;
      }

      .cls-2 {
        fill: #ffd133;
      }
    </style>
  </defs>
  <g id="Layer_1" data-name="Layer 1">
    <g>
      <path class="cls-1" d="M88.91,34.74c1-2.31,0-4.85-.97-6.98-.83-1.82-2.02-4.07-4.21-4.37-1.81-.24-3.81,.21-5.68,.57-1.93-4.72-4.04-9.36-6.32-13.89-1.44-2.85-3.13-7.37-5.92-9.26-3.85-2.61-8.2,1.71-10.61,4.36-10.3,11.29-19.69,23.19-33.49,30.49-.12,.07-.23,.15-.32,.24-3.89,1.19-7.76,2.41-11.62,3.69-2.48,.82-5.87,1.38-7.92,3.2-3.52,3.14-1.17,9.96,.22,13.53,1.31,3.38,4.36,10.17,8.28,11.33,1.08,.31,2.35,.14,3.62-.18,2.34,4.84,4.46,9.82,7.15,14.48,1.74,3,3.49,6.99,7.54,5.64,4.23-1.39,9.55-5.71,8.26-10.69-.65-2.53-2.95-4.41-4.38-6.45-1.59-2.26-2.82-4.72-3.99-7.21,.63-.2,1.26-.39,1.88-.59,7.92-1.55,15.88-2.34,23.92-1.45,7.16,.79,14.15,2.68,21.18,4.18,3.46,.74,10.06,3.47,12.44-.73,2.43-4.28-.77-12.29-1.88-16.55-.75-2.89-1.59-5.77-2.48-8.64,1.94-1.3,4.35-2.54,5.3-4.72ZM31.64,72.99c.4,.52,1.03,1.2,1.36,1.71,1.95,3.07,1.99,4.96-.59,7.81-.69,.76-2.03,1.61-2.93,2.04-.88,.42-1.53,.65-2.1,.66,.41-.71,.76-1.47,1.03-2.26,.47-1.37-1.71-1.96-2.17-.59-.23,.66-.53,1.28-.89,1.87-.1-.09-.19-.17-.3-.28-.21-.21-.4-.45-.6-.69,.02-.05,.05-.09,.07-.15,.16-.48,.47-.9,.7-1.36,.27-.55,.51-1.13,.71-1.72,.47-1.37-1.7-1.96-2.17-.6-.2,.58-.48,1.12-.76,1.65-.3-.52-.58-1.07-.85-1.62,0,0,.01,0,.02,0,.51-1.13,1.03-2.26,1.54-3.38,.26-.56,.16-1.21-.4-1.54-.48-.29-1.29-.15-1.54,.4-.29,.63-.58,1.26-.87,1.89-.2-.44-.4-.87-.6-1.27-.1-.21-.2-.42-.3-.63,.08-.08,.16-.17,.23-.28,.5-.87,1-1.73,1.5-2.59,.73-1.26-1.21-2.39-1.94-1.14-.31,.54-.63,1.08-.94,1.61-.28-.59-.57-1.19-.85-1.78,.08-.08,.16-.15,.23-.24,.45-.59,.88-1.19,1.3-1.8,.34-.5,.09-1.25-.4-1.54-.56-.32-1.2-.1-1.54,.4-.21,.31-.44,.61-.66,.92l-.78-1.65c.64-.21,1.24-.4,1.79-.54,2.84-.72,5.65-1.52,8.45-2.38,1.49,3.19,3.1,6.25,5.25,9.08Zm-14.5-9.59c-3.72,.94-6.53,1.35-9.06-2.17-1.17-1.62-2.1-3.35-2.87-5.19-.78-1.83-1.38-3.7-1.74-5.66-.76-4.2,1.6-6.05,5.22-7.27,4.39-1.48,8.79-2.88,13.21-4.23,2.23,7.07,4.6,14.09,7.1,21.07-3.92,1.26-7.87,2.43-11.86,3.45Zm56.07-1.59c-6.47-1.43-12.92-3.02-19.52-3.68-7.56-.75-15.05-.03-22.48,1.33-2.57-7.15-4.99-14.35-7.27-21.6,12.39-6.77,22.03-17.34,31.12-27.95,1.05-1.22,2.72-3.58,4.58-5.15,5.36,8.03,8.86,18.03,12.37,26.89,4.03,10.17,7.38,21.23,9.31,32.05-2.76-.2-6.17-1.47-8.11-1.89Zm12.44-.94c-.1,1.56-.91,2.34-2.08,2.67-1.96-11.23-5.45-22.66-9.67-33.2-3.56-8.88-7-18.78-12.37-26.8,.98-.42,1.97-.5,2.93,.05,1.28,.73,2.37,3.64,3.04,4.86,3.11,5.69,5.73,11.67,8.12,17.69,2.87,7.19,5.4,14.53,7.38,22.01,1,3.77,2.91,8.8,2.65,12.72Zm.7-26.28c-.78,1.12-2.19,1.9-3.44,2.67-1.22-3.75-2.56-7.47-4.01-11.15,.89-.14,1.79-.29,2.69-.38,2.19-.23,3.03,.4,4.06,2.43,.98,1.93,2.12,4.41,.7,6.43Z"/>
      <path class="cls-2" d="M32.41,82.51c-.69,.76-2.03,1.61-2.93,2.04-.88,.42-1.53,.65-2.1,.66,.41-.71,.76-1.47,1.03-2.26,.47-1.37-1.71-1.96-2.17-.59-.23,.66-.53,1.28-.89,1.87-.1-.09-.19-.17-.3-.28-.21-.21-.4-.45-.6-.69,.02-.05,.05-.09,.07-.15,.16-.48,.47-.9,.7-1.36,.27-.55,.51-1.13,.71-1.72,.47-1.37-1.7-1.96-2.17-.6-.2,.58-.48,1.12-.76,1.65-.3-.52-.58-1.07-.85-1.62,0,0,.01,0,.02,0,.51-1.13,1.03-2.26,1.54-3.38,.26-.56,.16-1.21-.4-1.54-.48-.29-1.29-.15-1.54,.4-.29,.63-.58,1.26-.87,1.89-.2-.44-.4-.87-.6-1.27-.1-.21-.2-.42-.3-.63,.08-.08,.16-.17,.23-.28,.5-.87,1-1.73,1.5-2.59,.73-1.26-1.21-2.39-1.94-1.14-.31,.54-.63,1.08-.94,1.61-.28-.59-.57-1.19-.85-1.78,.08-.08,.16-.15,.23-.24,.45-.59,.88-1.19,1.3-1.8,.34-.5,.09-1.25-.4-1.54-.56-.32-1.2-.1-1.54,.4-.21,.31-.44,.61-.66,.92l-.78-1.65c.64-.21,1.24-.4,1.79-.54,2.84-.72,5.65-1.52,8.45-2.38,1.49,3.19,3.1,6.25,5.25,9.08,.4,.52,1.03,1.2,1.36,1.71,1.95,3.07,1.99,4.96-.59,7.81Z"/>
      <path class="cls-2" d="M81.32,63.7c-2.76-.2-6.17-1.47-8.11-1.89-6.47-1.43-12.92-3.02-19.52-3.68-7.56-.75-15.05-.03-22.48,1.33-2.57-7.15-4.99-14.35-7.27-21.6,12.39-6.77,22.03-17.34,31.12-27.95,1.05-1.22,2.72-3.58,4.58-5.15,5.36,8.03,8.86,18.03,12.37,26.89,4.03,10.17,7.38,21.23,9.31,32.05Z"/>
      <path class="cls-1" d="M84.32,16.66c.02-2.14,0-4.28,.01-6.41,.01-1.45-2.24-1.45-2.25,0-.02,2.14,0,4.28-.01,6.41-.01,1.45,2.24,1.45,2.25,0Z"/>
      <path class="cls-1" d="M93.48,20.99c1.17-1.29,2.34-2.57,3.52-3.86,.97-1.07-.61-2.66-1.59-1.59-1.17,1.29-2.34,2.57-3.52,3.86-.97,1.07,.61,2.66,1.59,1.59Z"/>
      <path class="cls-1" d="M101.2,28.35c-1.67-.1-3.34-.09-5.01-.15-1.45-.04-1.45,2.21,0,2.25,1.67,.05,3.35,.04,5.01,.15,1.45,.09,1.44-2.16,0-2.25Z"/>
      <path class="cls-1" d="M92.73,38.59c-1.18-.85-2.3,1.1-1.14,1.94,1.43,1.03,2.77,2.19,4.07,3.38,1.07,.97,2.66-.61,1.59-1.59-1.45-1.32-2.94-2.59-4.53-3.74Z"/>
      <path class="cls-1" d="M12.16,49.2c1.33-.52,.75-2.7-.6-2.17-1.51,.59-3.02,1.17-4.53,1.76-1.33,.52-.75,2.7,.6,2.17,1.51-.59,3.02-1.17,4.53-1.76Z"/>
      <path class="cls-1" d="M12.78,50.71c-1.55,.74-3.14,1.34-4.78,1.83-1.38,.41-.79,2.58,.6,2.17,1.83-.54,3.6-1.24,5.32-2.06,1.31-.62,.17-2.56-1.14-1.94Z"/>
    </g>
  </g>
</svg>