<?xml version="1.0" encoding="UTF-8"?>
<svg id="Capa_2" data-name="Capa 2" xmlns="http://www.w3.org/2000/svg" viewBox="0 0 131.54 105.93">
  <defs>
    <style>
      .cls-1 {
        fill: #ffd133;
      }
    </style>
  </defs>
  <g id="Layer_1" data-name="Layer 1">
    <g>
      <g>
        <path d="M115.61,85.35c-.19,.22-1.15,1.35-1.81,1.91-.28,.23-.51,.36-.61,.28-.08-.07-.06-.29,.02-.6,.24-.86,.98-2.36,1.19-2.61,1.04-1.24,1.86-2.67,2.5-4.19-.44,.12-.89,.21-1.36,.21-1.36,0-2.76-.69-3.62-3.06-.14-.41,.07-.86,.48-1.01,.41-.15,.86,.07,1.01,.48,.66,1.84,1.59,2.36,3.23,1.82,.28-.1,.57-.01,.78,.18,1.61-4.8,1.59-10.38,.58-14.75-.4-1.77-.88-3.47-1.41-5.11-.49,6.01-3.46,12.64-8.48,18.67-.13,.16-.32,.24-.51,.26,.15,.32,.35,.62,.6,.92,.29,.33,.25,.82-.08,1.11-.15,.13-.34,.19-.51,.19-.23,0-.45-.1-.6-.28-1.13-1.31-1.51-2.71-1.29-4.69,.05-.44,.45-.74,.88-.7,.43,.05,.74,.45,.69,.87-.04,.33-.05,.62-.05,.89,1.56-1.91,2.89-3.87,4.01-5.86-.05-.11-.08-.23-.07-.36,.01-.1,.02-.22,.04-.32,.02-.12,.05-.25,.03-.3-.05-.28,.07-.56,.28-.74-.25-.08-.45-.28-.52-.56-.47-1.87-1.28-2.54-2.88-2.42-.45,.05-.82-.27-.85-.71-.03-.43,.29-.81,.72-.84,2.4-.21,3.88,.97,4.53,3.6,.01,.05,.01,.1,.01,.15,2.21-4.81,3.03-9.59,2.28-13.73-2.48-5.86-5.83-10.82-10.04-14.9,1.05,2.32,1.56,5.78,.71,10.95-.46,2.75-1.62,5.16-3.17,7.34,1.79,.7,2.38,2.23,2.94,3.72,.15,.42-.06,.87-.46,1.02-.09,.03-.18,.05-.28,.05-.32,0-.61-.19-.73-.5-.59-1.58-.98-2.48-2.19-2.88-.09-.03-.17-.08-.23-.14-2.57,3.17-5.9,5.85-9,8.34-3.57,2.87-6.93,5.57-8.13,8.33-.58,1.31-.59,3.52,.31,4.71,.8,1.06,1.72,1.64,2.84,1.74,3.44,.34,7.84-3.66,10.76-6.3,.44-.4,.84-.75,1.21-1.08-.32-.12-.69-.19-1.16-.2-.44-.01-.79-.36-.77-.8,0-.43,.35-.79,.79-.76,2.5,.03,3.38,1.38,4.19,3.03,.2,.38,.04,.86-.35,1.05-.11,.06-.24,.09-.35,.09-.29,0-.57-.17-.7-.44-.18-.35-.33-.64-.49-.89-.39,.34-.83,.72-1.32,1.16-2.99,2.71-7.43,6.73-11.42,6.73-.18,0-.36,0-.54-.03-1.56-.15-2.89-.94-3.95-2.35-1.33-1.78-1.25-4.57-.49-6.29,1.36-3.12,4.87-5.94,8.58-8.93,5.36-4.29,11.42-9.17,12.55-15.98,1.06-6.29,.11-10.72-2.72-12.8-2.35-1.73-5.95-1.65-9.64,.2-2.99,1.5-6,4.25-7.91,7.8,1.65-.23,2.88,.27,3.94,1.59,.26,.34,.21,.83-.12,1.11-.15,.11-.32,.17-.5,.17-.23,0-.46-.1-.61-.3-.8-.99-1.59-1.24-2.96-.93-.18,.04-.35,0-.51-.07-.81,1.94-1.29,4.07-1.3,6.36,0,.44-.35,.79-.79,.79-.43-.01-.78-.36-.78-.79,.02-6.05,3.07-11.13,6.86-14.44-.08-.12-.15-.26-.23-.4-.35-.59-.67-1.15-1.16-1.45-.22-.14-.33-.37-.36-.6-.12-.04-.24-.09-.32-.19-.14-.14-.23-.34-.23-.55s.09-.42,.23-.55c.3-.3,.82-.3,1.11,0,.14,.12,.2,.3,.22,.49,.06,0,.11,.02,.17,.06,.84,.5,1.29,1.3,1.7,2.01,.04,.07,.08,.13,.11,.19,.89-.66,1.81-1.24,2.73-1.7,2.82-1.42,5.63-1.9,8.03-1.44-6.97-4.67-15.65-7.54-25.99-8.58-4.45-.45-10.67-.9-16.99-.26,2.91,.92,4.68,2.25,5.35,4.05,1.19,3.21-1.33,6.96-3.77,10.57-1.76,2.62-3.58,5.34-3.29,7.07,.45,2.7,2.34,4.46,4.17,6.16,2.84,2.63,5.79,5.36,2.86,11.21-.14,.28-.42,.44-.71,.44-.11,0-.24-.03-.35-.09-.39-.2-.55-.66-.35-1.05,2.4-4.8,.23-6.81-2.51-9.37-1.93-1.78-4.12-3.81-4.66-7.05-.39-2.34,1.52-5.19,3.53-8.19,2.22-3.3,4.51-6.7,3.61-9.14-.54-1.44-2.25-2.56-5.07-3.34-.7-.18-1.48-.12-2.32-.07-.75,.06-1.53,.11-2.3-.01-.14-.02-.26-.09-.36-.18-5.58,1.27-10.99,3.4-15.89,6.19,7.69,3.42,6.66,6.65,5.58,10.08-.79,2.47-1.59,5.02,.66,8.39,1.05-.44,1.89-1.71,2.43-2.8,.2-.39,.67-.56,1.06-.36,.39,.19,.54,.67,.35,1.06-1.18,2.36-2.61,3.64-4.24,3.82-.12,.01-.24,.01-.36,.01-1.54,0-3.13-1-4.71-2.99-.27-.35-.22-.84,.12-1.12,.34-.26,.84-.21,1.11,.13,.61,.77,1.43,1.63,2.3,2.08-1.85-3.51-.96-6.35-.22-8.7,1.02-3.2,1.69-5.32-4.72-8.16-.32-.15-.49-.48-.45-.82-6.81,4.06-12.54,9.37-16.18,15.3-3.15,5.11-4.69,10.44-4.63,15.94,2.2-3.55,4.06-5.16,5.87-5.09,2.63,.07,4.23,3.42,6.09,7.32,1.59,3.36,3.4,7.15,5.94,8.75,3.97,2.51,8.68,2.65,12,.37,2.92-2.02,4.13-5.53,3.3-9.65-.68-3.39-4.88-5.03-8.94-6.62-3.85-1.51-7.49-2.92-8.46-5.86-.57-1.71-.14-3.66,1.31-5.99,.24-.36,.72-.48,1.09-.25,.37,.24,.47,.73,.25,1.09-1.19,1.9-1.57,3.42-1.16,4.66,.74,2.23,4.04,3.52,7.54,4.88,4.46,1.76,9.07,3.56,9.92,7.78,.95,4.77-.5,8.87-3.97,11.26-1.83,1.25-4.02,1.89-6.3,1.89-2.49,0-5.07-.75-7.42-2.23-2.92-1.85-4.84-5.86-6.52-9.41-1.5-3.13-3.05-6.38-4.7-6.42h-.04c-.99,0-2.76,1.14-5.62,6.36,.18,1.73,.52,3.47,1.02,5.23,.82,2.86,2.47,5.22,4.68,7.13-1.5-2.61-1.77-5.44-.74-8.41,.15-.42,.59-.63,1-.49,.41,.15,.63,.59,.48,1-1.44,4.17,.07,7.97,4.48,11.3,3.08,1.49,6.58,2.57,10.21,3.33,4.61,.31,9.81-1.13,11.86-5.24,.03-.06,.07-.1,.11-.13-.29-1.21-.31-2.51-.08-3.76,.08-.43,.48-.71,.92-.63,.43,.08,.71,.49,.63,.92-.38,2.05,.06,5.56,2.9,6.18,.42,.09,.69,.52,.59,.94-.08,.37-.41,.62-.77,.62-.05,0-.11-.02-.17-.03-1.51-.34-2.6-1.24-3.3-2.43-1.51,2.28-3.93,3.78-6.69,4.56,4.48,.56,8.83,.76,12.45,.78,.28,.01,1.04,.18,1.54,.42,.28,.12,.47,.27,.47,.43,0,.14-.17,.26-.41,.36-.13,.06-.28,.11-.44,.16-.45,.13-.96,.21-1.17,.21-6.07-.04-12.69-.49-18.79-1.77-1.74-.14-3.45-.53-4.97-1.15-.12-.05-.22-.13-.29-.22-1.28-.4-2.52-.85-3.71-1.35-.07,.01-.14,.03-.21,.03-.15,0-.3-.05-.43-.14-.26-.16-.5-.34-.75-.51-5.31-2.56-9.37-6.29-10.91-11.68-.47-1.66-.81-3.34-1.01-5.01-.25-.23-.32-.6-.15-.91,.02-.04,.03-.06,.05-.09-.59-6.66,.99-13.21,4.71-19.25,6.9-11.23,21-20.34,35.92-23.21,7.95-1.52,16.3-.96,21.89-.4,21.23,2.13,35.64,11.75,42.98,28.62,.12,.11,.21,.25,.25,.43,.03,.09,.03,.2,.06,.29,1.29,3.11,2.37,6.47,3.19,10.06,1.42,6.13,1.24,15.5-3.92,21.7Z"/>
        <path d="M113.8,87.25c-.14-.2-.36-.31-.59-.32-.18,0-.36,.05-.51,.16-11.13,8.34-25.22,11.51-43.07,9.68-3.91-.4-9.27-.95-12.57-3.64-2.02-1.66-2.67-3.8-1.99-6.54,1.84-7.38,12.88-16.16,17.11-17,.43-.08,.71-.5,.62-.92-.08-.43-.49-.7-.92-.62-.8,.15-1.81,.57-2.94,1.17,.15-.2,.21-.47,.12-.72-2.5-7.23-6.28-18.18-1.95-26.16,.53-.98,1.17-1.9,1.78-2.8,1.02-1.48,2.06-3.01,2.71-4.86,.14,.08,.28,.18,.43,.3,.34,.27,.83,.21,1.11-.13,.27-.34,.21-.82-.13-1.1-2.3-1.84-4.09-.71-5.88,.7-.34,.26-.39,.77-.12,1.1,.15,.2,.38,.3,.61,.3,.17,0,.34-.06,.49-.17,.77-.62,1.36-1,1.87-1.19-.58,1.5-1.45,2.8-2.38,4.16-.64,.92-1.3,1.89-1.87,2.94-4.65,8.59-.75,19.93,1.85,27.43,.11,.31,.41,.52,.74,.52,.01,0,.03-.01,.04-.01-5.44,3.09-13.21,10.26-14.81,16.68-.22,.88-.32,1.72-.3,2.53,.01,.27,.03,.53,.06,.79,.24,1.88,1.16,3.51,2.76,4.81,3.66,2.99,9.29,3.57,13.4,4,1.98,.2,3.9,.34,5.79,.42,.01,.44,.24,1.07,.43,1.31,2.94,3.84,7.25,5.86,12.36,5.86,1.14,0,2.31-.1,3.53-.3,8.8-1.47,17.27-8.08,19.7-15.38,.03-.09,.04-.18,.03-.27,.79-.52,1.57-1.06,2.34-1.64,.34-.26,.41-.75,.15-1.09Zm-22.48,16.82c-6.05,1.02-11.16-.75-14.38-4.96-.06-.08-.17-.18-.29-.29,.81,.02,1.61,.03,2.4,.03,11.69,0,21.63-2.49,30.09-7.5-2.89,6.14-10.21,11.46-17.82,12.72Z"/>
        <path class="cls-1" d="M109.14,91.35c-2.89,6.14-10.21,11.46-17.82,12.72-6.05,1.02-11.16-.75-14.38-4.96-.06-.08-.17-.18-.29-.29,.81,.02,1.61,.03,2.4,.03,11.69,0,21.63-2.49,30.09-7.5Z"/>
        <path d="M35.51,70.69c-.01,.43-.36,.77-.78,.77h-.03c-.43-.03-.77-.39-.76-.83,.17-4.26-3.61-7.29-7.27-10.22-3.35-2.68-6.8-5.45-7.16-9.2-.23-2.42,.83-4.95,3.23-7.74,.28-.34,.78-.38,1.11-.09,.32,.27,.36,.77,.08,1.1-2.1,2.46-3.04,4.61-2.86,6.58,.29,3.1,3.35,5.54,6.58,8.12,3.96,3.17,8.06,6.45,7.86,11.51Z"/>
        <path d="M55.12,75.14l-.26,.7c-.12,.31-.42,.51-.74,.51-.09,0-.18-.02-.27-.05-.41-.16-.61-.61-.46-1.01l.26-.7c1.63-4.31,3.16-8.38,.23-12.58-.77-1.1-1.81-2.04-2.91-3.05-1.8-1.65-3.66-3.36-4.4-5.86-.66-2.27-.25-4.49,.15-6.62,.37-2,.72-3.9,.21-5.77-.08,.1-.14,.21-.21,.34-.15,.26-.42,.41-.7,.41-.12,0-.25-.04-.37-.1-.38-.2-.52-.67-.32-1.06,.91-1.68,2.31-1.91,3.7-1.91,.43,0,.79,.35,.79,.78s-.36,.79-.79,.79c-.25,0-.47,0-.68,.02,.01,.03,.02,.04,.03,.05,.71,2.31,.29,4.56-.12,6.74-.38,2.04-.74,3.97-.18,5.88,.62,2.09,2.24,3.58,3.95,5.16,1.12,1.01,2.27,2.06,3.14,3.3,3.41,4.89,1.65,9.53-.05,14.03Z"/>
        <path d="M85.55,61.54c-.1,.41,.02,.72,.32,1.31,.06,.12,.08,.22,.08,.33,.52,.76,1.28,1.14,2.48,1.54,.42,.14,.64,.59,.51,1-.12,.33-.42,.53-.75,.53-.08,0-.17-.02-.25-.04-1.42-.48-2.86-1.08-3.68-2.82-.06-.12-.06-.26-.06-.4-.06-.12-.11-.27-.14-.41-1.91,1.21-3.96,1.91-5.95,1.91-.19,0-.38-.01-.57-.02-3.79-.25-6.48-3.19-7.39-8.05-1.17-6.19,2.39-11.48,5.52-16.15,.93-1.37,1.81-2.68,2.56-3.99,1.29-2.21,2.13-4.92,2.51-8.09,.05-.44,.44-.74,.87-.69,.43,.05,.74,.44,.69,.87-.41,3.37-1.32,6.3-2.7,8.7-.79,1.36-1.69,2.68-2.63,4.09-3.1,4.62-6.32,9.41-5.28,14.97,.78,4.16,2.9,6.56,5.95,6.77,4.72,.32,10.19-4.38,12.23-10.48,.14-.41,.57-.64,.99-.5,.41,.14,.64,.59,.5,1-1.16,3.47-3.28,6.46-5.81,8.54v.08Z"/>
        <path d="M74.67,86.59c-.1,.33-.41,.56-.75,.56-.08,0-.15-.01-.23-.04-.41-.12-.65-.56-.52-.97,.42-1.43,.49-2.82,.22-3.97-3.86,4.94-9.92,10.02-15.85,10.02-.33,0-.66-.02-1-.06-.43-.03-.74-.42-.7-.85,.04-.44,.42-.75,.86-.7,2.3,.23,4.65-.51,6.86-1.75-.96-.3-1.72-.95-2.18-1.92-.84-1.79-.54-4.48,.7-6.25,.25-.35,.74-.44,1.09-.19,.36,.26,.45,.74,.2,1.09-.92,1.31-1.17,3.41-.57,4.69,.35,.74,.93,1.11,1.77,1.18,.27,.02,.49,.18,.61,.4,3.1-2.12,5.8-5.04,7.49-7.32-.71-.96-1.81-1.49-3.28-1.56-.44-.02-.78-.39-.76-.83,.02-.43,.4-.75,.83-.74,1.98,.09,3.55,.88,4.54,2.28,1.23,1.73,1.47,4.26,.67,6.93Z"/>
        <path d="M104.3,88.24c-5.15,2.94-11.47,4.47-18.13,4.47-2.9,0-5.85-.29-8.81-.88-.42-.08-.7-.5-.62-.92,.09-.43,.51-.7,.93-.62,9.37,1.87,18.79,.62,25.84-3.42,.39-.21,.87-.08,1.08,.31,.21,.37,.08,.85-.29,1.06Z"/>
        <path class="cls-1" d="M112.4,76.28c.41-.15,.86,.07,1.01,.48,.66,1.84,1.59,2.36,3.23,1.82,.28-.1,.57-.01,.78,.18,1.61-4.8,1.59-10.38,.58-14.75-.4-1.77-.88-3.47-1.41-5.11-.49,6.01-3.46,12.64-8.48,18.67-.13,.16-.32,.24-.51,.26,.15,.32,.35,.62,.6,.92,.29,.33,.25,.82-.08,1.11-.15,.13-.34,.19-.51,.19-.23,0-.45-.1-.6-.28-1.13-1.31-1.51-2.71-1.29-4.69,.05-.44,.45-.74,.88-.7,.43,.05,.74,.45,.69,.87-.04,.33-.05,.62-.05,.89,1.56-1.91,2.89-3.87,4.01-5.86-.05-.11-.08-.23-.07-.36,.01-.1,.02-.22,.04-.32,.02-.12,.05-.25,.03-.3-.05-.28,.07-.56,.28-.74-.25-.08-.45-.28-.52-.56-.47-1.87-1.28-2.54-2.88-2.42-.45,.05-.82-.27-.85-.71-.03-.43,.29-.81,.72-.84,2.4-.21,3.88,.97,4.53,3.6,.01,.05,.01,.1,.01,.15,2.21-4.81,3.03-9.59,2.28-13.73-2.48-5.86-5.83-10.82-10.04-14.9,1.05,2.32,1.56,5.78,.71,10.95-.46,2.75-1.62,5.16-3.17,7.34,1.79,.7,2.38,2.23,2.94,3.72,.15,.42-.06,.87-.46,1.02-.09,.03-.18,.05-.28,.05-.32,0-.61-.19-.73-.5-.59-1.58-.98-2.48-2.19-2.88-.09-.03-.17-.08-.23-.14-2.57,3.17-5.9,5.85-9,8.34-3.57,2.87-6.93,5.57-8.13,8.33-.58,1.31-.59,3.52,.31,4.71,.8,1.06,1.72,1.64,2.84,1.74,3.44,.34,7.84-3.66,10.76-6.3,.44-.4,.84-.75,1.21-1.08-.32-.12-.69-.19-1.16-.2-.44-.01-.79-.36-.77-.8,0-.43,.35-.79,.79-.76,2.5,.03,3.38,1.38,4.19,3.03,.2,.38,.04,.86-.35,1.05-.11,.06-.24,.09-.35,.09-.29,0-.57-.17-.7-.44-.18-.35-.33-.64-.49-.89-.39,.34-.83,.72-1.32,1.16-2.99,2.71-7.43,6.73-11.42,6.73-.18,0-.36,0-.54-.03-1.56-.15-2.89-.94-3.95-2.35-1.33-1.78-1.25-4.57-.49-6.29,1.36-3.12,4.87-5.94,8.58-8.93,5.36-4.29,11.42-9.17,12.55-15.98,1.06-6.29,.11-10.72-2.72-12.8-2.35-1.73-5.95-1.65-9.64,.2-2.99,1.5-6,4.25-7.91,7.8,1.65-.23,2.88,.27,3.94,1.59,.26,.34,.21,.83-.12,1.11-.15,.11-.32,.17-.5,.17-.23,0-.46-.1-.61-.3-.8-.99-1.59-1.24-2.96-.93-.18,.04-.35,0-.51-.07-.81,1.94-1.29,4.07-1.3,6.36,0,.44-.35,.79-.79,.79-.43-.01-.78-.36-.78-.79,.02-6.05,3.07-11.13,6.86-14.44-.08-.12-.15-.26-.23-.4-.35-.59-.67-1.15-1.16-1.45-.22-.14-.33-.37-.36-.6-.12-.04-.24-.09-.32-.19-.14-.14-.23-.34-.23-.55s.09-.42,.23-.55c.3-.3,.82-.3,1.11,0,.14,.12,.2,.3,.22,.49,.06,0,.11,.02,.17,.06,.84,.5,1.29,1.3,1.7,2.01,.04,.07,.08,.13,.11,.19,.89-.66,1.81-1.24,2.73-1.7,2.82-1.42,5.63-1.9,8.03-1.44-6.97-4.67-15.65-7.54-25.99-8.58-4.45-.45-10.67-.9-16.99-.26,2.91,.92,4.68,2.25,5.35,4.05,1.19,3.21-1.33,6.96-3.77,10.57-1.76,2.62-3.58,5.34-3.29,7.07,.45,2.7,2.34,4.46,4.17,6.16,2.84,2.63,5.79,5.36,2.86,11.21-.14,.28-.42,.44-.71,.44-.11,0-.24-.03-.35-.09-.39-.2-.55-.66-.35-1.05,2.4-4.8,.23-6.81-2.51-9.37-1.93-1.78-4.12-3.81-4.66-7.05-.39-2.34,1.52-5.19,3.53-8.19,2.22-3.3,4.51-6.7,3.61-9.14-.54-1.44-2.25-2.56-5.07-3.34-.7-.18-1.48-.12-2.32-.07-.75,.06-1.53,.11-2.3-.01-.14-.02-.26-.09-.36-.18-5.58,1.27-10.99,3.4-15.89,6.19,7.69,3.42,6.66,6.65,5.58,10.08-.79,2.47-1.59,5.02,.66,8.39,1.05-.44,1.89-1.71,2.43-2.8,.2-.39,.67-.56,1.06-.36,.39,.19,.54,.67,.35,1.06-1.18,2.36-2.61,3.64-4.24,3.82-.12,.01-.24,.01-.36,.01-1.54,0-3.13-1-4.71-2.99-.27-.35-.22-.84,.12-1.12,.34-.26,.84-.21,1.11,.13,.61,.77,1.43,1.63,2.3,2.08-1.85-3.51-.96-6.35-.22-8.7,1.02-3.2,1.69-5.32-4.72-8.16-.32-.15-.49-.48-.45-.82-6.81,4.06-12.54,9.37-16.18,15.3-3.15,5.11-4.69,10.44-4.63,15.94,2.2-3.55,4.06-5.16,5.87-5.09,2.63,.07,4.23,3.42,6.09,7.32,1.59,3.36,3.4,7.15,5.94,8.75,3.97,2.51,8.68,2.65,12,.37,2.92-2.02,4.13-5.53,3.3-9.65-.68-3.39-4.88-5.03-8.94-6.62-3.85-1.51-7.49-2.92-8.46-5.86-.57-1.71-.14-3.66,1.31-5.99,.24-.36,.72-.48,1.09-.25,.37,.24,.47,.73,.25,1.09-1.19,1.9-1.57,3.42-1.16,4.66,.74,2.23,4.04,3.52,7.54,4.88,4.46,1.76,9.07,3.56,9.92,7.78,.95,4.77-.5,8.87-3.97,11.26-1.83,1.25-4.02,1.89-6.3,1.89-2.49,0-5.07-.75-7.42-2.23-2.92-1.85-4.84-5.86-6.52-9.41-1.5-3.13-3.05-6.38-4.7-6.42h-.04c-.99,0-2.76,1.14-5.62,6.36,.18,1.73,.52,3.47,1.02,5.23,.82,2.86,2.47,5.22,4.68,7.13-1.5-2.61-1.77-5.44-.74-8.41,.15-.42,.59-.63,1-.49,.41,.15,.63,.59,.48,1-1.44,4.17,.07,7.97,4.48,11.3,3.08,1.49,6.58,2.57,10.21,3.33,4.61,.31,9.81-1.13,11.86-5.24,.03-.06,.07-.1,.11-.13-.29-1.21-.31-2.51-.08-3.76,.08-.43,.48-.71,.92-.63,.43,.08,.71,.49,.63,.92-.38,2.05,.06,5.56,2.9,6.18,.42,.09,.69,.52,.59,.94-.08,.37-.41,.62-.77,.62-.05,0-.11-.02-.17-.03-1.51-.34-2.6-1.24-3.3-2.43-1.51,2.28-3.93,3.78-6.69,4.56,4.48,.56,8.83,.76,12.45,.78,.28,.01,1.04,.18,1.54,.42-.02-.81,.08-1.65,.3-2.53,1.6-6.42,9.37-13.59,14.81-16.68-.01,0-.03,.01-.04,.01-.33,0-.63-.21-.74-.52-2.6-7.5-6.5-18.84-1.85-27.43,.57-1.05,1.23-2.02,1.87-2.94,.93-1.36,1.8-2.66,2.38-4.16-.51,.19-1.1,.57-1.87,1.19-.15,.11-.32,.17-.49,.17-.23,0-.46-.1-.61-.3-.27-.33-.22-.84,.12-1.1,1.79-1.41,3.58-2.54,5.88-.7,.34,.28,.4,.76,.13,1.1-.28,.34-.77,.4-1.11,.13-.15-.12-.29-.22-.43-.3-.65,1.85-1.69,3.38-2.71,4.86-.61,.9-1.25,1.82-1.78,2.8-4.33,7.98-.55,18.93,1.95,26.16,.09,.25,.03,.52-.12,.72,1.13-.6,2.14-1.02,2.94-1.17,.43-.08,.84,.19,.92,.62,.09,.42-.19,.84-.62,.92-4.23,.84-15.27,9.62-17.11,17-.68,2.74-.03,4.88,1.99,6.54,3.3,2.69,8.66,3.24,12.57,3.64,17.85,1.83,31.94-1.34,43.07-9.68,.15-.11,.33-.16,.51-.16,.24-.86,.98-2.36,1.19-2.61,1.04-1.24,1.86-2.67,2.5-4.19-.44,.12-.89,.21-1.36,.21-1.36,0-2.76-.69-3.62-3.06-.14-.41,.07-.86,.48-1.01Zm-12.87-28.46c1.45-.33,2.63-.15,3.93,.63,.37,.23,.49,.71,.27,1.09-.15,.24-.42,.38-.68,.38-.14,0-.28-.04-.41-.12-.93-.56-1.7-.69-2.76-.44-.42,.09-.84-.17-.94-.58-.1-.43,.17-.86,.59-.96ZM27.65,59.18c3.96,3.17,8.06,6.45,7.86,11.51-.01,.43-.36,.77-.78,.77h-.03c-.43-.03-.77-.39-.76-.83,.17-4.26-3.61-7.29-7.27-10.22-3.35-2.68-6.8-5.45-7.16-9.2-.23-2.42,.83-4.95,3.23-7.74,.28-.34,.78-.38,1.11-.09,.32,.27,.36,.77,.08,1.1-2.1,2.46-3.04,4.61-2.86,6.58,.29,3.1,3.35,5.54,6.58,8.12Zm27.47,15.96l-.26,.7c-.12,.31-.42,.51-.74,.51-.09,0-.18-.02-.27-.05-.41-.16-.61-.61-.46-1.01l.26-.7c1.63-4.31,3.16-8.38,.23-12.58-.77-1.1-1.81-2.04-2.91-3.05-1.8-1.65-3.66-3.36-4.4-5.86-.66-2.27-.25-4.49,.15-6.62,.37-2,.72-3.9,.21-5.77-.08,.1-.14,.21-.21,.34-.15,.26-.42,.41-.7,.41-.12,0-.25-.04-.37-.1-.38-.2-.52-.67-.32-1.06,.91-1.68,2.31-1.91,3.7-1.91,.43,0,.79,.35,.79,.78s-.36,.79-.79,.79c-.25,0-.47,0-.68,.02,.01,.03,.02,.04,.03,.05,.71,2.31,.29,4.56-.12,6.74-.38,2.04-.74,3.97-.18,5.88,.62,2.09,2.24,3.58,3.95,5.16,1.12,1.01,2.27,2.06,3.14,3.3,3.41,4.89,1.65,9.53-.05,14.03Zm15.03-18.72c-1.17-6.19,2.39-11.48,5.52-16.15,.93-1.37,1.81-2.68,2.56-3.99,1.29-2.21,2.13-4.92,2.51-8.09,.05-.44,.44-.74,.87-.69,.43,.05,.74,.44,.69,.87-.41,3.37-1.32,6.3-2.7,8.7-.79,1.36-1.69,2.68-2.63,4.09-3.1,4.62-6.32,9.41-5.28,14.97,.78,4.16,2.9,6.56,5.95,6.77,4.72,.32,10.19-4.38,12.23-10.48,.14-.41,.57-.64,.99-.5,.41,.14,.64,.59,.5,1-1.16,3.47-3.28,6.46-5.81,8.54v.08c-.1,.41,.02,.72,.32,1.31,.06,.12,.08,.22,.08,.33,.52,.76,1.28,1.14,2.48,1.54,.42,.14,.64,.59,.51,1-.12,.33-.42,.53-.75,.53-.08,0-.17-.02-.25-.04-1.42-.48-2.86-1.08-3.68-2.82-.06-.12-.06-.26-.06-.4-.06-.12-.11-.27-.14-.41-1.91,1.21-3.96,1.91-5.95,1.91-.19,0-.38-.01-.57-.02-3.79-.25-6.48-3.19-7.39-8.05Zm4.52,30.17c-.1,.33-.41,.56-.75,.56-.08,0-.15-.01-.23-.04-.41-.12-.65-.56-.52-.97,.42-1.43,.49-2.82,.22-3.97-3.86,4.94-9.92,10.02-15.85,10.02-.33,0-.66-.02-1-.06-.43-.03-.74-.42-.7-.85,.04-.44,.42-.75,.86-.7,2.3,.23,4.65-.51,6.86-1.75-.96-.3-1.72-.95-2.18-1.92-.84-1.79-.54-4.48,.7-6.25,.25-.35,.74-.44,1.09-.19,.36,.26,.45,.74,.2,1.09-.92,1.31-1.17,3.41-.57,4.69,.35,.74,.93,1.11,1.77,1.18,.27,.02,.49,.18,.61,.4,3.1-2.12,5.8-5.04,7.49-7.32-.71-.96-1.81-1.49-3.28-1.56-.44-.02-.78-.39-.76-.83,.02-.43,.4-.75,.83-.74,1.98,.09,3.55,.88,4.54,2.28,1.23,1.73,1.47,4.26,.67,6.93Zm29.63,1.65c-5.15,2.94-11.47,4.47-18.13,4.47-2.9,0-5.85-.29-8.81-.88-.42-.08-.7-.5-.62-.92,.09-.43,.51-.7,.93-.62,9.37,1.87,18.79,.62,25.84-3.42,.39-.21,.87-.08,1.08,.31,.21,.37,.08,.85-.29,1.06Z"/>
        <path d="M103.73,49.54c-.15,.24-.42,.38-.68,.38-.14,0-.28-.04-.41-.12-.93-.56-1.7-.69-2.76-.44-.42,.09-.84-.17-.94-.58-.1-.43,.17-.86,.59-.96,1.45-.33,2.63-.15,3.93,.63,.37,.23,.49,.71,.27,1.09Z"/>
      </g>
      <path d="M12.52,33.82c-.21,0-.4-.08-.56-.23-.66-.66-1.33-1.31-1.99-1.98C6.62,28.29,3.16,24.86,.17,21.06c-.27-.34-.21-.83,.13-1.1,.34-.26,.84-.2,1.11,.14,2.93,3.73,6.36,7.13,9.67,10.41,.66,.66,1.33,1.32,1.99,1.98,.31,.31,.31,.81,0,1.11-.15,.15-.35,.23-.55,.23Z"/>
      <path d="M35.97,18.68c-.26,0-.51-.12-.66-.36l-1.21-1.87c-1.25-1.93-1.27-1.97-2.18-3.69-.44-.85-1.11-2.13-2.27-4.26-.21-.39-.06-.86,.32-1.06,.38-.21,.86-.08,1.06,.31,1.16,2.15,1.83,3.42,2.27,4.28q.88,1.68,2.1,3.57l1.21,1.87c.23,.36,.12,.85-.24,1.09-.13,.09-.28,.12-.43,.12Z"/>
      <path d="M70.17,15.5h-.04c-.43-.01-.77-.38-.75-.81l.07-1.8c.16-3.98,.34-8.1,.66-12.15,.03-.44,.39-.76,.84-.73,.43,.04,.76,.41,.72,.85-.31,4.01-.48,8.13-.65,12.1l-.08,1.79c-.02,.43-.37,.75-.78,.75Z"/>
      <path d="M115.88,32.14c-.32,0-.59-.12-.75-.5-.33-.75-.39-.89,5.43-4.08,2.75-1.5,5.57-2.98,6.17-3.28,.39-.2,.86-.04,1.05,.35,.2,.39,.04,.85-.35,1.05-1.43,.71-7.28,3.83-9.83,5.36,.03,.33-.18,.65-.51,.78-.43,.16-.86,.33-1.22,.33Z"/>
      <path d="M127.34,49.95c-.35,0-.66-.24-.76-.59-.11-.41,.14-.85,.55-.96,1.05-.29,1.57-.45,1.87-.56,.58-.19,.66-.2,1.41-.19h.34c.44,0,.79,.35,.79,.78s-.35,.79-.79,.79h-.35c-.56,0-.56,0-.9,.11-.32,.11-.86,.29-1.95,.59-.07,.02-.14,.04-.21,.04Z"/>
    </g>
  </g>
</svg>