<?xml version="1.0" encoding="UTF-8"?>
<svg id="Capa_2" data-name="Capa 2" xmlns="http://www.w3.org/2000/svg" viewBox="0 0 164.48 197.25">
  <defs>
    <style>
      .cls-1 {
        fill: #ffd133;
      }

      .cls-1, .cls-2 {
        fill-rule: evenodd;
      }
    </style>
  </defs>
  <g id="Layer_1" data-name="Layer 1">
    <g>
      <path class="cls-2" d="M161.47,139.52c-7.51-21.08-15.51-41.99-23.3-62.97l.5-.18c-4.04-10.88-8.06-21.76-12.11-32.62-4.16-11.11-7.97-22.37-12.66-33.27C108.87-1.19,105.63-.95,95.78,1.04c-7.11,1.43-14.05,3.73-21.01,5.81-4.39,1.3-8.59,3.29-13.04,4.33-14.59,3.38-27.88,9.96-41.24,16.36-5.07,2.44-10.01,5.29-14.63,8.5C-.04,40.15-1.2,44.72,1.1,51.54c.78,2.29,1.69,4.54,2.63,6.78,10,23.86,19.95,47.73,30.05,71.54,5.14,12.15,10.54,24.2,15.84,36.29,3.46,7.9,6.86,15.82,10.44,23.65,2.86,6.25,7.95,8.62,14.52,6.9,2.09-.54,4.15-1.26,6.12-2.11,20.51-8.89,41.05-17.74,61.46-26.82,4.38-1.95,8.6-4.52,12.49-7.36,10.82-7.89,12.08-6.16,6.82-20.89Zm-3.8,14.61c-5.97,5.23-13,8.73-20.04,11.98-17.36,8.04-34.94,15.6-52.47,23.27-3.45,1.51-7.01,2.81-10.6,3.95-5.47,1.73-8.55,.38-11.35-4.69-.65-1.18-1.1-2.46-1.64-3.7-8.77-19.99-17.64-39.94-26.25-59.99C25.54,102.16,15.98,79.28,6.37,56.43c-.94-2.23-1.47-4.62-2.33-6.89-1.84-4.85-.12-8.55,3.97-11.08,5.03-3.1,10.11-6.22,15.49-8.62,11.07-4.91,21.74-10.69,33.67-13.63,7.3-1.8,14.27-4.93,21.48-7.16,6.17-1.9,12.44-3.55,18.74-4.99,5.02-1.14,9.62-.83,11.77,5.18,.89,2.48,2.68,4.64,3.61,7.11,7.59,20.21,15.06,40.45,22.58,60.67-.14,.05-.28,.1-.4,.16,7.41,19.98,14.87,39.94,22.21,59.95,1.2,3.26,1.74,6.78,2.9,10.07,1.1,3.11-.12,4.93-2.39,6.93Z"/>
      <path class="cls-1" d="M160.06,147.2c-1.16-3.29-1.7-6.81-2.9-10.07-7.34-20.01-14.8-39.97-22.21-59.95,.12-.06,.26-.11,.4-.16-7.52-20.22-14.99-40.46-22.58-60.67-.93-2.47-2.72-4.63-3.61-7.11-2.15-6.01-6.75-6.32-11.77-5.18-6.3,1.44-12.57,3.09-18.74,4.99-7.21,2.23-14.18,5.36-21.48,7.16-11.93,2.94-22.6,8.72-33.67,13.63-5.38,2.4-10.46,5.52-15.49,8.62-4.09,2.53-5.81,6.23-3.97,11.08,.86,2.27,1.39,4.66,2.33,6.89,9.61,22.85,19.17,45.73,28.95,68.52,8.61,20.05,17.48,40,26.25,59.99,.54,1.24,.99,2.52,1.64,3.7,2.8,5.07,5.88,6.42,11.35,4.69,3.59-1.14,7.15-2.44,10.6-3.95,17.53-7.67,35.11-15.23,52.47-23.27,7.04-3.25,14.07-6.75,20.04-11.98,2.27-2,3.49-3.82,2.39-6.93Zm-29.91-60.58c2.13,6.86,1.55,8.03-5.34,10.72-.25,.1-.5,.18-.75,.28q-9.23,3.49-12.63-5.56c-3.17-8.41-1.87-10.77,6.91-12.58,8.64-1.77,9.12-1.48,11.81,7.14Zm-17.85-34.5c1.56-.29,4.3,.47,4.94,1.61,1.93,3.45,3.42,7.25,4.36,11.08,.3,1.25-1.29,3.46-2.61,4.46-1.87,1.43-4.27,2.15-5.2,2.58-2.55,.95-3.82,1.37-5.06,1.89-2.78,1.18-4.96,.1-5.89-2.4-1.47-3.97-2.61-8.11-3.41-12.28-.2-1.05,1.11-3.09,2.22-3.56,3.41-1.47,7.01-2.69,10.65-3.38Zm-43.97,47.17c2.15-.69,5.83-2.6,8.02,.5,2.35,3.36,3.45,7.64,4.84,11.6,.22,.62-.77,2.04-1.55,2.57-1.99,1.31-4.07,2.58-6.28,3.43-4.15,1.63-5.82,1.12-8.22-2.33-1.07-1.52-1.77-3.31-2.51-5.02-2.9-6.8-2.39-7.88,5.7-10.75Zm-9.86-6.39c-2.69-3.45-3.87-8.1-5.56-12.28-.22-.58,.31-1.57,.68-2.27,1.29-2.45,11.04-6.46,13.69-5.44,1.15,.44,2.33,1.46,2.95,2.53,.93,1.61,1.38,3.49,2.04,5.25l.14-.05c.47,1.27,1.08,2.49,1.38,3.79,.98,4.18,.11,5.67-4.07,7.33-.5,.2-1.01,.39-1.54,.49-3.27,.63-7.06,4.05-9.71,.65Zm22.22-29.22c8.63-3.89,10.55-3.1,14.09,6.17,3.45,9,2.87,10.25-6.24,13.43-5.99,2.1-7.5,1.37-9.24-4.74-.81-2.84-1.25-5.78-2.03-8.62-.89-3.27,.57-4.95,3.42-6.24Zm-4.01,62.08c7.84-4.2,9.85-3.47,12.6,3.48,.96,2.59,1.87,3.88,1.79,5.1-.11,1.68-.5,3.86-1.62,4.86-1.96,1.74-4.47,2.95-6.92,3.99-3.35,1.43-5.13,.53-6.92-3-.73-1.43-1.39-2.89-2.12-4.33-2.8-5.52-2.29-7.15,3.19-10.1Zm10.79-22.82c-5.02-9.47-3.57-12.47,7.02-14.5,5.85-1.12,6.65-.68,9.02,4.95,.41,.98,.8,1.97,1.14,2.98,2.04,6.12,1.68,6.88-4.51,9.59-.74,.32-1.46,.63-1.78,.76-6.99,2.75-7.54,2.55-10.89-3.78ZM19.21,63.06c-1.41-2.89-2.82-5.8-4.12-8.76-2.02-4.56-1.31-6.97,3.23-9.18,6.54-3.18,13.15-6.25,19.88-8.98,7.74-3.15,15.64-5.87,23.48-8.79,9.61-3.57,19.2-7.15,28.81-10.68,1.77-.64,3.6-1.18,5.46-1.49,6.67-1.17,7.73-.4,9.63,6.24,.51,1.77,1.27,3.48,2.05,5.16,2.12,4.65,2.06,4.92-3.04,6.9-14.07,5.49-28.23,10.75-42.21,16.48-12.2,5.01-24.18,10.51-36.26,15.83-3.75,1.66-4.98,1.24-6.91-2.73Zm17.51,39.04c-2.33-4.08-4.48-8.28-6.44-12.55-.27-.59,.6-1.99,1.29-2.67,.93-.91,2.17-1.55,3.32-2.2,7.48-4.28,10.27-3.41,14.2,4.39,3.39,6.7,2.45,9.07-5.84,12.38-.48,.15-1.97,.78-3.53,1.05-.98,.17-2.69,.15-3-.4Zm5.51,20.46c-.88-1.63-1.52-3.41-2.14-5.17-1.04-2.96-.03-5.25,2.59-6.8,1.38-.8,2.86-1.48,4.35-2.05,4.37-1.67,5.43-1.28,7.71,2.75,.67,1.15,1.17,2.4,1.77,3.59,3.62,7.12,3.25,8.12-4.12,11.14-6,2.46-7.18,2.09-10.16-3.46Zm13.09,28.39c-1.19-2.36-2.66-4.63-3.58-7.1-1.48-3.98-1.03-4.88,2.46-7.27,7.27-4.94,10.03-3.98,13.49,4.7,2.39,6.02,2,7.02-3.96,9.72-1.2,.55-2.45,1.03-3.7,1.48-1.94,.7-3.65,.61-4.71-1.53Zm36.71,15.63c-5.39,2.37-10.8,4.66-16.25,6.86-1.96,.79-4.06,1.4-6.13,1.75-2.88,.47-5.3-.25-6.38-3.42-.51-1.52-1.39-2.91-1.86-4.44-1.16-3.78-.44-5.28,3.21-6.91,5.6-2.5,11.24-4.93,14.83-6.5,12.56-5.22,12.61-5.19,15.8,5.32,1.49,4.93,1.37,5.32-3.22,7.34Zm12.53-51.64c.82-.24,2.08-.68,3.38-1.03,2.71-.72,4.76,.02,5.84,2.78,.2,.5,.4,.99,.61,1.49,4.17,9.6,3.36,11.13-6.46,14.44-3.18,1.07-5.16,.24-6.97-2.08-.66-.83-1.17-1.79-1.68-2.73-4.46-8.21-3.9-9.7,5.28-12.87Zm15.83,37.08c-3.89,2.56-7.86,6-13.22,3.96-1.86-.71-6.45-9.45-6.28-11.63,.04-.52,.12-1.1,.35-1.54,1.33-2.47,11.7-7.34,14.19-6.46,1.13,.4,2.28,1.43,2.88,2.49,.93,1.6,1.38,3.48,2.03,5.23,.99,2.65,3.33,5.78,.05,7.95Zm2.13-34.11c-.97-2.51-4.71-4.79-1.56-7.71,3.37-3.11,7.77-5.62,12.3-4.03,2.49,.87,4.04,4.42,6.03,6.76,1.64,6.72,1.25,7.61-4.81,10.14-7.17,3-7.89,2.72-11.63-4.43-.13-.24-.23-.49-.33-.73Zm21.86,24.35c-1.89,1.41-4.04,2.58-6.23,3.5-7.11,3.01-7.67,2.72-10.38-4.53-2.84-7.57-2.6-8.08,5.11-10.94,.26-.09,.51-.19,.76-.28,7.29-2.58,12.69,1.22,12.47,8.91-.03,1.16-.81,2.65-1.73,3.34Z"/>
      <path class="cls-2" d="M107.63,26.58c-.78-1.68-1.54-3.39-2.05-5.16-1.9-6.64-2.96-7.41-9.63-6.24-1.86,.31-3.69,.85-5.46,1.49-9.61,3.53-19.2,7.11-28.81,10.68-7.84,2.92-15.74,5.64-23.48,8.79-6.73,2.73-13.34,5.8-19.88,8.98-4.54,2.21-5.25,4.62-3.23,9.18,1.3,2.96,2.71,5.87,4.12,8.76,1.93,3.97,3.16,4.39,6.91,2.73,12.08-5.32,24.06-10.82,36.26-15.83,13.98-5.73,28.14-10.99,42.21-16.48,5.1-1.98,5.16-2.25,3.04-6.9Zm-7.14,4.79c-10.23,4.14-20.52,8.09-30.77,12.2-11.72,4.71-23.41,9.51-35.1,14.27,.01,.03,.02,.05,.02,.08-1.49,.63-2.95,1.3-4.46,1.87-2.41,.91-4.84,1.75-7.27,2.63-1.47-2.84-3.05-5.64-4.31-8.57-.27-.64,.39-2.18,1.06-2.63,1.99-1.34,4.12-2.59,6.35-3.44,23.17-8.74,46.35-17.42,69.57-25.99,1.57-.58,4.34-.99,5.04-.17,1.66,1.92,2.68,4.57,3.34,7.09,.15,.56-2.1,2.11-3.47,2.66Z"/>
      <path class="cls-2" d="M95.25,159.24c-3.19-10.51-3.24-10.54-15.8-5.32-3.59,1.57-9.23,4-14.83,6.5-3.65,1.63-4.37,3.13-3.21,6.91,.47,1.53,1.35,2.92,1.86,4.44,1.08,3.17,3.5,3.89,6.38,3.42,2.07-.35,4.17-.96,6.13-1.75,5.45-2.2,10.86-4.49,16.25-6.86,4.59-2.02,4.71-2.41,3.22-7.34Zm-5.23,4.49c-3.2,1.32-6.5,2.44-9.74,3.65l.07,.23c-3,1.11-5.97,2.32-9.01,3.31-3.8,1.25-4.47,.75-5.96-2.83-1.23-2.92-.27-4.26,2.51-5.4,6.19-2.49,12.24-5.3,18.32-8.03,2.6-1.16,4.09-.18,4.71,2.37,.57,2.31,3.11,5.04-.9,6.7Z"/>
      <path class="cls-2" d="M104.65,96.37c-.34-1.01-.73-2-1.14-2.98-2.37-5.63-3.17-6.07-9.02-4.95-10.59,2.03-12.04,5.03-7.02,14.5,3.35,6.33,3.9,6.53,10.89,3.78,.32-.13,1.04-.44,1.78-.76,6.19-2.71,6.55-3.47,4.51-9.59Zm-8.58,7.69c-3.92,1.41-4.27,1.17-6.3-4.44-1.76-4.89-1.63-5.3,2.24-6.6,6.58-2.21,7.25-1.97,9.08,3.3,1.57,4.49,.83,5.63-5.02,7.74Z"/>
      <path class="cls-2" d="M121.6,64.81c-.94-3.83-2.43-7.63-4.36-11.08-.64-1.14-3.38-1.9-4.94-1.61-3.64,.69-7.24,1.91-10.65,3.38-1.11,.47-2.42,2.51-2.22,3.56,.8,4.17,1.94,8.31,3.41,12.28,.93,2.5,3.11,3.58,5.89,2.4,1.24-.52,2.51-.94,5.06-1.89,.93-.43,3.33-1.15,5.2-2.58,1.32-1,2.91-3.21,2.61-4.46Zm-7.64,3.4c-.73,.33-1.47,.63-2.21,.94-5.28,2.09-5.96,1.78-8-3.83-.46-1.24-.88-2.51-1.14-3.8-.15-.75-.16-1.67,.15-2.34,.9-2.01,10.43-4.71,11.66-3.05,1.66,2.26,2.89,5.07,3.49,7.82,.55,2.55-2.04,3.37-3.95,4.26Z"/>
      <path class="cls-2" d="M120.34,144.07c-.65-1.75-1.1-3.63-2.03-5.23-.6-1.06-1.75-2.09-2.88-2.49-2.49-.88-12.86,3.99-14.19,6.46-.23,.44-.31,1.02-.35,1.54-.17,2.18,4.42,10.92,6.28,11.63,5.36,2.04,9.33-1.4,13.22-3.96,3.28-2.17,.94-5.3-.05-7.95Zm-6.88,7.72c-4.89,1.86-5.47,1.57-7.42-3.71-1.4-3.82-.36-5.26,5.55-7.6,2.92-1.16,4.09-.25,5.84,4.59,1.54,4.25,1.26,4.72-3.97,6.72Z"/>
      <path class="cls-2" d="M130.15,86.62c-2.69-8.62-3.17-8.91-11.81-7.14-8.78,1.81-10.08,4.17-6.91,12.58q3.4,9.05,12.63,5.56c.25-.1,.5-.18,.75-.28,6.89-2.69,7.47-3.86,5.34-10.72Zm-5.7,7.34c-.77,.23-1.51,.55-2.28,.83q-5.56,2.11-7.85-4.03c-2.13-5.71-1.95-6.02,4.11-7.48,1.05-.25,2.1-.5,3.13-.83,2.18-.68,3.66-.04,4.39,2.17,.42,1.29,.84,2.57,1.33,3.82,1.12,2.92,0,4.64-2.83,5.52Z"/>
      <path class="cls-2" d="M94.78,69.85c-3.54-9.27-5.46-10.06-14.09-6.17-2.85,1.29-4.31,2.97-3.42,6.24,.78,2.84,1.22,5.78,2.03,8.62,1.74,6.11,3.25,6.84,9.24,4.74,9.11-3.18,9.69-4.43,6.24-13.43Zm-3.75,8.79c-1.16,.99-2.91,1.31-4.44,1.86-.49,.17-1.15,.37-1.56,.17-3.85-1.82-3.19-5.74-4.09-8.95-.61-2.22-.89-4.17,1.92-5.27,5-1.95,6.62-1.18,8.73,4.59,.46,1.26,1.38,2.56,1.29,3.78-.11,1.34-.84,2.97-1.85,3.82Z"/>
      <path class="cls-2" d="M49.09,89.07c-3.93-7.8-6.72-8.67-14.2-4.39-1.15,.65-2.39,1.29-3.32,2.2-.69,.68-1.56,2.08-1.29,2.67,1.96,4.27,4.11,8.47,6.44,12.55,.31,.55,2.02,.57,3,.4,1.56-.27,3.05-.9,3.53-1.05,8.29-3.31,9.23-5.68,5.84-12.38Zm-6.7,9.26c-4.01,1.49-5.75,.38-7.9-5.02-1.39-3.5-.7-4.46,4.57-6.34,4.25-1.51,5.06-.98,7.07,4.54,1.52,4.24,1.1,5.01-3.74,6.82Z"/>
      <path class="cls-2" d="M89.28,129.24c-2.75-6.95-4.76-7.68-12.6-3.48-5.48,2.95-5.99,4.58-3.19,10.1,.73,1.44,1.39,2.9,2.12,4.33,1.79,3.53,3.57,4.43,6.92,3,2.45-1.04,4.96-2.25,6.92-3.99,1.12-1,1.51-3.18,1.62-4.86,.08-1.22-.83-2.51-1.79-5.1Zm-6.6,9.71c-3.22,1.18-3.98,.61-5.78-4.39-1.27-3.52-.3-5.16,4.14-6.93,2.83-1.14,4.17-.08,5.9,4.64,1.39,3.84,.75,4.84-4.26,6.68Z"/>
      <path class="cls-2" d="M73.79,84.43c-.3-1.3-.91-2.52-1.38-3.79l-.14,.05c-.66-1.76-1.11-3.64-2.04-5.25-.62-1.07-1.8-2.09-2.95-2.53-2.65-1.02-12.4,2.99-13.69,5.44-.37,.7-.9,1.69-.68,2.27,1.69,4.18,2.87,8.83,5.56,12.28,2.65,3.4,6.44-.02,9.71-.65,.53-.1,1.04-.29,1.54-.49,4.18-1.66,5.05-3.15,4.07-7.33Zm-6.9,4.83c-6.22,2.33-7.13,1.94-9.57-4.15-1.98-4.97-1.81-5.39,2.71-7.19,6.22-2.46,7.07-2.1,9.45,4.09,1.96,5.11,1.77,5.62-2.59,7.25Z"/>
      <path class="cls-2" d="M81.19,111.39c-1.39-3.96-2.49-8.24-4.84-11.6-2.19-3.1-5.87-1.19-8.02-.5-8.09,2.87-8.6,3.95-5.7,10.75,.74,1.71,1.44,3.5,2.51,5.02,2.4,3.45,4.07,3.96,8.22,2.33,2.21-.85,4.29-2.12,6.28-3.43,.78-.53,1.77-1.95,1.55-2.57Zm-8.76,2.69c-3.46,1.48-4.27,.91-6.4-4.52-1.84-4.68-1.67-5.27,2.08-6.76,4.88-1.93,6.7-1,8.86,4.53,1.29,3.32,.43,4.62-4.54,6.75Z"/>
      <path class="cls-2" d="M114.39,118.18c-.21-.5-.41-.99-.61-1.49-1.08-2.76-3.13-3.5-5.84-2.78-1.3,.35-2.56,.79-3.38,1.03-9.18,3.17-9.74,4.66-5.28,12.87,.51,.94,1.02,1.9,1.68,2.73,1.81,2.32,3.79,3.15,6.97,2.08,9.82-3.31,10.63-4.84,6.46-14.44Zm-5.23,10.38c-4.28,1.57-6.04,.5-7.9-4.77-1.03-2.88-.24-4.02,3.82-5.51,4.69-1.72,5.24-1.47,7,3.22,1.82,4.88,1.6,5.39-2.92,7.06Z"/>
      <path class="cls-2" d="M56.51,114.88c-.6-1.19-1.1-2.44-1.77-3.59-2.28-4.03-3.34-4.42-7.71-2.75-1.49,.57-2.97,1.25-4.35,2.05-2.62,1.55-3.63,3.84-2.59,6.8,.62,1.76,1.26,3.54,2.14,5.17,2.98,5.55,4.16,5.92,10.16,3.46,7.37-3.02,7.74-4.02,4.12-11.14Zm-8.01,8.64c-1.57-.41-2.76-2.93-3.73-4.71-2.08-3.85,.24-7.8,4.54-7.16,1.76,.26,3.15,2.94,3.68,3.47,2.18,5.41-.56,9.46-4.49,8.4Z"/>
      <path class="cls-2" d="M133.64,130.01c-.25,.09-.5,.19-.76,.28-7.71,2.86-7.95,3.37-5.11,10.94,2.71,7.25,3.27,7.54,10.38,4.53,2.19-.92,4.34-2.09,6.23-3.5,.92-.69,1.7-2.18,1.73-3.34,.22-7.69-5.18-11.49-12.47-8.91Zm2.96,12.92c-3.63,1.37-4.3,1.04-5.8-2.9-1.73-4.52-1.5-4.96,3.5-6.76,4.89-1.76,6.08-1.37,7.48,2.49,1.29,3.54,.14,5.15-5.18,7.17Z"/>
      <path class="cls-2" d="M139.29,112.93c-1.99-2.34-3.54-5.89-6.03-6.76-4.53-1.59-8.93,.92-12.3,4.03-3.15,2.92,.59,5.2,1.56,7.71,.1,.24,.2,.49,.33,.73,3.74,7.15,4.46,7.43,11.63,4.43,6.06-2.53,6.45-3.42,4.81-10.14Zm-7.15,7.54c-4.25,1.61-4.55,1.45-6.57-3.82-1.74-4.48-1.46-5.29,2.33-6.66,4.35-1.58,5.73-.83,7.56,4.14,1.45,3.97,1.09,4.66-3.32,6.34Z"/>
      <path class="cls-2" d="M67.69,141.28c-3.46-8.68-6.22-9.64-13.49-4.7-3.49,2.39-3.94,3.29-2.46,7.27,.92,2.47,2.39,4.74,3.58,7.1,1.06,2.14,2.77,2.23,4.71,1.53,1.25-.45,2.5-.93,3.7-1.48,5.96-2.7,6.35-3.7,3.96-9.72Zm-6.32,7.15c-2.71,.93-4.85-.83-6.33-5.23-.81-2.37,.27-3.74,3.76-4.86,3.18-1.03,4.3-.17,5.9,4.43,1.14,3.25,.5,4.33-3.33,5.66Z"/>
    </g>
  </g>
</svg>