<?xml version="1.0" encoding="UTF-8"?>
<svg id="Capa_2" data-name="Capa 2" xmlns="http://www.w3.org/2000/svg" viewBox="0 0 112.88 115.62">
  <defs>
    <style>
      .cls-1 {
        fill: #ffd133;
      }
    </style>
  </defs>
  <g id="Layer_1" data-name="Layer 1">
    <g>
      <path d="M70.6,28.38c-11.15-3.13-22.76-.74-31.06,6.4-3.46,2.97-6.12,7.71-8.14,14.48-6.14,20.67,5.55,31.62,19.09,44.3l.66,.63c.48,.45,1.25,.43,1.7-.06,.46-.49,.43-1.25-.06-1.7l-.66-.61c-12.95-12.14-24.14-22.62-18.42-41.84,1.88-6.32,4.3-10.68,7.4-13.35,7.68-6.61,18.46-8.82,28.83-5.91,9.92,2.78,17.6,9.88,20.55,18.99,3.08,9.52-1.01,16.67-5.33,24.23-3.84,6.73-7.81,13.68-6.32,22.33,.1,.59,.61,1,1.19,1,.07,0,.14-.01,.21-.02,.66-.11,1.1-.74,.98-1.39-1.35-7.79,2.24-14.08,6.04-20.71,4.4-7.69,8.94-15.64,5.52-26.18-3.19-9.88-11.49-17.57-22.19-20.56Z"/>
      <path d="M77.07,98.91c.66-.11,1.1-.74,.99-1.39-.12-.66-.74-1.1-1.4-.99-3.58,.61-18.71,1.78-22.54,1.67,0-.21-.05-.44-.16-.68-.29-.6-1.01-.85-1.61-.56-.53,.25-.79,.84-.65,1.39,0,0,0,.01,0,.02-.05,.3-.16,.91,.26,1.48,.46,.61,1.19,.69,1.43,.73,.32,.04,.8,.05,1.41,.05,5.07,0,19-1.15,22.29-1.72Z"/>
      <path d="M77.22,100.09c-2.09,.24-4.16,.66-6.17,1.08-3.84,.79-7.47,1.53-11.25,1.14-.66-.08-1.25,.41-1.32,1.08-.07,.66,.41,1.26,1.08,1.33,.79,.09,1.58,.11,2.35,.11,3.31,0,6.51-.65,9.62-1.29,1.96-.4,3.99-.81,5.97-1.05,.66-.08,1.14-.68,1.06-1.34-.08-.65-.65-1.14-1.34-1.05Z"/>
      <path d="M74.34,105.61c-1.81,.31-3.76,.53-5.84,.75-4.99,.55-10.15,1.11-14.3,3.14-.54,.26-.86,.94-.68,1.5,.22,.66,.72,.83,1.21,.83,.28,0,.55-.05,.77-.1,.16-.02,.32-.05,.42-.06,.43-.05,.78-.33,.96-.69,3.51-1.3,7.76-1.77,11.88-2.22,2.12-.24,4.11-.45,5.99-.78,.66-.11,1.1-.74,.98-1.4-.11-.65-.74-1.09-1.4-.98Z"/>
      <path d="M73.7,111.54c-1.2,.14-2.22,.55-3.2,.96-.71,.29-1.38,.56-2.09,.73-.65,.14-1.06,.79-.92,1.44,.12,.56,.63,.95,1.18,.95,.09,0,.18-.01,.26-.04,.91-.2,1.72-.53,2.49-.85,.86-.36,1.68-.7,2.54-.79,.66-.09,1.15-.68,1.06-1.34-.08-.66-.69-1.14-1.33-1.06Z"/>
      <path class="cls-1" d="M84.86,53.64c-1.21-2.02-2.63-2.33-3.58-2.25-2.43,.22-4.16,3.19-4.81,4.9-1.55,4.17-2.63,8.53-3.48,12.91h-.03c-1.13-.06-1.95-.71-2.52-1.99-.42-.9-1.39-4.68-1.59-5.57-1.52-6.73-2.42-7.83-3.72-7.75-1.78,.08-2.08,2.53-2.74,7.9-.24,1.89-.59,4.81-1,6.24-1.14-2.08-2.6-8.38-3.43-11.96-1.11-4.75-1.58-6.63-2.13-7.39-.31-.4-.84-.59-1.33-.44q-.81,.25-1.23,5.02c-.11,1.24-.23,2.64-.35,3.93-.07,.7-.09,1.77-.12,3.11-.04,1.71-.1,4.38-.35,7.04-.28-.53-.57-1.07-.85-1.58-.68-1.25-1.38-2.56-1.95-3.85-3.62-8.19-5.84-8.98-7.19-8.89-.84,.06-1.96,.59-2.54,2.71-1.29,4.77,.85,17.14,7.16,21.5,.02,.01,2.57,1.68,3.78,1,1-.55,1.77-1.55,2.36-2.86,1.87,5.09,2.69,8.17,3.99,13.05l.87,3.26c.15,.54,.63,.91,1.17,.91,.1,0,.2-.03,.31-.05,.64-.18,1.03-.84,.85-1.48l-.87-3.26c-1.55-5.85-2.43-9.14-5.2-16.31,.6-3.21,.78-7.17,.87-11.14,.04-1.24,.06-2.31,.12-2.93,.04-.48,.08-.97,.13-1.44,.05,.21,.1,.42,.14,.62,2.39,10.32,3.75,14.81,6.28,14.36,1.77-.32,2.19-3.11,2.91-8.88,.15-1.28,.36-2.95,.58-4.22,.29,.9,.66,2.26,1.12,4.3,.1,.43,1.17,4.78,1.75,6.05,1.12,2.5,2.92,3.24,4.31,3.39-.46,2.56-.86,5.13-1.25,7.67-.57,3.65-1.15,7.42-1.89,11.04-.13,.65,.29,1.29,.95,1.41,.64,.14,1.29-.29,1.42-.94,.74-3.67,1.34-7.46,1.9-11.13,.43-2.74,.86-5.52,1.37-8.29,3.35-.93,6.73-4.12,8.7-7.37,2.34-3.85,2.75-7.62,1.11-10.35Zm-34.9,22.3c-.47-.16-1.28-.55-1.5-.69-4.59-3.17-6.58-11.68-6.5-16.44,.05-2.47,.6-3.31,.67-3.38,.02,0,1.59,.2,4.81,7.46,.61,1.38,1.34,2.72,2.03,4.01,.88,1.63,1.72,3.17,2.36,4.81-.42,1.94-1.01,3.52-1.87,4.23Zm31.73-13.2c-1.6,2.64-3.96,4.82-6.11,5.84,.79-3.91,1.78-7.77,3.16-11.45,.65-1.73,1.91-3.26,2.76-3.33h.05c.48,0,.94,.57,1.24,1.08,1.16,1.94,.76,4.8-1.1,7.86Z"/>
      <path class="cls-1" d="M59.03,19.53c.05,.67-.45,1.24-1.12,1.28-.03,0-.06,0-.08,0-.64,0-1.16-.49-1.21-1.12-.68-9.97-.98-17-.22-18.94,.25-.61,.95-.92,1.57-.68s.92,.95,.68,1.57c-.72,1.83,.11,13.91,.38,17.88Z"/>
      <path class="cls-1" d="M24.8,34.8c-.23,.35-.62,.55-1.02,.55-.22,0-.45-.06-.65-.19-1.46-.94-2.8-2.14-4.11-3.29-2.3-2.04-4.48-3.98-7.1-4.47-.65-.13-1.08-.77-.95-1.42,.12-.65,.75-1.09,1.41-.96,3.26,.62,5.8,2.87,8.25,5.05,1.29,1.13,2.51,2.22,3.81,3.05,.55,.36,.72,1.12,.36,1.68Z"/>
      <path class="cls-1" d="M15.36,71.49c-.04,.67-.62,1.17-1.27,1.14-1.43-.06-2.47-.12-3.26-.16-2.49-.15-2.49-.14-4.77,.04-1.02,.09-2.49,.2-4.77,.36h-.09c-.63,0-1.16-.49-1.2-1.12-.05-.67,.45-1.24,1.12-1.29,2.28-.15,3.72-.27,4.74-.36,2.43-.2,2.48-.2,5.11-.04,.79,.04,1.82,.1,3.24,.17,.67,.03,1.18,.6,1.15,1.26Z"/>
      <path class="cls-1" d="M104.36,16.3c-2.12,2.43-3.35,3.86-4.16,4.79q-1.58,1.82-3.49,3.9l-1.78,1.93c-.23,.26-.55,.39-.89,.39-.28,0-.58-.1-.81-.31-.49-.45-.52-1.22-.07-1.71l1.77-1.92q1.89-2.07,3.45-3.86c.81-.94,2.03-2.36,4.16-4.8,.44-.5,1.2-.55,1.71-.11,.5,.44,.55,1.2,.11,1.7Z"/>
      <path class="cls-1" d="M112.74,64.74c-.21,.42-.63,.66-1.07,.66-.19,0-.37-.04-.55-.13l-.42-.22q-.64-.33-1.1-.46c-.38-.11-.98-.27-2.14-.65-.64-.2-.99-.87-.79-1.51,.21-.64,.88-.99,1.51-.79,1.13,.36,1.71,.52,2.07,.62,.68,.19,.76,.23,1.55,.64l.42,.22c.59,.3,.83,1.02,.52,1.62Z"/>
    </g>
  </g>
</svg>