<?xml version="1.0" encoding="UTF-8"?>
<svg id="Capa_2" data-name="Capa 2" xmlns="http://www.w3.org/2000/svg" viewBox="0 0 119.31 131.25">
  <defs>
    <style>
      .cls-1 {
        fill: #ffd133;
      }
    </style>
  </defs>
  <g id="Layer_1" data-name="Layer 1">
    <g>
      <path d="M92.25,88.45c-4.02,7.02-7.81,13.65-6.38,21.9,.12,.69-.35,1.35-1.04,1.47-.07,.02-.14,.02-.22,.02-.46,0-.88-.25-1.11-.64-.07-.13-.12-.27-.15-.42-1.58-9.14,2.62-16.49,6.68-23.6,4.57-7.99,8.89-15.55,5.64-25.6-3.13-9.63-11.24-17.13-21.73-20.07-10.96-3.07-22.35-.74-30.47,6.24-3.27,2.82-5.83,7.43-7.82,14.1-6.04,20.33,5.78,31.41,19.47,44.22l.69,.66c4.27,4.47,4.39,5.61,3.94,6.09-.18,.19-.46,.27-.6,.42-.11,.12-.43-.05-.86-.38-1.37-1.1-3.83-3.9-4.22-4.27l-.7-.64c-14.3-13.41-26.66-24.98-20.17-46.82,2.14-7.16,4.95-12.17,8.61-15.31,8.76-7.54,21.04-10.07,32.82-6.77,11.31,3.17,20.08,11.3,23.46,21.74,3.61,11.13-1.2,19.54-5.84,27.66Z"/>
      <path d="M84.83,111.82c.11,.69-2.67,1.67-3.37,1.79-3.47,.59-18.19,1.81-23.55,1.81-.64,0-1.15-.02-1.49-.06-.26-.03-1.03-.12-1.51-.76-.44-.6-.33-1.25-.27-1.56v-.03c-.14-.59,.13-1.21,.69-1.47,.63-.31,1.4-.04,1.71,.6,.11,.25,.16,.49,.17,.71,.3,.01,.66,.01,1.08,.01,.43-.01,.92-.02,1.46-.04,6.02-.2,18.05-1.18,21.28-1.73,.39-.07,1.54-.05,2.47,.11,.7,.12,1.28,.32,1.33,.62Z"/>
      <path d="M81.62,114.84c-2.2,.26-4.4,.71-6.52,1.15-4.06,.83-7.9,1.62-11.89,1.2-.7-.08-1.33,.44-1.4,1.14-.08,.7,.44,1.33,1.14,1.4,.84,.09,1.67,.13,2.49,.13,3.5,0,6.88-.69,10.17-1.37,2.07-.43,4.21-.86,6.32-1.11,.69-.08,1.2-.71,1.12-1.42-.08-.69-.69-1.2-1.42-1.12Z"/>
      <path d="M78.58,120.68c-1.91,.33-3.98,.56-6.17,.8-5.28,.58-10.73,1.17-15.12,3.33-.58,.28-.91,.98-.71,1.59,.23,.7,.76,.87,1.28,.87,.29,0,.58-.06,.81-.1,.18-.03,.34-.06,.45-.08,.46-.05,.83-.34,1.01-.73,3.71-1.38,8.2-1.87,12.56-2.34,2.23-.25,4.34-.48,6.32-.82,.7-.12,1.17-.78,1.05-1.47-.13-.7-.78-1.16-1.48-1.05Z"/>
      <path d="M77.9,126.94c-1.26,.14-2.34,.59-3.38,1.02-.75,.31-1.46,.6-2.2,.76-.69,.16-1.12,.83-.97,1.52,.13,.6,.66,1,1.25,1,.09,0,.18,0,.28-.03,.96-.21,1.81-.56,2.63-.9,.92-.38,1.78-.73,2.69-.84,.7-.08,1.2-.71,1.12-1.42-.08-.7-.73-1.2-1.41-1.12Z"/>
      <path d="M89.7,65.76c-1.28-2.14-2.77-2.47-3.78-2.38-2.58,.23-4.4,3.36-5.08,5.18-1.64,4.41-2.78,9.02-3.68,13.65h-.04c-1.19-.08-2.05-.76-2.66-2.1-.44-.96-1.47-4.96-1.68-5.9-1.61-7.1-2.56-8.27-3.93-8.19-1.88,.09-2.2,2.68-2.9,8.34-.25,2.01-.62,5.1-1.06,6.6-1.21-2.2-2.75-8.85-3.62-12.64-1.16-5.01-1.66-6.99-2.26-7.8-.32-.43-.87-.62-1.39-.47q-.85,.26-1.3,5.3c-.12,1.32-.25,2.8-.37,4.16-.07,.75-.1,1.86-.14,3.28-.04,1.82-.11,4.64-.37,7.45-.29-.57-.59-1.12-.89-1.67-.72-1.33-1.45-2.7-2.06-4.07-3.83-8.65-6.18-9.49-7.6-9.39-.89,.06-2.08,.61-2.68,2.85-1.37,5.05,.89,18.12,7.56,22.74,.03,.01,2.73,1.76,3.99,1.06,1.06-.6,1.88-1.65,2.49-3.04,1.99,5.39,2.85,8.64,4.22,13.8l.93,3.45c.15,.57,.66,.94,1.23,.94,.11,0,.22-.01,.34-.04,.68-.18,1.07-.88,.89-1.57l-.91-3.44c-1.65-6.17-2.58-9.66-5.51-17.23,.65-3.4,.83-7.59,.93-11.78,.03-1.31,.06-2.44,.12-3.11,.05-.49,.09-1,.14-1.51,.05,.22,.1,.45,.15,.67,2.53,10.9,3.97,15.63,6.64,15.16,1.87-.33,2.32-3.28,3.06-9.38,.17-1.36,.39-3.12,.62-4.47,.31,.96,.7,2.4,1.19,4.55,.1,.46,1.23,5.06,1.84,6.4,1.19,2.63,3.08,3.42,4.56,3.57-.48,2.72-.91,5.44-1.32,8.13-.6,3.84-1.22,7.82-2,11.65-.14,.69,.3,1.36,1,1.5,.69,.14,1.36-.3,1.5-.99,.8-3.89,1.42-7.9,2.02-11.77,.45-2.91,.91-5.84,1.44-8.77,3.54-.97,7.12-4.35,9.2-7.77,2.48-4.08,2.9-8.07,1.17-10.95Zm-36.89,23.56c-.49-.17-1.35-.57-1.58-.73-4.85-3.34-6.96-12.34-6.87-17.37,.05-2.6,.63-3.49,.71-3.57,.01,0,1.68,.2,5.08,7.88,.65,1.46,1.41,2.88,2.15,4.25,.93,1.72,1.81,3.34,2.49,5.07-.44,2.06-1.07,3.73-1.98,4.47Zm33.54-13.94c-1.69,2.79-4.18,5.09-6.45,6.17,.84-4.13,1.88-8.21,3.33-12.1,.69-1.83,2.02-3.44,2.92-3.53h.05c.52,0,.99,.62,1.31,1.15,1.23,2.05,.8,5.07-1.16,8.31Z"/>
      <path class="cls-1" d="M95.67,61.58c-3.13-9.63-11.24-17.13-21.73-20.07-10.96-3.07-22.35-.74-30.47,6.24-3.27,2.82-5.83,7.43-7.82,14.1-6.04,20.33,5.78,31.41,19.47,44.22l.69,.66c4.27,4.47,4.39,5.61,3.94,6.09,6.02-.2,18.05-1.18,21.28-1.73,.39-.07,1.54-.05,2.47,.11-.07-.13-.12-.27-.15-.42-1.58-9.14,2.62-16.49,6.68-23.6,4.57-7.99,8.89-15.55,5.64-25.6Zm-16.34,22.9c-.53,2.93-.99,5.86-1.44,8.77-.6,3.87-1.22,7.88-2.02,11.77-.14,.69-.81,1.13-1.5,.99-.7-.14-1.14-.81-1-1.5,.78-3.83,1.4-7.81,2-11.65,.41-2.69,.84-5.41,1.32-8.13-1.48-.15-3.37-.94-4.56-3.57-.61-1.34-1.74-5.94-1.84-6.4-.49-2.15-.88-3.59-1.19-4.55-.23,1.35-.45,3.11-.62,4.47-.74,6.1-1.19,9.05-3.06,9.38-2.67,.47-4.11-4.26-6.64-15.16-.05-.22-.1-.45-.15-.67-.05,.51-.09,1.02-.14,1.51-.06,.67-.09,1.8-.12,3.11-.1,4.19-.28,8.38-.93,11.78,2.93,7.57,3.86,11.06,5.51,17.23l.91,3.44c.18,.69-.21,1.39-.89,1.57-.12,.03-.23,.04-.34,.04-.57,0-1.08-.37-1.23-.94l-.93-3.45c-1.37-5.16-2.23-8.41-4.22-13.8-.61,1.39-1.43,2.44-2.49,3.04-1.26,.7-3.96-1.05-3.99-1.06-6.67-4.62-8.93-17.69-7.56-22.74,.6-2.24,1.79-2.79,2.68-2.85,1.42-.1,3.77,.74,7.6,9.39,.61,1.37,1.34,2.74,2.06,4.07,.3,.55,.6,1.1,.89,1.67,.26-2.81,.33-5.63,.37-7.45,.04-1.42,.07-2.53,.14-3.28,.12-1.36,.25-2.84,.37-4.16q.45-5.04,1.3-5.3c.52-.15,1.07,.04,1.39,.47,.6,.81,1.1,2.79,2.26,7.8,.87,3.79,2.41,10.44,3.62,12.64,.44-1.5,.81-4.59,1.06-6.6,.7-5.66,1.02-8.25,2.9-8.34,1.37-.08,2.32,1.09,3.93,8.19,.21,.94,1.24,4.94,1.68,5.9,.61,1.34,1.47,2.02,2.66,2.1h.04c.9-4.63,2.04-9.24,3.68-13.65,.68-1.82,2.5-4.95,5.08-5.18,1.01-.09,2.5,.24,3.78,2.38,1.73,2.88,1.31,6.87-1.17,10.95-2.08,3.42-5.66,6.8-9.2,7.77Z"/>
      <path class="cls-1" d="M54.79,84.85c-.44,2.06-1.07,3.73-1.98,4.47-.49-.17-1.35-.57-1.58-.73-4.85-3.34-6.96-12.34-6.87-17.37,.05-2.6,.63-3.49,.71-3.57,.01,0,1.68,.2,5.08,7.88,.65,1.46,1.41,2.88,2.15,4.25,.93,1.72,1.81,3.34,2.49,5.07Z"/>
      <path class="cls-1" d="M86.35,75.38c-1.69,2.79-4.18,5.09-6.45,6.17,.84-4.13,1.88-8.21,3.33-12.1,.69-1.83,2.02-3.44,2.92-3.53h.05c.52,0,.99,.62,1.31,1.15,1.23,2.05,.8,5.07-1.16,8.31Z"/>
      <path d="M61.12,22.01s.06,0,.09,0c.7-.05,1.23-.66,1.18-1.36-.29-4.2-1.16-16.96-.4-18.9,.26-.66-.06-1.4-.72-1.65-.66-.26-1.4,.07-1.66,.72-.8,2.04-.49,9.48,.23,20.01,.05,.67,.61,1.19,1.27,1.19Z"/>
      <path d="M25.83,44.08c-1.37-.89-2.66-2.03-4.02-3.24-2.59-2.29-5.27-4.67-8.72-5.32-.7-.14-1.36,.33-1.49,1.01-.14,.69,.32,1.36,1.01,1.49,2.76,.53,5.07,2.57,7.5,4.73,1.38,1.22,2.81,2.49,4.34,3.47,.21,.14,.46,.21,.69,.21,.42,0,.83-.21,1.08-.58,.38-.59,.21-1.39-.39-1.77Z"/>
      <path d="M15.03,83.29c-1.5-.08-2.59-.14-3.43-.19-2.78-.16-2.83-.16-5.4,.06-1.07,.09-2.6,.21-5.01,.37-.7,.05-1.23,.66-1.19,1.37,.05,.68,.61,1.19,1.28,1.19h.09c2.42-.17,3.96-.29,5.04-.38q2.42-.19,5.05-.05c.84,.05,1.94,.11,3.45,.19,.68,.02,1.3-.51,1.33-1.21,.04-.7-.51-1.31-1.21-1.33Z"/>
      <path d="M108.39,24.62c-2.25,2.58-3.54,4.08-4.4,5.07q-1.65,1.9-3.64,4.08l-1.87,2.03c-.48,.53-.44,1.33,.08,1.8,.25,.23,.56,.34,.87,.34,.34,0,.69-.14,.93-.41l1.87-2.04q2.03-2.2,3.69-4.13c.86-.99,2.15-2.49,4.4-5.06,.46-.53,.41-1.34-.12-1.8-.53-.46-1.34-.41-1.8,.13Z"/>
      <path d="M118.62,75.77l-.44-.23c-.84-.43-.92-.47-1.64-.68-.38-.11-1-.28-2.18-.65-.67-.21-1.39,.16-1.6,.83-.21,.66,.16,1.39,.83,1.6,1.23,.39,1.87,.56,2.26,.68q.49,.14,1.16,.49l.44,.23c.19,.1,.38,.14,.58,.14,.47,0,.91-.26,1.15-.7,.31-.63,.07-1.4-.56-1.72Z"/>
    </g>
  </g>
</svg>