<?xml version="1.0" encoding="UTF-8"?>
<svg id="Capa_2" data-name="Capa 2" xmlns="http://www.w3.org/2000/svg" viewBox="0 0 50.89 102.4">
  <defs>
    <style>
      .cls-1 {
        fill: #ffd133;
      }
    </style>
  </defs>
  <g id="Layer_1" data-name="Layer 1">
    <path d="M43.79,1.05c-4.23-2.07-11.09-.88-15.03,1.78-6.62,4.45-10.22,19.31-12.61,26.03C11.94,40.72,.75,72.6,0,75.15c.69,9.07,1.07,18.16,1.49,27.25,.87,.15,9.48-5.92,12.8-8.36,2.06-1.52,4.23-3.01,6.4-4.5,1.36-1.1,2.72-2.21,4.07-3.33,.56-1.46,21.92-59.5,23.55-62.96,3.41-8.38,4.79-17.68-4.52-22.2ZM6.13,66.06c2.17-6.6,4.19-13.24,6.36-19.84,2.85-8.69,6.85-17.45,9.57-26.39,1.49-.27,3-.36,4.55-.22,1.14,.05,2.25,.26,3.34,.59-4.92,10.18-9.13,20.94-13.21,31.49-2.25,5.84-4.34,11.73-6.44,17.63-.76,2.15-1.71,4.48-2.31,6.82-.52-1.05-1.39-1.87-2.88-2.3-.45-.14-.91-.09-1.35,.07,.85-2.62,1.54-5.31,2.37-7.85ZM31.87,20.88c.95,.41,1.88,.87,2.77,1.38,1.5,.84,2.75,1.91,3.86,3.12-.33,.25-.59,.59-.66,.97-1,5.07-3.98,10.84-6.08,15.58-2.51,5.62-4.7,11.4-6.95,17.14-2.08,5.29-3.33,10.82-5.42,16.08-.32,.83-.77,1.74-1.17,2.68-.5-1.43-1.46-2.59-3.07-2.84-2.37-.39-4.14,.37-5.61,1.68,3.62-7.99,6.3-16.56,9.64-24.64,4.3-10.36,8.25-20.85,12.69-31.15Zm-9.88,64.18c-.64,.71-1.54,1.23-2.44,1.66-1.93,1.44-3.8,2.93-5.66,4.44-.71-1.09-3-1.47-4.06-1.76-2.33-.65-4.62-.51-6.97-.75-.08-.82-.17-1.64-.26-2.48-.21-2.2-.37-4.49-.56-6.79-.16-.9-.2-1.81,.26-2.51,.84-1.28,2.67-1.17,3.81-.35,.99,.71,1.32,1.91,1.3,3.24,1.59-2.17,4.41-3.71,6.8-2.82,2.45,.9,3.25,3.05,3.22,5.31,.23-.21,.45-.42,.68-.6,.89-.67,2.51-1.48,3.42-.34,.77,.96,1.41,2.72,.46,3.75Zm11.25-30.47c-3.29,9.03-7.22,18.28-9.92,27.64,.05-1.81-.4-3.52-1.99-3.75-1.08-.16-2.01,.14-2.77,.72,1.2-2.63,3.23-5.43,4.11-7.56,2.24-5.44,4.08-11.04,6.39-16.48,2.43-5.75,4.94-11.48,7.18-17.31,1.28-3.34,3.04-6.8,3.98-10.29,.77,1.11,1.45,2.3,2.06,3.54-3.21,7.73-6.16,15.57-9.04,23.49Zm10.67-27.33c-2.95-4.42-7.56-7.79-12.65-9.31-1.48-.42-5.19-.55-8.64-.02,.3-1.07,.56-2.13,.82-3.19,4.76-.23,9.38,.72,13.94,3.1,3.51,1.85,5.56,4.57,7.36,7.54-.28,.63-.56,1.25-.83,1.88Zm3-6.73c-.22,.51-.46,.98-.67,1.48-5.45-6.41-13.98-9.12-22.61-8.09,.06-.26,.11-.51,.16-.76,.12-.27,.22-.52,.33-.78,.64-1.31,1.34-2.6,2.2-3.84,4.22-6.05,13.92-7.36,19.19-2.05,3.57,3.62,3.02,8.83,1.4,14.04Z"/>
    <path class="cls-1" d="M42.28,31.1c-3.21,7.73-6.16,15.57-9.04,23.49-3.29,9.03-7.22,18.28-9.92,27.64,.05-1.81-.4-3.52-1.99-3.75-1.08-.16-2.01,.14-2.77,.72,1.2-2.63,3.23-5.43,4.11-7.56,2.24-5.44,4.08-11.04,6.39-16.48,2.43-5.75,4.94-11.48,7.18-17.31,1.28-3.34,3.04-6.8,3.98-10.29,.77,1.11,1.45,2.3,2.06,3.54Z"/>
    <path class="cls-1" d="M38.5,25.38c-.33,.25-.59,.59-.66,.97-1,5.07-3.98,10.84-6.08,15.58-2.51,5.62-4.7,11.4-6.95,17.14-2.08,5.29-3.33,10.82-5.42,16.08-.32,.83-.77,1.74-1.17,2.68-.5-1.43-1.46-2.59-3.07-2.84-2.37-.39-4.14,.37-5.61,1.68,3.62-7.99,6.3-16.56,9.64-24.64,4.3-10.36,8.25-20.85,12.69-31.15,.95,.41,1.88,.87,2.77,1.38,1.5,.84,2.75,1.91,3.86,3.12Z"/>
    <path class="cls-1" d="M29.95,20.2c-4.92,10.18-9.13,20.94-13.21,31.49-2.25,5.84-4.34,11.73-6.44,17.63-.76,2.15-1.71,4.48-2.31,6.82-.52-1.05-1.39-1.87-2.88-2.3-.45-.14-.91-.09-1.35,.07,.85-2.62,1.54-5.31,2.37-7.85,2.17-6.6,4.19-13.24,6.36-19.84,2.85-8.69,6.85-17.45,9.57-26.39,1.49-.27,3-.36,4.55-.22,1.14,.05,2.25,.26,3.34,.59Z"/>
  </g>
</svg>