<?xml version="1.0" encoding="UTF-8"?>
<svg id="Capa_2" data-name="Capa 2" xmlns="http://www.w3.org/2000/svg" viewBox="0 0 168.32 142">
  <defs>
    <style>
      .cls-1 {
        fill: #fff;
      }

      .cls-2 {
        fill: #4d4d4d;
      }

      .cls-3 {
        fill: #ffd133;
      }
    </style>
  </defs>
  <g id="Capa_2-2" data-name="Capa 2">
    <g id="Layer_1" data-name="Layer 1">
      <path class="cls-2" d="M161.5,99.92c-.15-4.25,1.18-9.17,4.47-11.77-3.35-5.14-7.02-10.09-10.33-15.23-6.2-9.65-12.21-19.4-18.4-29.06-5.77-9-11.13-18.37-17.39-27.04-4.03-5.57-8.24-11.02-11.9-16.82-4.13,.47-10.51,2.73-12.94,3.15-10.07,1.71-19.96,3.68-29.92,5.98-9.74,2.24-19.62,3.83-29.39,5.98-.1-.04-.2-.05-.33-.04-5.81,.57-12.83,1.95-18.38,3.88-3.25,1.12-6.97,2.79-9.26,5.55-3.15,2.15-5.5,5.56-6.79,9.38-3.99,11.77,5.64,21.79,10.79,31.31,7.05,13.08,14.64,26.05,22.54,38.61,7.4,11.79,15.41,25.22,24.92,35.38,.27,.29,.57,.34,.86,.26,2.1,1.97,5.08,2.76,9.22,2.52,11.52-.67,22.6-4.24,33.81-6.71,.02-.01,.06-.01,.09-.02,8.73-2.37,17.41-4.83,25.98-7.81,13.06-4.54,26.11-9.08,39.17-13.59-3.66-3.94-6.62-8.5-6.82-13.91ZM14.32,23.18c2.43-.01,5.15-1.07,7.43-1.79,9.92-3.05,20.69-4.33,30.88-6.23,9.07-1.69,17.96-4.32,27.03-5.98,8.98-1.63,18.11-2.64,26.97-4.82,.18-.05,.36-.03,.54-.04,6.82,15.48,17.96,29.75,27.29,43.76,8.9,13.35,17.02,27.34,26.17,40.52-11.1,2.38-22.04,6.03-33.14,8.39-15.43,3.28-30.74,6.99-45.83,11.58-3.2,.97-6.86,1.74-10.4,2.82-10.01-16.32-19.84-32.67-29.51-49.22-5.78-9.9-11.98-19.49-17.95-29.28-2.48-4.06-4.47-10.31-9.92-9.47,.16-.07,.29-.16,.44-.24ZM54.12,126.07c-3.79-5.52-38.16-64.71-44.17-74.11-6.19-9.66-7.74-22.56,3.72-28.43,0,.04,9.4,15.72,11.91,19.89,5.3,8.78,10.59,17.57,15.99,26.29,8.84,14.28,17.59,28.58,26.6,42.76-3.87,1.49-7.32,3.61-9.46,7.11-3.4,5.59-.42,12.9,5.02,15.38,.6,.7,1.36,1.23,2.23,1.59-2.05-.2-9.9-7.64-11.84-10.48Zm72.1-4.82c-8.55,2.56-17.22,4.78-25.83,7.15-6.74,1.84-29.86,9.81-36.67,3.94-.34-.41-.69-.82-1.04-1.24-.04-.05-.07-.1-.1-.15-.02-.02-.04-.02-.05-.03-.09-.09-.17-.19-.26-.29-2.4-3.82-1.57-10.2,2.71-12.58,3.39-1.89,7.65-2.56,11.31-3.79,11.68-3.9,23.28-7.57,35.24-10.52,10.09-2.51,20.33-4.35,30.44-6.81,5.31-1.29,11.94-2.33,17.75-4.31-2.36,5.46-.63,13.11,3.21,18.16-12.22,2.37-24.85,6.9-36.71,10.47Z"/>
      <path class="cls-1" d="M162.93,110.78c-12.22,2.37-24.85,6.9-36.71,10.47-8.55,2.56-17.22,4.78-25.83,7.15-6.74,1.84-29.86,9.81-36.67,3.94-.34-.41-.69-.82-1.04-1.24-.04-.05-.07-.1-.1-.15-.02-.02-.04-.02-.05-.03-.09-.09-.17-.19-.26-.29-2.4-3.82-1.57-10.2,2.71-12.58,3.39-1.89,7.65-2.56,11.31-3.79,11.68-3.9,23.28-7.57,35.24-10.52,10.09-2.51,20.33-4.35,30.44-6.81,5.31-1.29,11.94-2.33,17.75-4.31-2.36,5.46-.63,13.11,3.21,18.16Z"/>
      <path class="cls-3" d="M65.96,136.55c-2.05-.2-9.9-7.64-11.84-10.48-3.79-5.52-38.16-64.71-44.17-74.11-6.19-9.66-7.74-22.56,3.72-28.43,0,.04,9.4,15.72,11.91,19.89,5.3,8.78,10.59,17.57,15.99,26.29,8.84,14.28,17.59,28.58,26.6,42.76-3.87,1.49-7.32,3.61-9.46,7.11-3.4,5.59-.42,12.9,5.02,15.38,.6,.7,1.36,1.23,2.23,1.59Z"/>
      <path class="cls-3" d="M160.63,88.6c-11.1,2.38-22.04,6.03-33.14,8.39-15.43,3.28-30.74,6.99-45.83,11.58-3.2,.97-6.86,1.74-10.4,2.82-10.01-16.32-19.84-32.67-29.51-49.22-5.78-9.9-11.98-19.49-17.95-29.28-2.48-4.06-4.47-10.31-9.92-9.47,.16-.07,.29-.16,.44-.24,2.43-.01,5.15-1.07,7.43-1.79,9.92-3.05,20.69-4.33,30.88-6.23,9.07-1.69,17.96-4.32,27.03-5.98,8.98-1.63,18.11-2.64,26.97-4.82,.18-.05,.36-.03,.54-.04,6.82,15.48,17.96,29.75,27.29,43.76,8.9,13.35,17.02,27.34,26.17,40.52Z"/>
    </g>
  </g>
</svg>