<?xml version="1.0" encoding="UTF-8"?>
<svg id="Capa_2" data-name="Capa 2" xmlns="http://www.w3.org/2000/svg" viewBox="0 0 98.54 92.47">
  <defs>
    <style>
      .cls-1 {
        fill: #4d4d4d;
      }

      .cls-2 {
        fill: #ffd133;
      }
    </style>
  </defs>
  <g id="Layer_1" data-name="Layer 1">
    <g>
      <path class="cls-1" d="M82.52,11.68C67.55-1.68,44.7-3.43,27.25,5.65,9.36,14.98-2.45,34.77,.43,55.11c3.31,23.27,30.05,35.29,51.01,35.81,9.82,.27,18.52-2.15,26.92-7.2,8.36-5.02,13.72-12.05,17.36-21.1,6.93-17.25,.56-38.68-13.2-50.94Zm-7.88-1.75c4.72,2.64,8.8,6.47,12.08,10.98-2.69,2.2-5.6,4.17-8.67,5.86-3.92-9.78-10.53-18.1-19.9-23.28,5.77,1.09,11.21,3.49,16.49,6.44Zm-21.48,23.84c-3.29,.1-6.58-.09-9.82-.67-5.66-1.01-11.14-2.22-16.29-4.16,.64-1.48,1.35-2.96,2.16-4.46,4.49-8.3,10.73-16.23,19.13-20.8,2.09,9.97,3.69,20,4.82,30.09Zm-3.65,18.67c-8.65,.3-17.4,.51-26.1,.08-.05-.62-.09-1.25-.12-1.88-.24-6.83,.54-12.87,2.65-18.85,6.2,2.39,12.84,3.77,19.63,4.69,2.61,.35,5.26,.45,7.91,.36,.53,5.13,.93,10.27,1.2,15.41-1.72,.07-3.44,.13-5.17,.19Zm5.31,2.81c.15,3.55,.25,7.1,.28,10.66-.91-.01-1.81,0-2.71,.02-7.41,.14-15.44,1.41-22.96,3.81-2.78-4.29-4.74-9.11-5.62-14.22,8.56,.4,17.17,.22,25.7-.08,1.77-.06,3.54-.12,5.31-.19ZM22.49,12.18c6.14-4.46,12.89-7.13,20.12-8.42-6.77,4.9-12.06,11.94-15.99,19.21-.88,1.61-1.65,3.22-2.33,4.83-3.88-1.72-7.54-3.94-10.91-6.9,2.7-3.34,5.79-6.31,9.11-8.72Zm-10.94,11.11c3.59,3.1,7.49,5.48,11.63,7.34-2.45,6.86-3.29,13.84-2.82,21.6,.01,.04,.01,.07,.01,.11-5.93-.4-11.82-1.13-17.64-2.36-.31-9.38,3.22-18.89,8.82-26.69ZM5.56,62.28c-1.35-2.98-2.19-6.07-2.58-9.19,5.85,1.17,11.77,1.88,17.72,2.26,.8,5.51,2.82,10.73,5.75,15.41-3.67,1.34-7.16,2.98-10.36,4.89-4.44-3.62-8.11-8.07-10.53-13.37Zm13.12,15.33c2.95-1.66,6.16-3.08,9.51-4.27,4.4,6.01,10.34,10.93,17.07,14.11-9.26-1.16-18.84-4.39-26.58-9.84Zm35.91,9.91c-9.29-2.14-17.61-7.69-23.34-15.19,6.98-2.13,14.37-3.27,21.14-3.4,.9-.02,1.81-.03,2.73-.03,0,6.21-.18,12.41-.53,18.62ZM51.39,3.66c11.73,4.35,19.66,13.48,24,24.48-6.04,2.93-12.61,4.82-19.24,5.44-1.12-10.03-2.71-20.01-4.76-29.92Zm25.01,27.28c1.55,4.67,2.49,9.61,2.83,14.63,.11,1.7,.16,3.35,.14,4.95-7.2,.82-14.42,1.29-21.7,1.61-.27-5.17-.68-10.34-1.2-15.49,6.85-.65,13.66-2.67,19.93-5.7Zm2.84,22.6c-.39,5-1.64,9.66-4.19,14.53-5.52-1.36-11.29-1.96-16.95-2.12-.03-3.61-.13-7.22-.29-10.83,7.19-.32,14.32-.78,21.43-1.58Zm-21.12,15.41c5.16,.14,10.39,.66,15.43,1.83-3.97,6.82-8.83,12.41-15.93,16.11,.33-5.98,.5-11.96,.5-17.94Zm5.72,17.63c5.34-3.9,9.36-9.06,12.73-15.02,2.79,.81,5.49,1.84,8.07,3.15-5.56,5.8-12.82,9.89-20.8,11.87Zm30.99-31.35c-1.34,6.58-4.21,12.36-8.15,17.17-2.76-1.46-5.67-2.62-8.68-3.52,2.62-5.22,3.92-10.29,4.28-15.7,4.38-.56,8.76-1.27,13.14-2.16-.12,1.42-.31,2.83-.59,4.21Zm-12.45-5.08c.01-1.86-.07-3.76-.24-5.74-.43-5.12-1.45-10.12-3.06-14.84,3.32-1.8,6.44-3.87,9.31-6.17,4.61,7.33,7.2,16.11,7.17,24.54-4.4,.92-8.78,1.64-13.18,2.21Z"/>
      <path class="cls-2" d="M45.26,87.45c-9.26-1.16-18.84-4.39-26.58-9.84,2.95-1.66,6.16-3.08,9.51-4.27,4.4,6.01,10.34,10.93,17.07,14.11Z"/>
      <path class="cls-2" d="M55.12,68.9c0,6.21-.18,12.41-.53,18.62-9.29-2.14-17.61-7.69-23.34-15.19,6.98-2.13,14.37-3.27,21.14-3.4,.9-.02,1.81-.03,2.73-.03Z"/>
      <path class="cls-2" d="M73.55,70.78c-3.97,6.82-8.83,12.41-15.93,16.11,.33-5.98,.5-11.96,.5-17.94,5.16,.14,10.39,.66,15.43,1.83Z"/>
      <path class="cls-2" d="M84.64,74.71c-5.56,5.8-12.82,9.89-20.8,11.87,5.34-3.9,9.36-9.06,12.73-15.02,2.79,.81,5.49,1.84,8.07,3.15Z"/>
      <path class="cls-2" d="M95.42,51.02c-.12,1.42-.31,2.83-.59,4.21-1.34,6.58-4.21,12.36-8.15,17.17-2.76-1.46-5.67-2.62-8.68-3.52,2.62-5.22,3.92-10.29,4.28-15.7,4.38-.56,8.76-1.27,13.14-2.16Z"/>
      <path class="cls-2" d="M79.24,53.54c-.39,5-1.64,9.66-4.19,14.53-5.52-1.36-11.29-1.96-16.95-2.12-.03-3.61-.13-7.22-.29-10.83,7.19-.32,14.32-.78,21.43-1.58Z"/>
      <path class="cls-2" d="M55.1,65.91c-.91-.01-1.81,0-2.71,.02-7.41,.14-15.44,1.41-22.96,3.81-2.78-4.29-4.74-9.11-5.62-14.22,8.56,.4,17.17,.22,25.7-.08,1.77-.06,3.54-.12,5.31-.19,.15,3.55,.25,7.1,.28,10.66Z"/>
      <path class="cls-2" d="M26.45,70.76c-3.67,1.34-7.16,2.98-10.36,4.89-4.44-3.62-8.11-8.07-10.53-13.37-1.35-2.98-2.19-6.07-2.58-9.19,5.85,1.17,11.77,1.88,17.72,2.26,.8,5.51,2.82,10.73,5.75,15.41Z"/>
      <path class="cls-2" d="M20.36,52.23s.01,.07,.01,.11c-5.93-.4-11.82-1.13-17.64-2.36-.31-9.38,3.22-18.89,8.82-26.69,3.59,3.1,7.49,5.48,11.63,7.34-2.45,6.86-3.29,13.84-2.82,21.6Z"/>
      <path class="cls-2" d="M42.61,3.76c-6.77,4.9-12.06,11.94-15.99,19.21-.88,1.61-1.65,3.22-2.33,4.83-3.88-1.72-7.54-3.94-10.91-6.9,2.7-3.34,5.79-6.31,9.11-8.72,6.14-4.46,12.89-7.13,20.12-8.42Z"/>
      <path class="cls-2" d="M53.16,33.77c-3.29,.1-6.58-.09-9.82-.67-5.66-1.01-11.14-2.22-16.29-4.16,.64-1.48,1.35-2.96,2.16-4.46,4.49-8.3,10.73-16.23,19.13-20.8,2.09,9.97,3.69,20,4.82,30.09Z"/>
      <path class="cls-2" d="M75.39,28.14c-6.04,2.93-12.61,4.82-19.24,5.44-1.12-10.03-2.71-20.01-4.76-29.92,11.73,4.35,19.66,13.48,24,24.48Z"/>
      <path class="cls-2" d="M86.72,20.91c-2.69,2.2-5.6,4.17-8.67,5.86-3.92-9.78-10.53-18.1-19.9-23.28,5.77,1.09,11.21,3.49,16.49,6.44,4.72,2.64,8.8,6.47,12.08,10.98Z"/>
      <path class="cls-2" d="M95.56,47.94c-4.4,.92-8.78,1.64-13.18,2.21,.01-1.86-.07-3.76-.24-5.74-.43-5.12-1.45-10.12-3.06-14.84,3.32-1.8,6.44-3.87,9.31-6.17,4.61,7.33,7.2,16.11,7.17,24.54Z"/>
      <path class="cls-2" d="M79.37,50.52c-7.2,.82-14.42,1.29-21.7,1.61-.27-5.17-.68-10.34-1.2-15.49,6.85-.65,13.66-2.67,19.93-5.7,1.55,4.67,2.49,9.61,2.83,14.63,.11,1.7,.16,3.35,.14,4.95Z"/>
      <path class="cls-2" d="M54.68,52.25c-1.72,.07-3.44,.13-5.17,.19-8.65,.3-17.4,.51-26.1,.08-.05-.62-.09-1.25-.12-1.88-.24-6.83,.54-12.87,2.65-18.85,6.2,2.39,12.84,3.77,19.63,4.69,2.61,.35,5.26,.45,7.91,.36,.53,5.13,.93,10.27,1.2,15.41Z"/>
      <path class="cls-1" d="M2.78,24.05c3.47-6.54,7.98-12.29,13.52-17.2,1.08-.96-.51-2.55-1.59-1.59C9.03,10.29,4.39,16.21,.84,22.91c-.68,1.28,1.26,2.42,1.94,1.14Z"/>
      <path class="cls-1" d="M2.97,15.92c1.27-2.42,2.86-4.58,4.8-6.5,1.03-1.02-.56-2.61-1.59-1.59-2.07,2.04-3.8,4.37-5.15,6.95-.67,1.28,1.27,2.42,1.94,1.14Z"/>
      <path class="cls-1" d="M89.7,79.5c-4.16,4.86-9.31,8.51-15.31,10.72-1.35,.5-.76,2.67,.6,2.17,6.37-2.35,11.89-6.14,16.31-11.3,.94-1.09-.65-2.69-1.59-1.59Z"/>
      <path class="cls-1" d="M87.77,86.98c-1.2,1.41-2.65,2.59-4.33,3.39-1.31,.62-.17,2.56,1.14,1.94,1.83-.87,3.48-2.2,4.79-3.74,.93-1.1-.65-2.69-1.59-1.59Z"/>
    </g>
  </g>
</svg>