<?xml version="1.0" encoding="UTF-8"?>
<svg id="Capa_2" data-name="Capa 2" xmlns="http://www.w3.org/2000/svg" viewBox="0 0 130.16 102.38">
  <defs>
    <style>
      .cls-1 {
        fill: #ffd133;
      }

      .cls-1, .cls-2 {
        fill-rule: evenodd;
      }
    </style>
  </defs>
  <g id="Layer_1" data-name="Layer 1">
    <g>
      <path class="cls-2" d="M103.51,14.15c-2.02-2.37-4.4-4.88-7.15-6.09-6.72-2.95-13.58-6.48-20.7-7.46-19.64-2.68-36.62,3.73-50.29,18.15-7.6,8.01-10.57,18.16-11.52,28.84-1.48,16.58,3.62,30.68,16.64,41.63,11.03,9.28,23.87,13.3,38,13.16,10.7-.11,21-2.46,29.67-9.26,13.36-10.49,19.44-24.51,19.4-44.39,.46-11.44-4.85-23.77-14.05-34.58Zm-64.77-2.75c.08,0,.16,.01,.25,.02,7.28-5.74,15.89-7.76,24.84-8.75,2.08-.23,4.2-.18,6.3-.08,1.64,.09,3.26,.43,4.9,.65-.87,1.84-1.62,3.73-2.64,5.49-.37,.62-1.32,1.19-2.06,1.29-4.76,.66-7.43,3.2-8.29,8.01-.16,.88-2.08,1.84-3.31,2.06-2.04,.35-4.21-.14-6.27,.2-3.73,.57-6.13-.64-7-4.37-.83-3.55-3.59-4.09-6.47-4.5-.04,.04-.08,.06-.12,.1-.1,.14-.21,.28-.31,.41,.06-.17,.12-.36,.18-.53Zm-13.73,61.4c-.17,1.25-.21,2.52-.37,3.77-.06,.53-.26,1.03-.4,1.54-.47-.39-1.09-.69-1.39-1.18-4.46-7.37-6.89-15.31-7.17-24.05,.81-4.98,1.66-9.94,2.41-14.92,.61-4,3.19-6.78,5.66-9.66,1.43-1.68,2.84-1.53,4.33-.22,3.8,3.3,7.58,6.65,11.38,9.97,1.64,1.42,1.43,2.78,0,4.25-1.47,1.51-2.87,3.09-4.24,4.69-3.1,3.62-3.07,3.62-.88,7.68,1.1,2.02,2.14,4.09,3.2,6.15,.94,1.81,.74,3.2-1.47,3.87-1.81,.53-3.56,1.42-5.4,1.67-3.91,.5-5.22,3.05-5.66,6.44Zm86.89-2.39c-4.48,11.17-11.56,20-22.77,25.1-6.85,3.1-14.07,4.26-19.34,4.36-15.74-.1-27.86-4.18-38.25-13.07-1.99-1.7-3.7-3.22-2.62-6.4,.53-1.57-.31-3.59-.42-5.42-.14-2.38,.78-3.97,3.28-4.6,2.85-.71,5.71-1.49,8.45-2.55,2.81-1.1,3.13-2.08,1.91-4.9-.74-1.74-1.56-3.52-2.72-4.98-2.72-3.47-2.3-6.51,.67-9.51,.74-.74,1.27-1.69,1.86-2.55,2.5-3.69,2.52-5.64-.25-9.08-4.02-5-8.93-9.03-14.57-11.99-2.31-1.2-2-2.03-.71-3.61,3.29-4.02,6.8-7.39,12.67-6.98,2.31,.15,3.55,.75,3.8,3.06,.02,.2,.15,.39,.21,.59,.59,1.98,.61,5,1.91,5.71,1.98,1.11,4.84,.73,7.33,.79,2.95,.09,5.91-.22,8.85-.03,3.12,.21,5.02-1.21,5.32-4.06,.38-3.76,2.37-5.6,5.79-6.43,3.86-.92,5.37-4.16,6.09-7.41,.65-2.91,1.74-2.69,3.79-1.73,1.9,.89,3.83,1.77,5.84,2.38,14.16,4.32,19.89,15.99,24.8,28.37,.18,.45-.1,1.56-.28,1.59-.74,.1-1.79,.2-2.26-.23-1.54-1.41-2.97-2.98-4.3-4.62-1.54-1.89-3.38-2.88-5.86-3.27-6.77-1.1-8.09-1.76-10.21,4.7-.94,2.87-2.88,2.94-5.54,2.04-3.77-1.29-4.79-.59-5.95,3.09-.38,1.21-.55,2.47-.81,3.71-.78,3.85-2.51,7.11-5.64,9.59-1.16,.92-2.11,2.07-3.21,3.06-2.57,2.3-3.21,4.85-1.14,7.81,1.31,1.87,1.73,3.56-.01,5.64-1.11,1.33-2.46,4.08-1.89,4.87,1.4,1.91,3.78,3.16,5.94,4.36,.5,.28,1.95-.51,2.53-1.19,2.34-2.72,4.61-5.5,6.71-8.4,1.65-2.29,3.43-1.82,5.46-.79,1.99,1,1.9,2.34,1.16,4.19-.6,1.49-1.33,3.5-.79,4.75,1.05,2.46,2.83,4.65,4.58,6.71,.41,.49,2.11,.45,2.85,.03,3.84-2.19,7.63-4.5,11.26-7.02,.87-.6,1.21-2.12,1.54-3.3,.26-.99,.06-2.11,.21-3.14,.29-2,2.29-3.19,4.11-2.45,1.72,.7,1.06,2.13,.62,3.21Zm2.88-13.31c-.17,1.85-.01,4.24-1.09,5.34-.96,.99-3.4,.57-5.19,.71-3.26,.23-4.23,.8-4.04,4.18,.26,4.52-1.41,7.17-5.68,8.5-1.37,.43-2.54,1.47-3.83,2.17-1.12,.6-2,2.72-3.58,.83-1.26-1.53-3.32-2.86-1.92-5.43,.6-1.09,1.07-2.29,1.43-3.49,.52-1.78,.13-3.4-1.58-4.36-2.02-1.13-4.08-2.17-6.18-3.13-1.74-.79-3.3-.41-4.44,1.2-1.58,2.23-3.07,4.53-4.73,6.7-.86,1.13-1.91,2.21-3.08,2.98-.44,.3-1.57-.21-2.23-.6-.2-.12-.03-1.14,.19-1.64,.24-.56,.66-1.1,1.13-1.52,2.39-2.09,2.18-4.38,.44-6.67-1.8-2.38-1.23-4.23,.98-5.89,.51-.37,.89-.92,1.43-1.25,5.11-3.06,7.24-7.66,7.75-13.5,.37-4.21,.82-4.47,4.53-3.75,3.87,.76,5.79-.82,7.4-4.09,2.3-4.62,8.06-4.85,10.83-.31,2.19,3.57,4.17,6.78,9.04,6.66,.71-.01,1.95,1.54,2.08,2.49,.42,2.91,.41,5.88,.57,8.81-.07,0-.14,0-.2,0,0,1.68,.13,3.38-.03,5.05Z"/>
      <path class="cls-1" d="M35.22,46.99c-3.1,3.62-3.07,3.62-.88,7.68,1.1,2.02,2.14,4.09,3.2,6.15,.94,1.81,.74,3.2-1.47,3.87-1.81,.53-3.56,1.42-5.4,1.67-3.91,.5-5.22,3.05-5.66,6.44-.17,1.25-.21,2.52-.37,3.77-.06,.53-.26,1.03-.4,1.54-.47-.39-1.09-.69-1.39-1.18-4.46-7.37-6.89-15.31-7.17-24.05,.81-4.98,1.66-9.94,2.41-14.92,.61-4,3.19-6.78,5.66-9.66,1.43-1.68,2.84-1.53,4.33-.22,3.8,3.3,7.58,6.65,11.38,9.97,1.64,1.42,1.43,2.78,0,4.25-1.47,1.51-2.87,3.09-4.24,4.69Z"/>
      <path class="cls-1" d="M75.03,3.24c-.87,1.84-1.62,3.73-2.64,5.49-.37,.62-1.32,1.19-2.06,1.29-4.76,.66-7.43,3.2-8.29,8.01-.16,.88-2.08,1.84-3.31,2.06-2.04,.35-4.21-.14-6.27,.2-3.73,.57-6.13-.64-7-4.37-.83-3.55-3.59-4.09-6.47-4.5,7.28-5.74,15.89-7.76,24.84-8.75,2.08-.23,4.2-.18,6.3-.08,1.64,.09,3.26,.43,4.9,.65Z"/>
      <path class="cls-1" d="M114.81,52.05c0,1.68,.13,3.38-.03,5.05-.17,1.85-.01,4.24-1.09,5.34-.96,.99-3.4,.57-5.19,.71-3.26,.23-4.23,.8-4.04,4.18,.26,4.52-1.41,7.17-5.68,8.5-1.37,.43-2.54,1.47-3.83,2.17-1.12,.6-2,2.72-3.58,.83-1.26-1.53-3.32-2.86-1.92-5.43,.6-1.09,1.07-2.29,1.43-3.49,.52-1.78,.13-3.4-1.58-4.36-2.02-1.13-4.08-2.17-6.18-3.13-1.74-.79-3.3-.41-4.44,1.2-1.58,2.23-3.07,4.53-4.73,6.7-.86,1.13-1.91,2.21-3.08,2.98-.44,.3-1.57-.21-2.23-.6-.2-.12-.03-1.14,.19-1.64,.24-.56,.66-1.1,1.13-1.52,2.39-2.09,2.18-4.38,.44-6.67-1.8-2.38-1.23-4.23,.98-5.89,.51-.37,.89-.92,1.43-1.25,5.11-3.06,7.24-7.66,7.75-13.5,.37-4.21,.82-4.47,4.53-3.75,3.87,.76,5.79-.82,7.4-4.09,2.3-4.62,8.06-4.85,10.83-.31,2.19,3.57,4.17,6.78,9.04,6.66,.71-.01,1.95,1.54,2.08,2.49,.42,2.91,.41,5.88,.57,8.81-.07,0-.14,0-.2,0Z"/>
      <path class="cls-2" d="M5.35,70.4c.19-.71,.76-1.6,.51-2.13-2.32-5.02-3.59-10.27-3.69-15.81,0-.49-.42-.96-.95-2.09C.62,51.61-.01,52.3,0,52.97c.12,5.71,.98,11.28,3.9,16.32,.29,.49,.96,.75,1.45,1.11Z"/>
      <path class="cls-2" d="M9.27,70.49c.18-.58,.59-1.19,.51-1.72-.76-4.52-1.58-9.04-2.44-13.55-.06-.36-.45-.65-.71-.99-.27,.24-.75,.44-.79,.7-.84,5.1,.07,9.97,1.96,14.69,.17,.41,.96,.58,1.47,.86Z"/>
      <path class="cls-2" d="M124.47,50.33c.16-3.09,.41-6.19,.41-9.27,0-1.21-.51-2.45-.88-3.64-.11-.33-.57-.55-.87-.81-.3,.44-.84,.88-.86,1.33-.05,1.25,.12,2.52,.26,4.6,1.45,1.87-1.65,5.6,1.94,7.8Z"/>
      <path class="cls-2" d="M127.82,49.67c.23,.43,.85,.71,1.36,.89,.14,.05,.68-.51,.73-.84,.15-1.01,.16-2.05,.26-3.8-.31-1.79-.65-4.26-1.19-6.68-.14-.6-.89-1.06-1.36-1.59-.24,.7-.69,1.42-.66,2.12,.14,2.69,.43,5.37,.66,8.07,.06,.61-.06,1.31,.21,1.83Z"/>
    </g>
  </g>
</svg>