<?xml version="1.0" encoding="UTF-8"?>
<svg id="Capa_2" data-name="Capa 2" xmlns="http://www.w3.org/2000/svg" viewBox="0 0 266.12 333.29">
  <defs>
    <style>
      .cls-1 {
        fill: #ffd133;
      }
    </style>
  </defs>
  <g id="Layer_1" data-name="Layer 1">
    <g>
      <path d="M229.61,110.57c-5.73-17.17-17.68-30.21-29.24-42.82-16.11-17.57-36.37-27.31-58.82-28.29-1.08-.06-2.17-.08-3.27-.09-.02-.01-.04-.03-.06-.04-.24-.14-.5-.24-.79-.3-2.84-.54-5.71-.91-8.62-1.11h-.01c-1.16-.08-2.32-.14-3.49-.16-46.26-1.17-99.48,37.47-116.4,75.23C-7.33,149.21-.96,194.28,24.75,225.14c21.57,25.89,46.17,42.26,73.39,48.9h.01c1.11,.26,2.21,.52,3.33,.75,3.64,.78,7.32,1.38,11.05,1.82,1.08,.12,2.17,.23,3.26,.33,3.62,.32,7.28,.48,10.98,.48,35.28,0,65.85-15.47,86.09-43.56,24.4-33.86,30.81-81.1,16.75-123.29Zm-20.69,120.44c-9.86,13.67-22.29,24.21-36.58,31.25-1.01,.5-2.02,.98-3.05,1.44-7.05,3.17-14.54,5.52-22.36,6.99-.84,.16-1.68,.31-2.52,.44-5.71,.94-11.61,1.41-17.64,1.41-9.52,0-18.77-1.11-27.73-3.32-.87-.22-1.73-.44-2.6-.67-9.62-2.63-18.9-6.53-27.82-11.72-.98-.57-1.96-1.15-2.93-1.76-13.23-8.17-25.66-19.2-37.2-33.05-11.06-13.28-18.38-29.32-21.66-46.1-.21-1.12-.41-2.24-.59-3.37-3.16-19.41-.93-39.63,7.11-57.57,6.9-15.39,20.06-30.95,36.31-43.67,.75-.59,1.5-1.17,2.26-1.74,10.18-7.69,21.49-14.24,33.17-18.96,1.44-.59,2.88-1.14,4.33-1.67,11.16-4.04,22.57-6.36,33.6-6.36,4.5,0,8.95,.38,13.28,1.2,.4,.29,.9,.46,1.43,.46,15.64,0,30.25,4.46,43.1,13.04,.54,.35,1.07,.72,1.61,1.1,5.08,3.57,9.88,7.8,14.34,12.66,2.22,2.43,4.46,4.87,6.67,7.35,.01,0,.01,0,.01,0,.38,.43,.75,.86,1.14,1.3,8.46,9.67,16.25,20,20.38,32.41,11.95,35.83,8.63,75.4-8.34,106.59-.31,.59-.64,1.18-.98,1.76-2.05,3.64-4.3,7.17-6.74,10.55Z"/>
      <path class="cls-1" d="M180.83,57.28c-.72,.19-1.47,.55-1.85,.8-1.46,.98-2.73,2.3-3.95,3.58-1.52,1.58-2.96,3.08-4.58,3.77-2.36,1.02-4.72,1.5-7.21,2.02-3.96,.81-8.05,1.64-12.02,4.71-4.25,3.25-6.89,8.11-9.45,12.82-2.61,4.81-5.08,9.35-8.99,11.84-4.51,2.87-10.64-2.07-16.05-6.4-2.59-2.09-4.83-3.88-6.83-4.79-1.43-.64-3.29-1.11-5.27-1.61-3.42-.88-7.29-1.87-8.77-3.76-1.13-1.47-.08-3.48,1.72-6.64,2.79-4.89,7.01-12.3-2.63-20-.65-.52-1.31-1.13-1.97-1.74-1.06-.99-2.24-2.07-3.56-2.94,11.16-4.04,22.57-6.36,33.6-6.36,4.5,0,8.95,.38,13.28,1.2,.4,.29,.9,.46,1.43,.46,15.64,0,30.25,4.46,43.1,13.04Z"/>
      <path class="cls-1" d="M146.93,270.69c.11-.74-.16-1.78-.43-2.32-.5-1-1.33-2.38-2.38-4.11-3.47-5.76-10.65-17.68-7.37-22,.86-.24,3.8,.38,5.58,.74,3.08,.64,5.74,1.19,7.46,.61,4.12-1.36,7.39-3.73,10.02-5.63,1.44-1.04,3.58-2.63,4.19-2.47,.64,.34,1.7,2.95,1.56,16.64,0,.76,.61,3.77,1.32,4.77-.04,.39,.07,.8,.33,1.13,1.41,1.82,1.71,3.43,2.08,5.65-7.05,3.17-14.54,5.52-22.36,6.99Z"/>
      <path class="cls-1" d="M96.44,268.55c-9.62-2.63-18.9-6.53-27.82-11.72,6.53-4.61,9.89-6.58,12.28-6.11,2.35,.46,4.62,3.49,8.53,9.68,.98,1.55,2.34,2.67,3.65,3.76,1.62,1.32,3.02,2.48,3.29,4.1,.02,.1,.04,.2,.07,.29Z"/>
      <path class="cls-1" d="M216.64,218.7c-.06-.38-.26-.74-.59-1-.66-.54-1-1.16-1.42-1.97-.42-.77-.88-1.65-1.69-2.48-1.63-1.61-3.76-.92-5.16-.48-.62,.2-1.62,.51-1.86,.35-.6-.45-1.21-1.92-1.76-3.21-.63-1.47-1.27-2.99-2.23-4.07-2.6-2.92-5.78-5.06-8.84-7.13-2.01-1.35-3.91-2.63-5.65-4.09-.19-.18-.74-.87-1.18-1.43-2.14-2.76-4.8-6.16-7.63-5.03-2.63,1.05-4.22,4.8-6.23,9.55-3.79,8.97-7.24,15.66-14.18,13.51-10.96-3.36-13.32-12.74-15.61-21.81-1.98-7.89-3.85-15.33-11.56-16.96-7.15-1.52-19.46-1.2-28.44-.98-4.16,.1-8.79,.23-10.54,.04-.16-1.13,.06-2.15,.66-3.15,3.44-5.68,18.02-8.66,26.73-10.44,3.57-.72,6.38-1.3,7.94-1.9,5.64-2.17,7.07-7.87,8.33-12.88,1.44-5.72,2.54-9.26,6.91-9.81,6.51-.82,11.58,5.12,16.5,10.87,4.41,5.14,8.97,10.47,14.75,10.94,7.37,.62,17.61-5.77,20.56-7.75,21.19-14.13,17.62-26.44,13.49-40.69-2.36-8.08-4.78-16.43-3.34-26.53,.02-.16,.02-.32,0-.47,8.46,9.67,16.25,20,20.38,32.41,11.95,35.83,8.63,75.4-8.34,106.59Z"/>
      <path class="cls-1" d="M57.84,154.8c-4.81,3.37-11.47,1.28-18.54-.94-5.31-1.66-10.81-3.39-15.63-2.59-2.98,.5-4.34,4.44-5.67,8.23-.73,2.07-1.54,4.42-2.38,5.25-2.3,2.31-5.72,5.56-9.38,7.8-3.16-19.41-.93-39.63,7.11-57.57,6.9-15.39,20.06-30.95,36.31-43.67,.07,.77,.69,1.4,1.48,1.47,.46,.04,1.1,.04,1.84,.05,2.28,0,6.52,.02,7.2,1.83,1.92,5.1-.06,9.7-2.15,14.57-1.92,4.47-3.9,9.1-2.43,13.98,1.04,3.5,3.23,6.13,5.34,8.67,1.81,2.18,3.52,4.24,4.45,6.73,2.88,7.69-.36,31.16-7.55,36.19Z"/>
      <path d="M125.34,292.34c-18.12,0-35.06-4.18-49.51-12.45-.78-.44-1.05-1.43-.6-2.22,.44-.78,1.43-1.04,2.22-.6,22.37,12.79,51.01,15.48,80.64,7.58,15.22-4.06,30.2-12.5,43.33-24.43,11.1-10.08,22.57-20.51,30.59-35.56,17.01-31.89,20.06-71.16,8.4-107.77-10.84-33.99-32.89-60.75-62.09-75.37-7.28-3.63-16.58-5.11-24.8-6.42-1.29-.2-2.57-.41-3.81-.61-13.73-2.29-28.12-4.26-40.13-1.1-.86,.24-1.75-.29-1.98-1.15-.23-.88,.29-1.75,1.15-1.99,12.64-3.32,27.43-1.3,41.48,1.04,1.24,.21,2.51,.41,3.79,.61,8.44,1.35,18.01,2.88,25.74,6.74,29.99,14.99,52.63,42.44,63.73,77.27,11.93,37.43,8.79,77.62-8.62,110.29-8.29,15.53-19.98,26.15-31.27,36.43-13.51,12.27-28.96,20.98-44.68,25.16-11.42,3.06-22.72,4.56-33.58,4.56Z"/>
      <path d="M120.25,304.53c-17.37,0-35.86-3.06-54.02-13.44-.78-.44-1.05-1.43-.61-2.22,.45-.78,1.44-1.04,2.22-.6,26.45,15.13,53.83,14.18,77.13,11.27,73.52-9.18,122.93-71.06,117.5-147.12-1.45-20.36-4.85-34.59-12.51-52.5-4.63-10.78-12.47-24.33-20.48-35.34-15.42-21.18-37.72-33.48-53.73-40.06-18.5-7.61-46.64-14.35-65-8.23-1.34,.44-1.34,3.62-1.34,6.17,0,2.14,0,4.16-.59,5.69-.34,.83-1.28,1.24-2.11,.91-.83-.34-1.25-1.28-.91-2.1,.37-.95,.37-2.76,.37-4.5,0-3.59,0-8.07,3.56-9.26,19.22-6.41,48.24,.48,67.27,8.3,16.39,6.75,39.25,19.36,55.11,41.17,8.14,11.18,16.12,24.97,20.84,35.97,7.83,18.29,11.28,32.79,12.77,53.54,2.66,37.22-7.61,72.76-28.91,100.08-21.79,27.92-54.25,45.85-91.41,50.5-7.97,.99-16.41,1.77-25.12,1.77Z"/>
      <path d="M67.04,291.32c-.33,0-.65-.1-.93-.3-.74-.5-.93-1.51-.41-2.25,4.67-6.71,5.6-7.51,7.01-8.72,.65-.55,1.38-1.18,2.73-2.66,.6-.66,1.63-.7,2.29-.1,.66,.61,.7,1.63,.1,2.29-1.49,1.63-2.33,2.35-3.01,2.93-1.23,1.04-2.04,1.73-6.46,8.1-.31,.45-.81,.7-1.33,.7Z"/>
      <path d="M127.07,40.31h-.06c-1.6-.05-1.64-.98-1.8-4.47-.04-.6,.26-1.13,.74-1.44,.23-1.63,.53-3.02,1.03-3.86,.46-.76,1.47-1.01,2.23-.55,.77,.46,1.02,1.45,.56,2.23-.46,.75-.77,3.97-.9,5.19-.15,1.55-.29,2.91-1.79,2.91Z"/>
      <path d="M140,41.97c-.12,0-.25-.01-.4-.03-1.62-.18-1.52-1.21-1.29-4,.12-1.43,.29-3.39,.29-4,0-.89,.73-1.62,1.62-1.62s1.63,.73,1.63,1.62c0,.45-.06,1.31-.15,2.42,.13,.28,.18,.58,.14,.89-.49,3.82-.6,4.71-1.84,4.71Z"/>
      <path d="M142.81,12.1c-.09,0-.18-.01-.27-.03-.88-.15-1.48-.98-1.33-1.87,.13-.78,.38-1.57,.61-2.33,.42-1.38,.9-2.94,.36-3.48-1.26-.86-8.57-1.47-11.33-1.01,.18,.49,.28,1.11-.04,1.77-.34,.68-.99,1.1-1.93,1.25-.88,.15-1.72-.45-1.87-1.34-.09-.5,.08-.99,.4-1.35-.24-.56-.41-1.35,.11-2.13,.56-.85,1.65-1.29,3.64-1.49,3.12-.31,11.41,.12,13.3,2.02,1.92,1.93,1.1,4.58,.44,6.73-.22,.7-.42,1.35-.51,1.92-.14,.79-.83,1.35-1.6,1.35Z"/>
      <path d="M129.4,13.04c-1.02,0-1.37-.38-1.51-1.59h-.05c-.01-.14-.01-.31-.02-.54-.19-.26-.31-.59-.31-.94,0-5.11,0-5.65,1.68-5.66h.04c1.75,0,1.77,.98,1.85,7.08,.01,.89-.7,1.63-1.59,1.65h-.09Z"/>
      <path d="M100.78,286.93h-.14c-.9-.08-1.56-.86-1.48-1.77,.11-1.3-.24-4.27-.56-6.9-.32-2.72-.63-5.29-.55-6.78,.05-.89,.8-1.59,1.7-1.54,.9,.05,1.58,.81,1.54,1.7-.06,1.21,.24,3.76,.54,6.24,.36,3.04,.7,5.92,.56,7.55-.08,.85-.78,1.49-1.62,1.49Z"/>
      <path d="M114.47,290.11c-.9,0-1.62-.73-1.62-1.63,0-5.42-.38-13.05-.4-13.36-.06-.88,.56-1.65,1.43-1.74,.85-.11,1.66,.49,1.79,1.35,.05,.31,.43,8.37,.43,13.75,0,.9-.73,1.63-1.62,1.63Z"/>
      <path d="M103.1,320.1c-.75,0-1.41-.05-2.01-.17-.04,.01-.08,.03-.11,.04-.54,.16-1.54,.21-2.28-1.28-.53-1.05-.83-6.17-.54-10.57-.04-1.18,.04-2.03,.26-2.64,.25-1.77,.64-3.16,1.2-3.73,.49-.49,1.23-.61,1.85-.31,.99,.48,.96,.99,.83,3.14-.02,.28-.03,.55-.04,.81,.2,.46,.17,1.01-.09,1.45-.15,2.76-.25,4.98-.3,6.68,0,.02,.01,.05,.01,.08,.15,1.35,.27,2.4,.33,3.24,1.01,.08,2.66-.05,3.39-.1,.59-.05,1.1-.09,1.45-.09,3.8,0,7.08,0,7.81-.75,.58-.6,.51-2.77,.41-5.77-.06-1.57-.12-3.44-.12-5.66,0-.89,.73-1.62,1.63-1.62s1.62,.73,1.62,1.62c0,2.18,.06,4.01,.11,5.55,.14,4.22,.22,6.55-1.31,8.14-1.69,1.74-4.7,1.74-10.15,1.74-.28,0-.71,.04-1.21,.08-.99,.08-1.92,.14-2.75,.14Z"/>
      <path d="M204.68,326.27c-4.36-4.53-36.68-7.83-86.87-8.93-1.71-.04-3.45-.08-5.2-.11-4.91-.09-9.67-.17-14.28-.22-8.22-.11-15.92-.16-23.02-.16-61.18,0-61.24,3.56-61.28,5.91-.01,.43,.1,1.08,.71,1.71,5.9,6.13,76.19,7.9,97.58,8.3,18.72,.34,33.8,.52,46.1,.52,43.68,0,46.99-2.06,47.04-5.18,.01-.46-.12-1.15-.78-1.84Zm-46.26,3.76c-12.29,0-27.34-.16-46.04-.5-63.48-1.18-88.12-4.55-93.99-6.65,3.5-1.01,15.56-2.78,56.92-2.78,11.06,0,23.59,.12,37.25,.37,62.8,1.17,84.34,5.38,88.9,7.49-3.11,1.04-13.57,2.07-43.04,2.07Z"/>
      <path class="cls-1" d="M201.46,327.96c-3.11,1.04-13.57,2.07-43.04,2.07-12.29,0-27.34-.16-46.04-.5-63.48-1.18-88.12-4.55-93.99-6.65,3.5-1.01,15.56-2.78,56.92-2.78,11.06,0,23.59,.12,37.25,.37,62.8,1.17,84.34,5.38,88.9,7.49Z"/>
      <path d="M59.7,157.46c-6.12,4.28-13.87,1.85-21.37-.5-5.18-1.62-10.07-3.16-14.13-2.48-1.08,.19-2.37,3.88-3.13,6.09-.92,2.64-1.79,5.13-3.16,6.48-2.57,2.58-6.5,6.3-10.75,8.72-.11,.06-.22,.11-.33,.15-.16,.05-.31,.08-.47,.08-.56,0-1.11-.31-1.41-.83-.45-.78-.18-1.77,.6-2.22,.23-.13,.46-.27,.69-.4,3.66-2.24,7.08-5.49,9.38-7.8,.84-.83,1.65-3.18,2.38-5.25,1.33-3.79,2.69-7.73,5.67-8.23,4.82-.8,10.32,.93,15.63,2.59,7.07,2.22,13.73,4.31,18.54,.94,7.19-5.03,10.43-28.5,7.55-36.19-.93-2.49-2.64-4.55-4.45-6.73-2.11-2.54-4.3-5.17-5.34-8.67-1.47-4.88,.51-9.51,2.43-13.98,2.09-4.87,4.07-9.47,2.15-14.57-.68-1.81-4.92-1.83-7.2-1.83-.74,0-1.38,0-1.84-.05-.79-.07-1.41-.7-1.48-1.47-.01-.09-.01-.19,0-.29,.09-.89,.9-1.56,1.77-1.47,.14,.01,.31,.02,.49,.02,.31,.02,.67,0,1.07,.02,3.28,.01,8.76,.03,10.23,3.93,2.37,6.31-.06,11.99-2.2,16.98-1.77,4.13-3.45,8.02-2.32,11.78,.86,2.87,2.74,5.13,4.74,7.52,1.9,2.3,3.87,4.66,4.99,7.67,3.41,9.1-.08,33.94-8.73,39.99Z"/>
      <path d="M182.44,58.38c-.29,.91-1.14,2.07-1.67,2.41-1.15,.77-2.25,1.91-3.4,3.11-1.68,1.76-3.41,3.56-5.64,4.51-2.67,1.15-5.3,1.69-7.84,2.22-3.76,.76-7.31,1.5-10.69,4.09-3.7,2.85-6.18,7.41-8.57,11.82-2.71,4.94-5.49,10.08-10.11,13.02-1.52,.96-3.09,1.38-4.69,1.38-5.18,0-10.58-4.35-15.13-7.99-2.32-1.87-4.51-3.62-6.13-4.35-1.17-.54-2.9-.98-4.74-1.44-3.92-1-8.37-2.14-10.52-4.91-2.53-3.24-.5-6.8,1.45-10.23,2.89-5.09,5.63-9.89-1.84-15.87-.72-.57-1.42-1.23-2.14-1.89-1.88-1.73-3.66-3.38-5.69-3.65-.42-.06-.85-.06-1.3,.02-.89,.16-1.72-.44-1.87-1.33-.16-.88,.44-1.72,1.32-1.88,2.38-.41,4.41,.36,6.18,1.52,1.32,.87,2.5,1.95,3.56,2.94,.66,.61,1.32,1.22,1.97,1.74,9.64,7.7,5.42,15.11,2.63,20-1.8,3.16-2.85,5.17-1.72,6.64,1.48,1.89,5.35,2.88,8.77,3.76,1.98,.5,3.84,.97,5.27,1.61,2,.91,4.24,2.7,6.83,4.79,5.41,4.33,11.54,9.27,16.05,6.4,3.91-2.49,6.38-7.03,8.99-11.84,2.56-4.71,5.2-9.57,9.45-12.82,3.97-3.07,8.06-3.9,12.02-4.71,2.49-.52,4.85-1,7.21-2.02,1.62-.69,3.06-2.19,4.58-3.77,1.22-1.28,2.49-2.6,3.95-3.58,.38-.25,1.13-.61,1.85-.8,.69-.2,1.35-.23,1.6,.14,.15,.22,.13,.57,.01,.96Z"/>
      <path d="M216.31,219.98c-.18,.22-.4,.38-.65,.48-.19,.09-.4,.13-.62,.13-.36,0-.71-.12-1.01-.36-1.19-.95-1.77-2.03-2.27-2.98-.35-.65-.65-1.22-1.12-1.69-.22-.23-1.19,.09-1.89,.3-1.35,.44-3.2,1.03-4.77-.15-1.3-.98-2.04-2.71-2.81-4.54-.52-1.22-1.06-2.49-1.67-3.16-2.32-2.62-5.19-4.55-8.23-6.6-1.99-1.34-4.05-2.73-5.92-4.31-.46-.39-.96-1.03-1.65-1.92-.76-.96-3.06-3.92-3.97-3.98-1.27,.52-2.9,4.38-4.34,7.78-3.31,7.82-7.84,18.52-18.12,15.35-12.72-3.91-15.53-15.13-17.8-24.13-2.08-8.29-3.63-13.43-9.08-14.58-6.78-1.43-18.87-1.12-27.7-.89-11.55,.29-13.06,.25-13.57-1.55-.66-2.31-.39-4.5,.84-6.5,4.17-6.89,18.44-9.81,28.86-11.94,3.27-.66,6.1-1.25,7.41-1.75,4.07-1.57,5.17-5.98,6.35-10.63,1.34-5.35,2.86-11.4,9.66-12.25,8.24-1.04,14.15,5.87,19.37,11.97,4.16,4.86,8.09,9.46,12.54,9.83,5.06,.41,13.11-3.63,18.5-7.23,19.22-12.81,16.25-22.98,12.17-37.08-2.33-8.02-4.97-17.1-3.43-27.88,.12-.89,.94-1.5,1.83-1.38,.08,.01,.16,.03,.23,.05,.01,0,.01,0,.01,0,.61,.18,1.05,.69,1.14,1.3,.02,.15,.02,.31,0,.47-1.44,10.1,.98,18.45,3.34,26.53,4.13,14.25,7.7,26.56-13.49,40.69-2.95,1.98-13.19,8.37-20.56,7.75-5.78-.47-10.34-5.8-14.75-10.94-4.92-5.75-9.99-11.69-16.5-10.87-4.37,.55-5.47,4.09-6.91,9.81-1.26,5.01-2.69,10.71-8.33,12.88-1.56,.6-4.37,1.18-7.94,1.9-8.71,1.78-23.29,4.76-26.73,10.44-.6,1-.82,2.02-.66,3.15,1.75,.19,6.38,.06,10.54-.04,8.98-.22,21.29-.54,28.44,.98,7.71,1.63,9.58,9.07,11.56,16.96,2.29,9.07,4.65,18.45,15.61,21.81,6.94,2.15,10.39-4.54,14.18-13.51,2.01-4.75,3.6-8.5,6.23-9.55,2.83-1.13,5.49,2.27,7.63,5.03,.44,.56,.99,1.25,1.18,1.43,1.74,1.46,3.64,2.74,5.65,4.09,3.06,2.07,6.24,4.21,8.84,7.13,.96,1.08,1.6,2.6,2.23,4.07,.55,1.29,1.16,2.76,1.76,3.21,.24,.16,1.24-.15,1.86-.35,1.4-.44,3.53-1.13,5.16,.48,.81,.83,1.27,1.71,1.69,2.48,.42,.81,.76,1.43,1.42,1.97,.33,.26,.53,.62,.59,1,.08,.44-.03,.91-.33,1.28Z"/>
      <path d="M168.74,255.45c-.08,.46-.24,.78-.52,.78l-.89,1.01c-.15,0-.3-.12-.45-.32-.71-1-1.32-4.01-1.32-4.77,.14-13.69-.92-16.3-1.56-16.64-.61-.16-2.75,1.43-4.19,2.47-2.63,1.9-5.9,4.27-10.02,5.63-1.72,.58-4.38,.03-7.46-.61-1.78-.36-4.72-.98-5.58-.74-3.28,4.32,3.9,16.24,7.37,22,1.05,1.73,1.88,3.11,2.38,4.11,.27,.54,.54,1.58,.43,2.32-.05,.35-.18,.63-.44,.76-.23,.13-1.27,.79-1.45,.05-.22,0-.43-.15-.63-.37-.34-.37-.64-.94-.82-1.3-.44-.89-1.28-2.28-2.25-3.89-4.77-7.91-11.98-19.89-6.98-25.87,1.45-1.74,4.61-1.08,8.63-.25,2.07,.42,4.88,1.01,5.77,.72,3.65-1.22,6.7-3.43,9.15-5.19,2.99-2.17,5.36-3.89,7.59-2.73,2.64,1.36,3.44,6.12,3.31,19.57-.01,.61,.13,2.27-.07,3.26Z"/>
      <path d="M171.38,266.14c-.1,.02-.2,.03-.29,.03-.77,0-1.45-.55-1.6-1.33l-.19-1.06s-.01-.06-.01-.08c-.37-2.22-.67-3.83-2.08-5.65-.26-.33-.37-.74-.33-1.13,.03-.44,.24-.86,.61-1.15,.37-.29,.82-.39,1.25-.32,.39,.07,.76,.27,1.03,.61,1.68,2.15,2.2,4.14,2.57,6.2,.06,.32,.11,.64,.17,.96l.17,1.03c.17,.89-.42,1.73-1.3,1.89Z"/>
      <path d="M99.04,269.22c-.22,.19-.5,.33-.81,.39-.08,.01-.17,.02-.26,.02-.68,0-1.3-.43-1.53-1.08-.03-.09-.05-.19-.07-.29-.27-1.62-1.67-2.78-3.29-4.1-1.31-1.09-2.67-2.21-3.65-3.76-3.91-6.19-6.18-9.22-8.53-9.68-2.39-.47-5.75,1.5-12.28,6.11-.21,.15-.42,.3-.64,.45-.73,.51-1.75,.35-2.26-.39-.41-.55-.4-1.28-.03-1.82,.1-.16,.24-.31,.41-.43,7.61-5.4,11.62-7.85,15.43-7.1,3.85,.76,6.6,4.71,10.65,11.13,.7,1.12,1.8,2.02,2.97,2.98,1.85,1.52,3.95,3.26,4.42,6.09,.1,.57-.12,1.12-.53,1.48Z"/>
      <path d="M53.24,241.42c-.9,0-1.63-.73-1.63-1.62,0-4-.31-8.84-2.77-10.87-1.34-1.12-3.32-1.4-6.05-.89-.89,.18-1.73-.41-1.89-1.29-.17-.88,.41-1.73,1.29-1.89,3.68-.7,6.62-.17,8.73,1.58,3.47,2.87,3.93,8.37,3.93,13.36,0,.89-.73,1.62-1.62,1.62Z"/>
      <path d="M53.55,175.04c-5.26-1.04-6.18-.62-8.6,1.99-.36,.4-.79,.87-1.33,1.39-.45,.45-.58,1.12-.39,1.68-2.48,2.57-10.78,12.94-8.8,18.39,.53,1.46,1.96,3.22,5.79,3.22,2.19,0,4.08-.92,5.91-1.79,1.4-.68,2.72-1.32,4.06-1.48,.93-.1,2.91,.5,4.49,1,2.54,.8,4.74,1.49,6.45,.79,.75-.38,.8-.7,1.09-2.49,.11-.75,.34-2.17,.4-2.42,.32-1.15,.99-2.38,1.71-3.7,.97-1.81,2-3.69,2.24-5.66,.43-3.45-11.83-10.67-13.02-10.92Zm7.92,15.04c-.76,1.41-1.55,2.86-1.97,4.34-.08,.29-.2,.95-.48,2.82t-.01,.01c-.95-.15-2.39-.6-3.35-.9-2.18-.69-4.25-1.33-5.88-1.13-1.86,.22-3.49,1.01-5.06,1.77s-3.05,1.47-4.5,1.47c-1.57,0-2.48-.36-2.75-1.07-1.24-3.45,6.32-13.58,8.34-15.27,.54-.44,.72-1.17,.49-1.79,.4-.4,.74-.77,1.03-1.09q1.66-1.79,5.52-1.03c1.56,.51,9.32,5.9,10.45,7.64-.24,1.29-1.02,2.72-1.83,4.23Z"/>
      <path class="cls-1" d="M63.3,185.85c-.24,1.29-1.02,2.72-1.83,4.23-.76,1.41-1.55,2.86-1.97,4.34-.08,.29-.2,.95-.48,2.82t-.01,.01c-.95-.15-2.39-.6-3.35-.9-2.18-.69-4.25-1.33-5.88-1.13-1.86,.22-3.49,1.01-5.06,1.77s-3.05,1.47-4.5,1.47c-1.57,0-2.48-.36-2.75-1.07-1.24-3.45,6.32-13.58,8.34-15.27,.54-.44,.72-1.17,.49-1.79,.4-.4,.74-.77,1.03-1.09q1.66-1.79,5.52-1.03c1.56,.51,9.32,5.9,10.45,7.64Z"/>
      <path d="M129.18,30.1c-.08,0-.14-.01-.21-.03-.89-.11-1.52-.93-1.4-1.82l.53-3.91c.11-.89,.93-1.5,1.82-1.39,.89,.11,1.52,.94,1.4,1.83l-.53,3.9c-.11,.81-.8,1.42-1.6,1.42Z"/>
      <path d="M140.88,32.69c-.15,0-.31-.01-.46-.06-.86-.25-1.35-1.16-1.09-2.02l.27-.92c.66-2.23,1.41-4.75,2.42-6.88,.39-.8,1.37-1.15,2.17-.75,.81,.38,1.15,1.35,.76,2.15-.91,1.89-1.59,4.18-2.24,6.4l-.28,.92c-.21,.7-.85,1.15-1.55,1.15Z"/>
      <path d="M253.01,185.91c-.38,0-.73-.12-1-.34-1.46,.1-3.03,.24-3.75,.33-.9,.11-1.7-.53-1.81-1.42-.11-.89,.53-1.69,1.42-1.8,8.77-1.09,8.87-.41,9.05,.94,.23,1.69-1.16,1.9-3.67,2.28-.09,.01-.16,.01-.24,.01Z"/>
      <path d="M145.05,297.51c-.5,0-.98-.22-1.3-.65-.41-.54-.43-1.25-.1-1.79-.06-.76-.73-2.62-1.05-3.56-.15-.4-.29-.78-.39-1.1-.29-.86,.18-1.78,1.03-2.05,.85-.29,1.77,.17,2.05,1.03,.1,.3,.23,.66,.36,1.05,1.05,2.97,1.97,5.54,.37,6.75-.29,.21-.63,.33-.97,.33Z"/>
      <path d="M93.03,291.27c-.13,0-.24-.01-.36-.04-.88-.2-1.43-1.06-1.23-1.94l.51-2.33c.19-.88,1.05-1.43,1.93-1.24,.88,.19,1.44,1.05,1.25,1.93l-.53,2.34c-.16,.76-.84,1.28-1.58,1.28Z"/>
      <path d="M203.83,57.41c-.89,0-1.62-.74-1.62-1.63v-.53c0-.44,.17-.85,.48-1.15,.86-.86,1.73-1.73,2.6-2.59,.63-.64,1.67-.64,2.3,0,.64,.63,.64,1.65,0,2.29-.71,.71-1.43,1.43-2.14,2.13-.08,.83-.76,1.48-1.62,1.48Z"/>
      <path d="M220.73,253.02c-.38,0-.76-.12-1.06-.4-.69-.59-1.1-.93-1.38-1.15-.75-.6-.88-.78-1.39-1.65l-.41-.69c-.46-.78-.21-1.78,.56-2.23,.77-.46,1.77-.21,2.23,.55l.43,.73c.15,.26,.21,.39,.3,.49,.07,.09,.16,.15,.32,.28,.29,.24,.75,.6,1.48,1.25,.68,.59,.74,1.62,.15,2.28-.33,.38-.78,.55-1.23,.55Z"/>
    </g>
  </g>
</svg>