<?xml version="1.0" encoding="UTF-8"?>
<svg id="Capa_2" data-name="Capa 2" xmlns="http://www.w3.org/2000/svg" viewBox="0 0 65.55 57.84">
  <defs>
    <style>
      .cls-1 {
        fill: #ffd133;
      }

      .cls-1, .cls-2 {
        fill-rule: evenodd;
      }
    </style>
  </defs>
  <g id="Layer_1" data-name="Layer 1">
    <g>
      <path class="cls-2" d="M64.51,12.17c-.47-8.68-2.08-10.13-13.98-11.84C44.97,.25,36.05-.07,27.13,.02c-6.1,.06-12.23,.35-18.28,1.11C2.15,1.97,.19,4.63,.03,11.42c-.01,.5-.05,1-.02,1.49,.62,10.56,1.18,21.11,1.91,31.67,.14,2.09,.81,4.18,1.4,6.23,1.42,4.93,4.58,7.26,9.89,7.02,10.23-.44,20.47-.56,30.72-.9,4.29-.14,8.57-.54,12.87-.75,4.29-.21,7.28-1.96,8.02-6.51,.24-1.46,.76-2.9,.73-4.34-.27-11.06-.46-22.12-1.04-33.16Zm-2.43,32.99c-.62,4.64-1.63,5.71-6.28,6.03-6.43,.44-12.86,.81-19.3,1.02-7.27,.24-14.54,.3-21.8,.37-1.65,.02-3.31-.18-4.94-.42-4-.6-5.64-2.12-5.92-6.06-.82-11.86-1.59-23.74-2.19-35.61-.1-1.85,.32-3.82,1.69-5.12,.93-.88,3.7-2.38,5.04-1.82,.03,0,.05,0,.09-.01,3.01-.65,5.66-1.23,8.77-1.38,11.74-.6,23.54-.75,35.25,.42,1.65,.16,3.29,.42,4.9,.81,3.33,.79,4.09,1.68,4.18,5.11,.3,10.73,.55,21.47,.77,32.21,.04,1.48-.06,2.98-.26,4.45Z"/>
      <path class="cls-1" d="M61.57,8.5c-.09-3.43-.85-4.32-4.18-5.11-1.61-.39-3.25-.65-4.9-.81-11.71-1.17-23.51-1.02-35.25-.42-3.11,.15-5.76,.73-8.77,1.38-.04,.01-.06,.01-.09,.01-1.34-.56-4.11,.94-5.04,1.82-1.37,1.3-1.79,3.27-1.69,5.12,.6,11.87,1.37,23.75,2.19,35.61,.28,3.94,1.92,5.46,5.92,6.06,1.63,.24,3.29,.44,4.94,.42,7.26-.07,14.53-.13,21.8-.37,6.44-.21,12.87-.58,19.3-1.02,4.65-.32,5.66-1.39,6.28-6.03,.2-1.47,.3-2.97,.26-4.45-.22-10.74-.47-21.48-.77-32.21ZM9.8,5.07c-3.79,3.25-4.05,7.32-3.73,11.72,.04,.49,.12,1.03-.01,1.48-.29,.94,1.01,2.46-.87,2.73-.22,0-.88-1.59-.95-2.46-.36-4.34-.14-8.54,2.02-12.2,.98-.8,2.27-1.21,3.58-1.3-.02,.01-.02,.03-.04,.03Zm11.6,37.11c-.91,.06-2.04-.69-2.78-1.41-.5-.48-.61-1.5-.67-2.29-.57-7.21-1.09-14.43-1.61-21.64-.04-.65,.02-1.31,.1-1.97,.19-1.62,1.35-2.14,2.77-2.26,1.47-.15,1.97,.89,2.29,2.06,.05,.15,.06,.33,.07,.49,.57,8.21,1.14,16.4,1.75,25.18-.55,.57-1.2,1.8-1.92,1.84Zm11.69-.86c-2.67,1.88-4.1,1.11-4.47-2.3-.37-3.43-.47-6.9-.63-10.34-.22-4.61-.48-9.21-.56-13.82-.04-2.98,.56-3.34,4.81-2.47,2.82,1.07,6.83,2.53,10.82,4.09,3.52,1.37,7.08,2.7,10.51,4.29,3.07,1.43,3.35,3.16,.72,5.15-6.98,5.25-14.05,10.37-21.2,15.4Zm23.82,6.19c-.61,.62-1.63,.83-2.46,1.23,.35-.75,.59-1.55,1.04-2.22,1.26-1.84,2.6-3.62,3.99-5.52,.85,2.93-.84,4.77-2.57,6.51Z"/>
      <path class="cls-2" d="M9.84,5.04s-.02,.03-.04,.03c-3.79,3.25-4.05,7.32-3.73,11.72,.04,.49,.12,1.03-.01,1.48-.29,.94,1.01,2.46-.87,2.73-.22,0-.88-1.59-.95-2.46-.36-4.34-.14-8.54,2.02-12.2,.98-.8,2.27-1.21,3.58-1.3Z"/>
      <path class="cls-2" d="M56.91,47.51c-.61,.62-1.63,.83-2.46,1.23,.35-.75,.59-1.55,1.04-2.22,1.26-1.84,2.6-3.62,3.99-5.52,.85,2.93-.84,4.77-2.57,6.51Z"/>
      <path class="cls-2" d="M54.29,25.92c-6.98,5.25-14.05,10.37-21.2,15.4-2.67,1.88-4.1,1.11-4.47-2.3-.37-3.43-.47-6.9-.63-10.34-.22-4.61-.48-9.21-.56-13.82-.04-2.98,.56-3.34,4.81-2.47,2.82,1.07,6.83,2.53,10.82,4.09,3.52,1.37,7.08,2.7,10.51,4.29,3.07,1.43,3.35,3.16,.72,5.15Z"/>
      <path class="cls-2" d="M21.57,15.16c-.01-.16-.02-.34-.07-.49-.32-1.17-.82-2.21-2.29-2.06-1.42,.12-2.58,.64-2.77,2.26-.08,.66-.14,1.32-.1,1.97,.52,7.21,1.04,14.43,1.61,21.64,.06,.79,.17,1.81,.67,2.29,.74,.72,1.87,1.47,2.78,1.41,.72-.04,1.37-1.27,1.92-1.84-.61-8.78-1.18-16.97-1.75-25.18Zm-1.66,24.91c-.6-7.73-1.21-15.45-1.81-23.18,.32-.02,.64-.06,.96-.07,.7,7.71,1.8,15.41,1.88,23.18-.34,.02-.68,.05-1.03,.07Z"/>
    </g>
  </g>
</svg>