<?xml version="1.0" encoding="UTF-8"?>
<svg id="Capa_2" data-name="Capa 2" xmlns="http://www.w3.org/2000/svg" viewBox="0 0 184.47 190.85">
  <defs>
    <style>
      .cls-1 {
        fill: #ffd133;
      }
    </style>
  </defs>
  <g id="Layer_1" data-name="Layer 1">
    <g>
      <path d="M158.9,65.93c-4.59-9.18-11.55-17.04-19.12-21.58-.54-.32-1.17-.33-1.69-.09,.23-.81-.12-1.7-.9-2.11-21.24-11.18-50.27-12.13-73.25-3.28C21.13,55.36,6.03,92.28,9.86,121.09c3.42,25.67,23.12,54.87,68.17,59.88,3.18,.36,6.4,.53,9.63,.53,22.5,0,45.37-8.37,59.15-22.14,6.84-6.85,12.47-16.43,16.72-28.46,8.29-23.5,6.99-41.72-4.63-64.97Zm1.19,63.76c-4.06,11.51-9.4,20.62-15.86,27.09-13.16,13.15-35.09,21.13-56.71,21.08,.42-.16,.82-.48,1.13-1.05,.32-.63,.25-1.36-.13-1.89,.1-1.29,.45-3.5,.68-4.02,.45-.91,.09-2-.82-2.45-.9-.44-1.99-.08-2.44,.82-.04,.07-2.43,7.28,.03,8.54,0,.01,.01,.01,.01,.01-2.53-.05-5.06-.19-7.55-.47-42.97-4.77-61.73-32.43-64.96-56.74-3.65-27.4,10.97-62.21,51.8-78.34,23.8-9.4,50.06-7.51,70.22,3.1,.52,.27,1.11,.27,1.6,.05-.21,.77,.09,1.62,.81,2.05,6.99,4.19,13.46,11.51,17.74,20.08,11.27,22.55,12.47,39.39,4.45,62.14Z"/>
      <path d="M94.58,99.21c-1.84-2.2-4.22-2.85-6.35-1.72-1.88,1-3.1,3.25-3.19,5.57-.24,1.63-.12,2.65,1.44,4.41,.93,1.05,2.1,1.58,3.31,1.58,.09,0,.19,0,.28-.01,.16-.05,.32-.07,.49-.06,.86-.16,1.72-.58,2.52-1.27,2.41-2.07,3.6-5.98,1.5-8.5Zm-3.88,5.74c-.9,.79-1.26,.37-1.5,.1-.14-.16-.25-.28-.34-.39,0-.17-.02-.34-.07-.5-.07-.25-.1-.51-.12-.76,.06-.33,.12-.72,.17-1.17,.22-.7,.63-1.28,1.1-1.52,.52-.28,1.14,0,1.84,.84,.59,.7,.04,2.45-1.08,3.4Z"/>
      <path d="M97.55,79.66c-.2,.08-.42,.12-.64,.12-.73,0-1.42-.45-1.7-1.19l-1.01-2.72c-.29-.75-.56-1.47-.81-2.15-.18,2.56-.44,5.11-.7,7.62-.37,3.73-.76,7.59-.9,11.36-.03,.99-.84,1.76-1.81,1.76h-.07c-1-.03-1.79-.88-1.75-1.88,.13-3.9,.53-7.82,.91-11.61,.33-3.18,.64-6.44,.82-9.68-1.18,1.5-2.83,3.08-5.25,4.29-.81,.4-1.85,.16-2.36-.59-.35-.5-.72-1.51,.59-2.67l.19-.18,2.63-2.89c.43-.47,1.04-.66,1.62-.57,.62-.84,1.06-1.66,1.44-2.34,.71-1.27,1.41-2.57,2.99-2.47,1.9,.14,2.36,1.34,5.86,10.72l1.02,2.73c.35,.94-.12,1.99-1.07,2.34Z"/>
      <path d="M94.19,153.69c-1.48,2.37-2.59,4.14-3.51,5.4-.13,1.23-.49,1.84-1.23,2.21-.53,.26-.86,.42-1.3,.24-.35,.16-.72,.23-1.11,.23h-.21c-2.01-.13-2.87-2-4.56-5.71-.59-1.29-1.3-2.85-2.2-4.66-.43-.84-.15-1.94,.65-2.43,1.45-.89,2.34,.29,3.36,1.66,.56,.74,1.3,1.75,2.08,2.8,.25,.34,.53,.72,.81,1.1-.01-.37-.04-.72-.05-1-.1-1.61-.13-2.21-.09-2.59,.77-7.7,.98-15.64,1.19-23.31,.15-5.55,.3-11.3,.67-16.95,.05-.82,.64-1.46,1.38-1.64,.16-.05,.32-.07,.49-.06h.07c1,.07,1.76,.93,1.69,1.93-.35,5.59-.52,11.3-.66,16.82-.21,7.74-.43,15.73-1.21,23.57-.01,.21,.03,.73,.06,1.41,.19-.3,.37-.6,.56-.9l3.12,1.88Z"/>
      <path d="M28.31,108.26c-.25,.42-.38,.65-1.63,.77v.13c-.15,0-1.18-.01-3.23-.01-.77,.01-1.66,.02-2.7,.02-1.45,0-3.19-.01-5.28-.02-1.02,0-1.82-.82-1.82-1.83s.82-1.81,1.82-1.81h.01c1.17,0,2.26,0,3.28,0,.06,0,.12,0,.18,0,2.33,0,4.05,0,5.32,.02h2.42v.09c1.23,.11,1.36,.35,1.63,.81,.32,.57,.32,1.26,0,1.83Z"/>
      <path d="M160.15,107.33c0,1-.81,1.82-1.82,1.82-1.79,0-4.44,.07-6.71,.12-1.32,.04-2.36,.06-3.17,.06-2.86,0-3.09-.31-3.15-1.74-.08-1.79,1.6-1.93,2.94-2.04,.9-.07,2.31-.17,4.37-.31,.42-.04,.84,.1,1.18,.34,1.65-.04,3.3-.07,4.54-.07,1.01,0,1.82,.81,1.82,1.82Z"/>
      <path d="M95.26,38.96c0,9.22-.3,9.39-1.21,9.91-.28,.16-.59,.24-.91,.24s-.64-.09-.93-.27c-.93-.55-.92-.89-.85-3.51,.01-.16,.03-.32,.08-.47,.08-2.18,.18-5.24,.18-5.9,0-1,.82-1.81,1.82-1.81s1.82,.81,1.82,1.81Z"/>
      <path d="M30.51,145.24c-.43,.24-.91,.29-1.35,.16-1,.44-1.98,.83-2.74,1.06-.19,.05-.36,.07-.53,.07-.79,0-1.51-.5-1.75-1.29-.29-.96,.26-1.98,1.22-2.27,1.44-.43,4.11-1.68,5.71-2.43,1.61-.74,2.98-1.39,3.8,.2,.82,1.62,.43,1.83-4.36,4.5Z"/>
      <path d="M49.96,157.77c-.56,1.19-1.18,2.35-1.82,3.5-.29,.55-.58,1.09-.88,1.65-.33,.62-.96,.97-1.61,.97-.29,0-.57-.06-.85-.21-.89-.47-1.23-1.57-.76-2.46,.3-.57,.6-1.13,.91-1.7,.59-1.09,1.19-2.17,1.72-3.3,.42-.91,1.51-1.3,2.42-.87,.91,.42,1.3,1.51,.87,2.42Z"/>
      <path d="M122.15,166.83c-.29,.18-.61,.27-.93,.27-.62,0-1.22-.32-1.56-.89l-.42-.67q-.63-1.07-1.05-1.93c-.22-.47-.58-1.21-1.28-2.59-.45-.9-.08-2,.82-2.44,.9-.45,2-.09,2.44,.81,.71,1.41,1.08,2.16,1.3,2.64q.35,.73,.9,1.63l.41,.68c.51,.86,.23,1.98-.63,2.49Z"/>
      <path d="M148.36,146.21c-.2,.83-.95,1.39-1.78,1.39-.13,0-.28-.01-.42-.05-.38-.09-.74-.18-1.12-.28-.13-.04-.26-.09-.38-.16l-2.95-1.59c-.88-.48-1.21-1.59-.72-2.47,.47-.89,1.57-1.22,2.46-.74l2.75,1.5c.26,.07,.53,.13,.81,.2,.98,.24,1.58,1.22,1.35,2.2Z"/>
      <path d="M157.54,81.72l-.88,.44c-2.16,1.09-4.2,2.1-6.41,3.07-.23,.11-.48,.16-.72,.16-.7,0-1.38-.41-1.67-1.1-.41-.92,.01-2,.93-2.4,2.13-.92,4.13-1.92,6.24-2.98l.88-.45c.91-.45,2-.09,2.45,.82,.45,.9,.08,1.99-.82,2.44Z"/>
      <path d="M134.34,53.25l-1.88,2.14c-.35,.41-.86,.62-1.37,.62-.42,0-.85-.15-1.2-.45-.75-.67-.83-1.82-.16-2.58l1.87-2.12c.66-.76,1.81-.84,2.57-.18,.75,.66,.83,1.81,.17,2.57Z"/>
      <path d="M34.42,77.77c-.34,.6-.95,.94-1.59,.94-.3,0-.6-.07-.89-.23-1.31-.73-2.03-1.53-2.66-2.25-.21-.23-.42-.47-.67-.72-.72-.72-.72-1.87-.01-2.58,.71-.72,1.87-.72,2.57,0,.31,.3,.57,.6,.83,.88,.55,.61,.94,1.06,1.72,1.48,.87,.5,1.19,1.61,.7,2.48Z"/>
      <path d="M59.29,53.41c-.26,.14-.55,.19-.83,.19-.66,0-1.3-.36-1.62-.99l-1.07-2.14c-.45-.9-.09-2,.81-2.44,.9-.46,1.99-.1,2.45,.81l1.06,2.13c.45,.9,.09,1.99-.8,2.44Z"/>
      <path d="M120.68,14.51h.08c1-.04,1.78-.89,1.74-1.9l-.19-4.46c-.04-1-.86-1.75-1.9-1.74-1,.05-1.78,.9-1.74,1.9l.19,4.46c.04,.98,.85,1.74,1.82,1.74Z"/>
      <path d="M184.38,53.71c.29-1.13,.44-1.71-10.22-12.4-16.32-16.37-17.57-16.08-18.58-15.82-1.72,.43-3.17,2.51-5.18,5.63-.45,.69-.96,1.48-1.17,1.72-.08,.08-.28,.27-.51,.5-1,.96-1.74,1.69-2.16,2.35-8.23-4.38-17-6.56-26.39-8.2,.06-.34,.13-.69,.19-1.07,.51-2.94,.9-5.51,.9-7.52,.91,.16,1.85,.29,2.74,.29,1.06,0,2.04-.17,2.86-.66,.54-.32,1.96-1.18,1.9-6.75-.02-2.7-.39-7.4-2.52-8.62C121.96,.71,101.42-.19,88.39,.39c-.17-.14-.37-.25-.6-.32-.65-.18-1.27,.02-1.72,.44-3.98,.25-7,.67-8.14,1.24-2.96,1.47-3.2,13.29-2.9,14.5,.59,2.32,3.55,1.96,6.97,1.55,.16-.03,.34-.05,.51-.07-.12,.92-.14,1.94-.12,2.96,.01,.59,.02,1.14-.02,1.51-.08,.75-.12,1.51-.16,2.27l-.05,.93c0,.07,.03,.12,.03,.2-9.75,.91-20.29,2.73-27.91,6.35-.5,.24-1.01,.49-1.51,.75,0-.37-.08-.74-.32-1.07-.3-.42-.86-2.15-1.27-3.42-1.41-4.31-2.38-6.97-4.5-7.4-3.81-.77-28.1,14.96-30.37,17.98q-.82,1.09,4.08,9.63c1.13,1.96,2.29,3.98,2.55,4.51,.32,.62,.95,.99,1.61,1-.45,.45-.89,.9-1.32,1.34C1.89,77.51-5.67,111.7,4.41,140.34c11.67,33.19,49.82,50.51,87.07,50.51,11.91,0,23.74-1.77,34.58-5.37,25.36-8.4,45.16-30.31,52.95-58.58,6.12-22.18,3.98-44.63-5.49-62.92,.69-.65,1.92-1.55,3.23-2.51,4.08-2.97,7.01-5.26,7.63-7.76ZM124.28,6.24c.84,1.37,1.16,7.58,.49,9.25-.85,.23-3.05-.18-4.14-.39-.23-.04-.45-.08-.68-.12-1.28-1.07-3.64-1.25-6.96-1.1,0-.27,.02-.5,.04-.94,.03-.53,.08-1.36,.15-2.87,.05-1.01-.72-1.87-1.74-1.91-1.03-.03-1.85,.73-1.9,1.73-.06,1.51-.12,2.32-.14,2.85-.04,.65-.05,.88-.06,1.36-1.29,.1-2.83,.19-3.25,.11-.03,0-.56-.08-1.43-.18,.11-.23,.17-.48,.17-.75v-3.5c0-1-.82-1.82-1.82-1.82s-1.82,.82-1.82,1.82v3.5c0,.14,.06,.28,.08,.41-1.36-.11-2.93-.21-4.56-.28-.11-2.18-.07-4.81,.5-7.29,.23-.98-.38-1.96-1.36-2.19-.03-.01-.07-.01-.1-.02,11.53,0,25.39,.78,28.53,2.33Zm-35.97,5.11c-.04-2.57-.04-5.01,.36-7.33,1.98-.06,4.16-.1,6.45-.11-.69,.12-1.28,.65-1.45,1.39-.65,2.8-.71,5.68-.6,8.07-1.68,.03-3.32,.13-4.79,.34,.02-.08,.05-.15,.05-.23,0-.71-.01-1.42-.02-2.13Zm-2.46,13.3c.03-.69,.07-1.37,.14-2.05,.05-.48,.05-1.19,.04-1.96-.01-.73-.02-2.18,.13-2.74,.95-.63,4.19-.86,7.8-.86,.31,.23,.67,.39,1.09,.39,.05,0,.11,0,.17-.01,.33-.03,.62-.18,.87-.36,3.82,.08,7.62,.39,9.28,.72,.9,.18,2.28,.09,4.66-.08,.12-.01,.27-.02,.42-.03,.22,.09,.45,.15,.72,.15,.32,0,.61-.11,.87-.26,1.69-.1,3.65-.17,4.81,0,.19,.29,.43,.52,.74,.66,.17,1.82-.48,5.6-.82,7.58-.07,.39-.13,.74-.18,1.09-2.27-.37-4.55-.72-6.88-1.07-2-.3-4.03-.61-6.1-.94-.7-.1-1.38,.2-1.77,.75-.32-.53-.89-.9-1.56-.9h-.01c-3.93,.02-8.99,.16-14.45,.56l.03-.64Zm-4.29-10.47c-.77,.1-2.15,.26-3.05,.28-.01-2.43,.62-8.04,1.33-9.57,.88-.29,2.7-.53,5.11-.69-.34,2.41-.31,4.83-.29,7.2,.02,.69,.03,1.39,.03,2.08,0,.26,.06,.5,.16,.73-.2-.11-.42-.18-.66-.22-.55-.05-1.28,.02-2.63,.19ZM23.56,46.61c-1.18-2.04-2.81-4.89-3.61-6.38,4.19-3.7,22.03-14.62,25.88-15.74,.6,.91,1.41,3.42,1.88,4.85,.71,2.19,1.18,3.57,1.79,4.41,.12,.19,.29,.32,.46,.44-8.73,4.92-17.41,12.02-23.59,17.96,0-.29-.04-.58-.17-.85-.3-.59-1.2-2.17-2.64-4.69ZM175.5,125.93c-7.47,27.1-26.39,48.07-50.58,56.09-43.12,14.29-102.34-1.01-117.08-42.88C-1.8,111.75,5.45,79.06,25.86,57.79c6.8-7.07,18.73-17.23,29.97-22.55,12.79-6.06,35.35-6.82,44.45-6.86,.62,0,1.15-.31,1.48-.77,.26,.46,.73,.79,1.28,.87,2.08,.33,4.12,.64,6.12,.94,20.84,3.15,37.3,5.63,52.06,22.74,16.44,19.02,21.77,46.6,14.28,73.77Zm-3.77-65.22c-2.25-3.86-4.82-7.53-7.75-10.93-4.47-5.18-9.13-9.07-13.99-12.1,.19-.25,.33-.53,.35-.84,.34-.33,.7-.68,.92-.88,.33-.34,.6-.6,.68-.69,.41-.45,.89-1.22,1.52-2.18,.6-.93,1.88-2.91,2.63-3.73,4.03,2.98,21.47,20.08,24.5,24.04-.97,1.47-4.04,3.72-5.98,5.12-1.1,.81-2.08,1.53-2.88,2.19Z"/>
      <path class="cls-1" d="M155.64,67.55c-4.28-8.57-10.75-15.89-17.74-20.08-.72-.43-1.02-1.28-.81-2.05-.49,.22-1.08,.22-1.6-.05-20.16-10.61-46.42-12.5-70.22-3.1C24.44,58.4,9.82,93.21,13.47,120.61c3.23,24.31,21.99,51.97,64.96,56.74,2.49,.28,5.02,.42,7.55,.47,0,0-.01,0-.01-.01-2.46-1.26-.07-8.47-.03-8.54,.45-.9,1.54-1.26,2.44-.82,.91,.45,1.27,1.54,.82,2.45-.23,.52-.58,2.73-.68,4.02,.38,.53,.45,1.26,.13,1.89-.31,.57-.71,.89-1.13,1.05,21.62,.05,43.55-7.93,56.71-21.08,6.46-6.47,11.8-15.58,15.86-27.09,8.02-22.75,6.82-39.59-4.45-62.14Zm-127.04,5.38c.71-.72,1.87-.72,2.57,0,.31,.3,.57,.6,.83,.88,.55,.61,.94,1.06,1.72,1.48,.87,.5,1.19,1.61,.7,2.48-.34,.6-.95,.94-1.59,.94-.3,0-.6-.07-.89-.23-1.31-.73-2.03-1.53-2.66-2.25-.21-.23-.42-.47-.67-.72-.72-.72-.72-1.87-.01-2.58Zm-7.85,36.24c-1.45,0-3.19-.01-5.28-.02-1.02,0-1.82-.82-1.82-1.83s.82-1.81,1.82-1.81h.01c1.17,0,2.26,0,3.28,0,.06,0,.12,0,.18,0,2.33,0,4.05,0,5.32,.02h2.42v.09c1.23,.11,1.36,.35,1.63,.81,.32,.57,.32,1.26,0,1.83-.25,.42-.38,.65-1.63,.77v.13c-.15,0-1.18-.01-3.23-.01-.77,.01-1.66,.02-2.7,.02Zm9.76,36.07c-.43,.24-.91,.29-1.35,.16-1,.44-1.98,.83-2.74,1.06-.19,.05-.36,.07-.53,.07-.79,0-1.51-.5-1.75-1.29-.29-.96,.26-1.98,1.22-2.27,1.44-.43,4.11-1.68,5.71-2.43,1.61-.74,2.98-1.39,3.8,.2,.82,1.62,.43,1.83-4.36,4.5Zm19.45,12.53c-.56,1.19-1.18,2.35-1.82,3.5-.29,.55-.58,1.09-.88,1.65-.33,.62-.96,.97-1.61,.97-.29,0-.57-.06-.85-.21-.89-.47-1.23-1.57-.76-2.46,.3-.57,.6-1.13,.91-1.7,.59-1.09,1.19-2.17,1.72-3.3,.42-.91,1.51-1.3,2.42-.87,.91,.42,1.3,1.51,.87,2.42Zm9.33-104.36c-.26,.14-.55,.19-.83,.19-.66,0-1.3-.36-1.62-.99l-1.07-2.14c-.45-.9-.09-2,.81-2.44,.9-.46,1.99-.1,2.45,.81l1.06,2.13c.45,.9,.09,1.99-.8,2.44Zm32.07-8.08c.01-.16,.03-.32,.08-.47,.08-2.18,.18-5.24,.18-5.9,0-1,.82-1.81,1.82-1.81s1.82,.81,1.82,1.81c0,9.22-.3,9.39-1.21,9.91-.28,.16-.59,.24-.91,.24s-.64-.09-.93-.27c-.93-.55-.92-.89-.85-3.51Zm-.73,63.65c1,.07,1.76,.93,1.69,1.93-.35,5.59-.52,11.3-.66,16.82-.21,7.74-.43,15.73-1.21,23.57-.01,.21,.03,.73,.06,1.41,.19-.3,.37-.6,.56-.9l3.12,1.88c-1.48,2.37-2.59,4.14-3.51,5.4-.13,1.23-.49,1.84-1.23,2.21-.53,.26-.86,.42-1.3,.24-.35,.16-.72,.23-1.11,.23h-.21c-2.01-.13-2.87-2-4.56-5.71-.59-1.29-1.3-2.85-2.2-4.66-.43-.84-.15-1.94,.65-2.43,1.45-.89,2.34,.29,3.36,1.66,.56,.74,1.3,1.75,2.08,2.8,.25,.34,.53,.72,.81,1.1-.01-.37-.04-.72-.05-1-.1-1.61-.13-2.21-.09-2.59,.77-7.7,.98-15.64,1.19-23.31,.15-5.55,.3-11.3,.67-16.95,.05-.82,.64-1.46,1.38-1.64-.09,.01-.19,.01-.28,.01-1.21,0-2.38-.53-3.31-1.58-1.56-1.76-1.68-2.78-1.44-4.41,.09-2.32,1.31-4.57,3.19-5.57,2.13-1.13,4.51-.48,6.35,1.72,2.1,2.52,.91,6.43-1.5,8.5-.8,.69-1.66,1.11-2.52,1.27h.07Zm6.92-29.32c-.2,.08-.42,.12-.64,.12-.73,0-1.42-.45-1.7-1.19l-1.01-2.72c-.29-.75-.56-1.47-.81-2.15-.18,2.56-.44,5.11-.7,7.62-.37,3.73-.76,7.59-.9,11.36-.03,.99-.84,1.76-1.81,1.76h-.07c-1-.03-1.79-.88-1.75-1.88,.13-3.9,.53-7.82,.91-11.61,.33-3.18,.64-6.44,.82-9.68-1.18,1.5-2.83,3.08-5.25,4.29-.81,.4-1.85,.16-2.36-.59-.35-.5-.72-1.51,.59-2.67l.19-.18,2.63-2.89c.43-.47,1.04-.66,1.62-.57,.62-.84,1.06-1.66,1.44-2.34,.71-1.27,1.41-2.57,2.99-2.47,1.9,.14,2.36,1.34,5.86,10.72l1.02,2.73c.35,.94-.12,1.99-1.07,2.34Zm24.6,87.17c-.29,.18-.61,.27-.93,.27-.62,0-1.22-.32-1.56-.89l-.42-.67q-.63-1.07-1.05-1.93c-.22-.47-.58-1.21-1.28-2.59-.45-.9-.08-2,.82-2.44,.9-.45,2-.09,2.44,.81,.71,1.41,1.08,2.16,1.3,2.64q.35,.73,.9,1.63l.41,.68c.51,.86,.23,1.98-.63,2.49Zm12.19-113.58l-1.88,2.14c-.35,.41-.86,.62-1.37,.62-.42,0-.85-.15-1.2-.45-.75-.67-.83-1.82-.16-2.58l1.87-2.12c.66-.76,1.81-.84,2.57-.18,.75,.66,.83,1.81,.17,2.57Zm14.45,28.64c2.13-.92,4.13-1.92,6.24-2.98l.88-.45c.91-.45,2-.09,2.45,.82,.45,.9,.08,1.99-.82,2.44l-.88,.44c-2.16,1.09-4.2,2.1-6.41,3.07-.23,.11-.48,.16-.72,.16-.7,0-1.38-.41-1.67-1.1-.41-.92,.01-2,.93-2.4Zm-.43,64.32c-.2,.83-.95,1.39-1.78,1.39-.13,0-.28-.01-.42-.05-.38-.09-.74-.18-1.12-.28-.13-.04-.26-.09-.38-.16l-2.95-1.59c-.88-.48-1.21-1.59-.72-2.47,.47-.89,1.57-1.22,2.46-.74l2.75,1.5c.26,.07,.53,.13,.81,.2,.98,.24,1.58,1.22,1.35,2.2Zm9.97-37.06c-1.79,0-4.44,.07-6.71,.12-1.32,.04-2.36,.06-3.17,.06-2.86,0-3.09-.31-3.15-1.74-.08-1.79,1.6-1.93,2.94-2.04,.9-.07,2.31-.17,4.37-.31,.42-.04,.84,.1,1.18,.34,1.65-.04,3.3-.07,4.54-.07,1.01,0,1.82,.81,1.82,1.82s-.81,1.82-1.82,1.82Z"/>
    </g>
  </g>
</svg>