<?xml version="1.0" encoding="UTF-8"?>
<svg id="Capa_2" data-name="Capa 2" xmlns="http://www.w3.org/2000/svg" viewBox="0 0 113.86 52.89">
  <defs>
    <style>
      .cls-1 {
        fill: #ffd133;
      }

      .cls-1, .cls-2 {
        fill-rule: evenodd;
      }
    </style>
  </defs>
  <g id="Layer_1" data-name="Layer 1">
    <g>
      <path class="cls-2" d="M113.85,12.4c.06-2.32-.8-3.71-3.28-3.81-3.17-.13-6.32-.46-9.47-.44-13.85,.1-27.7,.28-41.55,.44-1.22,.01-2.43,.14-3.64,.12-2.77-.02-3.82,1.28-3.8,4.05,.07,6.33-.08,12.64-.16,18.95-.06,4.86,0,9.72-.3,14.56-.2,3.17,1.01,4.5,4.07,4.54,5.58,.09,11.17,.14,16.75,.39,11.16,.5,22.31,1.12,33.47,1.69,6.67-.25,6.91-.24,7.33-6.99,.38-6.05,.18-12.14,.27-18.21,.08-5.1,.18-10.2,.31-15.29Zm-8.7-1.51c.74,0,1.48,.62,2.22,.93-.42,.56-.74,1.23-1.26,1.67-6.47,5.54-12.95,11.08-19.5,16.55-3.42,2.87-3.57,2.9-7.11-.35-6.27-5.75-12.44-11.61-19.91-18.61,15.89-.07,30.73-.16,45.56-.19Zm5.89,30.81c-.05,8.44-.03,8.75-8.37,8.47-15.07-.49-30.14-1.4-45.21-2.04-2.69-.11-3.17-1.49-3.15-3.73,.11-10.66,.16-21.32,.24-33.28,5.11,4.33,9.58,7.99,13.92,11.81,4.02,3.53,7.93,7.21,11.84,10.87,1.91,1.8,3.73,2.1,5.7,.15,.86-.86,1.83-1.63,2.75-2.42,7-5.98,14.01-11.98,22.54-19.27-.1,10.98-.2,20.21-.26,29.44Z"/>
      <path class="cls-1" d="M107.37,11.82c-.42,.56-.74,1.23-1.26,1.67-6.47,5.54-12.95,11.08-19.5,16.55-3.42,2.87-3.57,2.9-7.11-.35-6.27-5.75-12.44-11.61-19.91-18.61,15.89-.07,30.73-.16,45.56-.19,.74,0,1.48,.62,2.22,.93Z"/>
      <path class="cls-1" d="M111.3,12.26c-.1,10.98-.2,20.21-.26,29.44-.05,8.44-.03,8.75-8.37,8.47-15.07-.49-30.14-1.4-45.21-2.04-2.69-.11-3.17-1.49-3.15-3.73,.11-10.66,.16-21.32,.24-33.28,5.11,4.33,9.58,7.99,13.92,11.81,4.02,3.53,7.93,7.21,11.84,10.87,1.91,1.8,3.73,2.1,5.7,.15,.86-.86,1.83-1.63,2.75-2.42,7-5.98,14.01-11.98,22.54-19.27Z"/>
      <path class="cls-2" d="M0,1.6c6.04,1.88,59.01,1.82,70.82-.06C58.09-.55,8.69-.5,0,1.6Z"/>
      <path class="cls-2" d="M40.77,7c-10.55-.11-21.1-.25-31.65-.3-1.41-.01-2.82,.39-4.22,.64-.16,.04-.41,.35-.38,.49,.09,.41,.2,1.03,.49,1.15,.63,.29,1.37,.44,2.07,.45,8.22,.01,16.43,.14,24.64-.1,3.06-.1,6.1-1.11,9.15-1.72-.03-.2-.06-.41-.09-.61Z"/>
      <path class="cls-2" d="M39.44,38.94c-10.6-.38-21.2-.75-31.8-1.11-.48-.01-1.08-.05-1.4,.19-.49,.39-.81,1.01-1.2,1.53,.36,.24,.73,.69,1.09,.69,11.06-.24,22.17,1.85,33.31-1.29Z"/>
      <path class="cls-2" d="M38.82,25.95c-9.41-.51-18.83-1.05-28.25-1.47-.72-.04-1.48,.74-2.22,1.14,.71,.45,1.39,1.26,2.12,1.3,9.41,.48,18.84,1.49,28.35-.98Z"/>
      <path class="cls-2" d="M38.34,17.36c-8.49-.16-16.98-.34-25.47-.45-1.43-.01-2.89,.23-4.3,.46-.29,.06-.66,.68-.68,1.05,0,.31,.37,.86,.68,.95,.68,.2,1.43,.26,2.14,.23,9.21-.43,18.42-.88,27.62-1.31,0-.31,.01-.61,.01-.93Z"/>
      <path class="cls-2" d="M42.33,34.79c-1.81-.39-3.61-.91-5.44-1.1-.64-.06-1.35,.7-2.04,1.09,.48,.36,.96,1.05,1.45,1.06,2.01,.04,4.03-.14,6.04-.24,0-.26,0-.54,0-.81Z"/>
    </g>
  </g>
</svg>