<?xml version="1.0" encoding="UTF-8"?>
<svg id="Capa_2" data-name="Capa 2" xmlns="http://www.w3.org/2000/svg" viewBox="0 0 128.09 78.34">
  <defs>
    <style>
      .cls-1 {
        fill: #ffd133;
      }
    </style>
  </defs>
  <g id="Layer_1" data-name="Layer 1">
    <g>
      <path d="M18.39,74.65s0,.01-.01,.02c-.03,.04-.06,.08-.1,.11-.03,.02-.06,.05-.1,.06-.02,.02-.04,.03-.07,.03-.02,.02-.04,.02-.06,.03h-.03s-.1,.02-.15,.02c-.07,0-.14-.01-.21-.03-.07-.02-.13-.06-.18-.1h-.01s-.08-.07-.11-.12c-.03-.02-.04-.04-.05-.07-.03-.03-.04-.07-.05-.11-.01-.02-.02-.04-.02-.06-2.88-10.21-6.19-21.15-9.86-32.46-.92-2.79-1.96-5.77-2.98-8.65-.81-2.31-1.65-4.69-2.43-7-.19-.06-.36-.22-.42-.42l-.31-.87C.69,23.45,.36,22.5,0,20.42c-.01-.04,0-.06,0-.09v-.05c0-.43,.29-.64,.49-.68,.09-.02,.16-.03,.23-.03,.37,0,.53,.36,.79,1.09,.04,.12,.09,.26,.14,.41,.15,.46,.28,.93,.42,1.4,.07,.24,.14,.49,.21,.73l.32,.93c.19,.55,.37,1.1,.57,1.65,.78,2.35,1.63,4.77,2.46,7.11,1.02,2.88,2.07,5.88,2.98,8.68,3.55,10.94,6.76,21.49,9.57,31.42,.11,.37,.22,.74,.32,1.11,.05,.2,.01,.4-.11,.55Z"/>
      <path d="M60.5,15.68c-.03,.14-.11,.26-.2,.34-.06,.05-.13,.09-.2,.11-.07,.03-.15,.04-.22,.04-.05,0-.11-.01-.17-.02-.04-.01-.07-.02-.1-.03-.08-.01-.15-.03-.23-.05-16.3-4.01-41.98-1.97-57.87,4.59-.21,.08-.41,.16-.61,.25-.08,.03-.17,.05-.26,.05-.25,0-.49-.15-.59-.4-.04-.07-.05-.15-.05-.23v-.05c.01-.24,.15-.47,.39-.57,.11-.05,.22-.09,.33-.14,16.09-6.73,42.36-8.86,58.98-4.75,.11,.03,.22,.05,.33,.08h.01c.15,.04,.26,.12,.35,.23,.04,.05,.07,.11,.1,.17h0c.04,.12,.04,.25,.01,.38Z"/>
      <path d="M78.17,60.39c.02,.15-.01,.29-.09,.42-.07,.11-.17,.19-.29,.24-.09,.03-.17,.05-.26,.05-.05,0-.1-.01-.14-.02-.17-.03-.31-.13-.41-.28-.02-.03-.04-.06-.05-.09-5.99-14.19-11.57-28.38-17.55-44.64-.04-.11-.08-.21-.12-.32-.01-.02-.01-.04-.01-.06h0s-.02-.06-.01-.09c-.02-.07,0-.13,0-.2v-.02s.02-.07,.03-.1c.01-.02,.02-.03,.03-.05,0-.03,.03-.06,.05-.09,.03-.05,.07-.09,.12-.12,.05-.04,.11-.08,.18-.1,.13-.04,.26-.05,.38-.02h.01c.14,.03,.27,.12,.35,.23,.04,.05,.07,.11,.1,.17h0c.06,.15,.11,.29,.16,.43,5.95,16.2,11.51,30.34,17.48,44.47,.03,.06,.04,.12,.04,.19Z"/>
      <path d="M76.53,62.66c0,.1-.02,.2-.06,.28-.1,.22-.32,.37-.59,.37-1.59,0-3.19-.03-4.75-.08-3.07-.09-6.25-.19-9.37,.08-3.81,.34-9.06,.98-14.61,1.91-.02,0-.05,0-.08,.01-4.58,.75-9.37,1.7-13.72,2.81-.01,0-.03,.01-.04,.01-7.02,1.8-12.89,4.03-14.92,6.6t-.01,.02s-.06,.08-.1,.11c-.03,.02-.06,.05-.1,.06-.02,.02-.04,.03-.07,.03-.03,.02-.05,.03-.08,.03h-.01s-.1,.02-.15,.02c-.07,0-.14-.01-.21-.03-.07-.02-.13-.06-.18-.1h-.01s-.08-.07-.11-.12c-.03-.02-.04-.04-.05-.07-.03-.03-.04-.07-.05-.11-.01-.02-.02-.04-.02-.06-.05-.19,0-.39,.12-.56,.23-.3,.51-.59,.82-.88,8.29-7.68,43.1-10.94,43.46-10.97,3.2-.28,6.42-.2,9.53-.1,1.54,.05,3.14,.09,4.71,.09,.21,0,.39,.09,.5,.24,.1,.11,.15,.26,.15,.41Z"/>
      <path d="M78.19,61.15c0,.17-.08,.35-.2,.46-.12,.13-.28,.2-.46,.2-.17,0-.34-.07-.46-.2-.04-.04-.07-.08-.1-.13-.06-.1-.09-.22-.09-.33,0-.12,.04-.25,.1-.35,.03-.04,.06-.07,.09-.1,.21-.22,.57-.25,.82-.08h.01s.06,.05,.09,.08c.04,.03,.07,.07,.09,.11,.07,.1,.11,.22,.11,.34Z"/>
      <path d="M106.68,.66c0,.36-.29,.65-.65,.65h-.4c-18.14,.07-34.08,5.18-44.98,14.42-.12,.09-.23,.19-.35,.29-.06,.05-.13,.09-.2,.11-.07,.03-.15,.04-.22,.04-.05,0-.11-.01-.17-.02-.04-.01-.07-.02-.1-.03-.09-.04-.16-.1-.23-.17-.13-.16-.18-.36-.14-.55v-.02s.02-.07,.03-.1c.01-.02,.02-.03,.03-.05,0-.03,.03-.06,.05-.09,.03-.04,.06-.08,.1-.11t.02-.01c.08-.07,.15-.14,.23-.2C70.91,5.26,87.36,0,106.03,0c.06,0,.12,0,.17,.03,.06,.02,.11,.04,.16,.07,.06,.03,.11,.08,.15,.13,.04,.04,.07,.08,.09,.13,.01,.02,.02,.05,.04,.07,.02,.07,.04,.15,.04,.23Z"/>
      <path d="M128.08,47.53s-.01,.08-.02,.12c-.06,.2-.2,.35-.39,.42-.03,0-.07,.02-.11,.03-.04,.02-.09,.02-.13,.02-.02,0-.05,0-.07-.01-.03,0-.06-.01-.09-.01-.17-.05-.32-.16-.4-.32-.2-.35-.4-.7-.59-1.06-4.09-7.44-7.59-15.85-10.98-23.97-3.05-7.28-6.17-14.78-9.67-21.44-.06-.11-.12-.23-.18-.34-.16-.31-.04-.71,.28-.89,.15-.08,.32-.09,.47-.05,.06,.02,.11,.04,.16,.07,.06,.03,.11,.08,.15,.13,.04,.04,.07,.08,.09,.13,.01,.02,.02,.05,.04,.07,3.58,6.76,6.77,14.42,9.86,21.82,3.54,8.49,7.2,17.27,11.51,24.9,.01,.03,.03,.05,.03,.08,.02,.04,.03,.08,.03,.11,.01,.06,.02,.13,.01,.19Z"/>
      <path class="cls-1" d="M76.88,61.15c0,.11,.03,.23,.09,.33-.18,.2-.5,.57-.51,.6-.03,.05-.06,.11-.08,.17-.11-.15-.29-.24-.5-.24-1.57,0-3.17-.04-4.71-.09-3.11-.1-6.33-.18-9.53,.1-.36,.03-35.17,3.29-43.46,10.97-2.81-9.93-6.02-20.48-9.57-31.42-.91-2.8-1.96-5.8-2.98-8.68-.83-2.34-1.68-4.76-2.46-7.11-.2-.55-.38-1.1-.57-1.65l-.32-.93c-.07-.24-.14-.49-.21-.73-.14-.47-.27-.94-.42-1.4-.05-.15-.1-.29-.14-.41,15.89-6.56,41.57-8.6,57.87-4.59,5.98,16.26,11.56,30.45,17.55,44.64,.01,.03,.03,.06,.05,.09-.06,.1-.1,.23-.1,.35Z"/>
      <path d="M128.08,47.53s-.01,.08-.02,.12c-.06,.2-.2,.35-.39,.42-.03,0-.07,.02-.11,.03-.02,0-.04,.01-.07,.01-.04,0-.08,.01-.13,0-.03,0-.06-.01-.09-.01-13.72-1.44-41.31,6.5-49.29,14.2-.12,.12-.87,.77-1.03,.77-.14,0-.34-.04-.48-.13-.03,0-.05-.02-.07-.04-.16-.18-.12-.43-.02-.65,.02-.06,.05-.12,.08-.17,.01-.03,.33-.4,.51-.6,.06-.06,.1-.11,.11-.12,.1-.1,.2-.19,.31-.28,.16-.16,.33-.31,.5-.46h.01c.09-.08,.18-.15,.27-.23,9.69-7.99,35.03-14.53,48.11-13.67,.43,.02,.83,.06,1.23,.1,.25,.03,.44,.2,.53,.41,.01,.04,.02,.07,.03,.11,.01,.06,.02,.13,.01,.19Z"/>
      <path d="M18.84,78.34c-.19,0-.37-.07-.49-.23-.23-.28-.19-.69,.08-.91,15-12.6,40.62-12.6,59.32-12.6,.36,0,.65,.29,.65,.64s-.29,.65-.65,.65c-18.51,0-43.85,0-58.48,12.3-.12,.1-.27,.15-.42,.15Z"/>
      <path d="M80.28,65.32c-.18,0-.35-.08-.48-.21-.25-.25-.23-.66,.03-.91,9.29-8.6,28.64-14.84,46.02-14.84,.36,0,.65,.29,.65,.65s-.29,.65-.65,.65c-17.08,0-36.06,6.1-45.14,14.49-.12,.12-.28,.18-.44,.18Z"/>
      <path d="M81.8,66.09c-.18,0-.37-.08-.49-.23-.23-.28-.2-.69,.08-.93,10.48-8.98,27.53-14.34,45.61-14.34,.36,0,.65,.29,.65,.65s-.29,.65-.65,.65c-17.78,0-34.51,5.25-44.77,14.03-.12,.11-.27,.16-.42,.16Z"/>
      <path d="M18.71,76.33c-.19,0-.39-.1-.51-.26-.22-.28-.17-.69,.11-.91,11.55-8.95,32.19-10.81,46.71-11.42,.73-.03,1.48-.08,2.24-.11,3.19-.18,6.49-.35,9.57,.12,.35,.05,.6,.38,.55,.74-.06,.35-.39,.6-.75,.54-2.95-.44-6.18-.28-9.3-.1-.76,.04-1.52,.08-2.25,.11-14.35,.6-34.72,2.42-45.96,11.15-.12,.1-.26,.15-.4,.15Z"/>
      <path d="M102.67,8.16c0,.36-.3,.65-.66,.65-11.42,0-24.47,4.11-34.03,10.71-.11,.07-.24,.11-.36,.11-.22,0-.42-.1-.54-.28-.21-.3-.13-.7,.16-.91,9.77-6.74,23.09-10.93,34.77-10.93,.36,0,.66,.28,.66,.65Z"/>
      <path d="M104.15,14.32c0,.36-.29,.65-.65,.65-9.72,0-18.02,1.58-25.34,4.84-2.01,.88-3.74,1.86-5.42,3.08-.16,.11-.36,.41-.53,.67-.28,.44-.77,1.19-1.46,1.19-.19,0-.38-.05-.59-.17-.2-.12-.33-.33-.34-.57,0-.62,1.4-1.45,1.42-1.46,.04-.03,.08-.04,.12-.05,.18-.25,.37-.49,.62-.67,1.74-1.25,3.58-2.3,5.65-3.21,7.5-3.34,15.96-4.95,25.87-4.95,.36,0,.65,.3,.65,.65Z"/>
      <path d="M106.32,20.56c-.04,.35-.36,.61-.72,.57-10.32-1.11-21.65,1.43-30.33,6.82-.11,.06-.23,.1-.34,.1-.22,0-.43-.12-.56-.3-.18-.32-.09-.72,.21-.91,8.92-5.53,20.57-8.15,31.16-7.01,.36,.05,.61,.36,.58,.73Z"/>
      <path d="M107.31,27.24c0,.37-.29,.66-.66,.66-6.73,0-12.81,1.32-17.58,3.83-.1,.05-.2,.07-.3,.07-.24,0-.46-.12-.58-.35-.16-.31-.05-.71,.27-.87,4.96-2.61,11.26-3.99,18.19-3.99,.37,0,.66,.29,.66,.65Z"/>
      <path class="cls-1" d="M115.3,22.75c-3.05-7.28-6.17-14.78-9.67-21.44-18.14,.07-34.08,5.18-44.98,14.42,5.95,16.2,11.51,30.34,17.48,44.47,.03,.06,.04,.12,.04,.19,9.69-7.99,35.03-14.53,48.11-13.67-4.09-7.44-7.59-15.85-10.98-23.97Zm-47.68-3.12c-.22,0-.42-.1-.54-.28-.21-.3-.13-.7,.16-.91,9.77-6.74,23.09-10.93,34.77-10.93,.36,0,.66,.28,.66,.65s-.3,.65-.66,.65c-11.42,0-24.47,4.11-34.03,10.71-.11,.07-.24,.11-.36,.11Zm4.59,3.93c-.28,.44-.77,1.19-1.46,1.19-.19,0-.38-.05-.59-.17-.2-.12-.33-.33-.34-.57,0-.62,1.4-1.45,1.42-1.46,.04-.03,.08-.04,.12-.05,.18-.25,.37-.49,.62-.67,1.74-1.25,3.58-2.3,5.65-3.21,7.5-3.34,15.96-4.95,25.87-4.95,.36,0,.65,.3,.65,.65s-.29,.65-.65,.65c-9.72,0-18.02,1.58-25.34,4.84-2.01,.88-3.74,1.86-5.42,3.08-.16,.11-.36,.41-.53,.67Zm3.06,4.39c-.11,.06-.23,.1-.34,.1-.22,0-.43-.12-.56-.3-.18-.32-.09-.72,.21-.91,8.92-5.53,20.57-8.15,31.16-7.01,.36,.05,.61,.36,.58,.73-.04,.35-.36,.61-.72,.57-10.32-1.11-21.65,1.43-30.33,6.82Zm30.73,3.85c-2.04-.22-4.17,.37-6.16,1.03-.06,.01-.14,.03-.2,.03-.27,0-.53-.18-.62-.46-.11-.33,.07-.7,.41-.81,2.13-.71,4.42-1.34,6.71-1.09,.35,.04,.61,.36,.57,.73-.03,.35-.36,.61-.71,.57Zm.65-3.9c-6.73,0-12.81,1.32-17.58,3.83-.1,.05-.2,.07-.3,.07-.24,0-.46-.12-.58-.35-.16-.31-.05-.71,.27-.87,4.96-2.61,11.26-3.99,18.19-3.99,.37,0,.66,.29,.66,.65s-.29,.66-.66,.66Z"/>
      <path d="M106.71,31.23c-.03,.35-.36,.61-.71,.57-2.04-.22-4.17,.37-6.16,1.03-.06,.01-.14,.03-.2,.03-.27,0-.53-.18-.62-.46-.11-.33,.07-.7,.41-.81,2.13-.71,4.42-1.34,6.71-1.09,.35,.04,.61,.36,.57,.73Z"/>
    </g>
  </g>
</svg>