<?xml version="1.0" encoding="UTF-8"?>
<svg id="Capa_2" data-name="Capa 2" xmlns="http://www.w3.org/2000/svg" viewBox="0 0 98.9 78.37">
  <defs>
    <style>
      .cls-1 {
        fill: #fff;
      }

      .cls-2 {
        fill: #4d4d4d;
      }

      .cls-3 {
        fill: #ffd133;
      }
    </style>
  </defs>
  <g id="Layer_1" data-name="Layer 1">
    <g>
      <path class="cls-2" d="M98.34,36.63c-.15-5.13-.06-10.26,.04-15.39,.07-3.27,.08-6.52-.09-9.79-.14-2.61,.32-5.94-.39-8.45-.71-2.53-2.66-2.65-5-2.77-6.07-.29-12.19-.04-18.26-.07C61.08,.1,47.53,.02,33.98,0c-7.14-.01-14.24,.17-21.36,.64-2.56,.17-6.85-.32-8.94,1.47-1.4,1.19-1.57,3.09-1.86,4.75-.66,3.74-.75,7.64-.9,11.42-.34,8.27-.19,16.54-.7,24.8-.41,6.69-.15,13.36,.04,20.05,.11,3.75-1.09,9.8,2.09,12.62,3.28,2.9,10.22,1.65,14.1,1.77,7.16,.22,14.31,.42,21.47,.53,13.42,.21,26.81-.27,40.22,.25,5.12,.2,10.76,0,15.82-.87,3.01-.52,3.95-2.32,4.25-5.17,1.25-11.77,.49-23.84,.13-35.63ZM4.59,8.77c.38-3.24,.99-4.59,4.23-4.89,1.26-.12,2.53-.16,3.8-.24,5.22-.35,10.43-.59,15.66-.63,11.24-.08,22.47,.05,33.7,.1,4.83,.02,9.66,.04,14.49,.06,5.09,.02,10.62-.61,15.66,.05,2.37,.31,2.47,.51,2.9,2.92,.39,2.21,.25,4.83,.35,7.08,.01,.33,.01,.66,.02,.99-30.42-1.1-60.86-1.2-91.28-.3,.12-1.72,.27-3.43,.47-5.14ZM95.66,58.85c-.13,4.1-.03,8.26-.36,12.36-.24,2.97-1.46,2.84-4.2,3.29-2.82,.46-5.66,.81-8.52,.88-10.51,.23-21.14-.25-31.67-.23-12.45,.02-24.9-.34-37.35-.72-3.89-.11-9.93,.42-10.17-4.6-.14-2.83-.1-5.68-.18-8.51-.19-6.09-.36-12.16,0-18.24,.56-8.94,.27-17.96,.76-26.92,30.48-.9,60.99-.81,91.46,.3,.04,4.24-.16,8.48-.18,12.71-.05,9.91,.71,19.76,.4,29.68Z"/>
      <path class="cls-1" d="M95.26,29.17c.02-4.23,.22-8.47,.18-12.71-30.47-1.11-60.98-1.2-91.46-.3-.49,8.96-.2,17.98-.76,26.92-.37,6.08-.2,12.15,0,18.24,.08,2.83,.04,5.68,.18,8.51,.24,5.02,6.28,4.49,10.17,4.6,12.45,.38,24.9,.74,37.35,.72,10.53-.02,21.16,.46,31.67,.23,2.86-.07,5.7-.42,8.52-.88,2.74-.45,3.96-.32,4.2-3.29,.33-4.1,.23-8.26,.36-12.36,.31-9.92-.45-19.77-.4-29.68ZM24.16,47.25c.7,.47,1.42,.93,2.11,1.41,1.59,1.12,3.13,2.32,4.59,3.6,2.38,2.1,7.87,5.65,7.66,9.2-.2,3.59-4.61,4.71-7.47,3.86-4.32-1.28-8.56-4.92-12.1-7.57-5.23-3.91-14.35-11.1-6.81-17.69,4.96-3.99,9.26-8.56,14.51-12.2,2.79-1.93,7.16-4.08,10.29-1.54,7.19,5.85-11.61,14.85-13.99,18.62-.94,1.49-.33,1.27,1.21,2.31Zm32.51-11.93c-.51,2.7-1.02,5.4-1.59,8.09-1.17,5.51-2.24,11.37-4.2,16.65-.92,2.5-2.79,5.63-5.76,5.98-7.56,.89-3.42-13.34-2.8-16.65,1.18-6.34,2.74-12.63,4.77-18.75,.91-2.75,1.88-5.68,5.17-5.59,2.81,.08,5.1,1.15,5.49,4.17,.24,1.9-.73,4.27-1.08,6.1Zm29.94,15.42c-4.96,3.98-9.26,8.55-14.51,12.19-2.79,1.94-7.16,4.09-10.29,1.55-7.19-5.85,11.61-14.85,13.99-18.62,.94-1.5,.33-1.27-1.21-2.31-.7-.48-1.42-.93-2.11-1.42-1.6-1.11-3.13-2.32-4.59-3.6-2.38-2.09-7.87-5.64-7.66-9.2,.2-3.59,4.61-4.7,7.47-3.86,4.32,1.28,8.56,4.92,12.1,7.57,5.23,3.91,14.35,11.11,6.81,17.7Z"/>
      <path class="cls-3" d="M95.38,13.22c-.1-2.25,.04-4.87-.35-7.08-.43-2.41-.53-2.61-2.9-2.92-5.04-.66-10.57-.03-15.66-.05-4.83-.02-9.66-.04-14.49-.06-11.23-.05-22.46-.18-33.7-.1-5.23,.04-10.44,.28-15.66,.63-1.27,.08-2.54,.12-3.8,.24-3.24,.3-3.85,1.65-4.23,4.89-.2,1.71-.35,3.42-.47,5.14,30.42-.9,60.86-.8,91.28,.3-.01-.33-.01-.66-.02-.99ZM11.45,12.09c-1.93,.23-3.98-1.05-3.62-3.17,.29-1.7,1.66-3.54,3.53-3.5,1.95,.08,3.24,1.36,3.53,3.26,.31,2.14-1.61,3.2-3.44,3.41Zm13.22-3.45c-.23,1.99-1.7,3.52-3.79,3.35-1.95-.17-3.56-1.77-3.45-3.78,.1-1.91,2.05-3.23,3.87-3.13,2.01,.04,3.6,1.5,3.37,3.56Zm6.34,3.18c-1.97,.13-4.01-1.15-3.87-3.28,.13-1.99,1.64-3.69,3.66-3.77,1.86-.07,3.67,1.59,3.67,3.48,0,1.88-1.61,3.46-3.46,3.57Z"/>
      <path class="cls-2" d="M14.89,8.68c-.29-1.9-1.58-3.18-3.53-3.26-1.87-.04-3.24,1.8-3.53,3.5-.36,2.12,1.69,3.4,3.62,3.17,1.83-.21,3.75-1.27,3.44-3.41Zm-3.42,1.15c-.4,.07-.73,.07-1.11-.1-.39-.18-.37-.25-.25-.68,.15-.55,.58-1.4,1.25-1.38,.61,.02,1.01,.3,1.19,.86,.3,.93-.24,1.14-1.08,1.3Z"/>
      <path class="cls-1" d="M11.47,9.83c-.4,.07-.73,.07-1.11-.1-.39-.18-.37-.25-.25-.68,.15-.55,.58-1.4,1.25-1.38,.61,.02,1.01,.3,1.19,.86,.3,.93-.24,1.14-1.08,1.3Z"/>
      <path class="cls-2" d="M21.3,5.08c-1.82-.1-3.77,1.22-3.87,3.13-.11,2.01,1.5,3.61,3.45,3.78,2.09,.17,3.56-1.36,3.79-3.35,.23-2.06-1.36-3.52-3.37-3.56Zm1.14,3.39c-.12,.84-.65,1.41-1.54,1.26-.67-.11-1.39-.73-1.22-1.49,.15-.68,1.01-.95,1.62-.91,.73,.01,1.24,.39,1.14,1.14Z"/>
      <path class="cls-1" d="M22.44,8.47c-.12,.84-.65,1.41-1.54,1.26-.67-.11-1.39-.73-1.22-1.49,.15-.68,1.01-.95,1.62-.91,.73,.01,1.24,.39,1.14,1.14Z"/>
      <path class="cls-2" d="M30.8,4.77c-2.02,.08-3.53,1.78-3.66,3.77-.14,2.13,1.9,3.41,3.87,3.28,1.85-.11,3.45-1.69,3.46-3.57,0-1.89-1.81-3.55-3.67-3.48Zm.25,4.79c-.64,.12-1.62-.15-1.67-.86-.06-.78,.65-1.65,1.42-1.68,1.63-.06,1.87,2.25,.25,2.54Z"/>
      <path class="cls-1" d="M31.05,9.56c-.64,.12-1.62-.15-1.67-.86-.06-.78,.65-1.65,1.42-1.68,1.63-.06,1.87,2.25,.25,2.54Z"/>
      <path class="cls-2" d="M30.86,52.26c-1.46-1.28-3-2.48-4.59-3.6-.69-.48-1.41-.94-2.11-1.41-1.54-1.04-2.15-.82-1.21-2.31,2.38-3.77,21.18-12.77,13.99-18.62-3.13-2.54-7.5-.39-10.29,1.54-5.25,3.64-9.55,8.21-14.51,12.2-7.54,6.59,1.58,13.78,6.81,17.69,3.54,2.65,7.78,6.29,12.1,7.57,2.86,.85,7.27-.27,7.47-3.86,.21-3.55-5.28-7.1-7.66-9.2Zm.3,10.63c.2-.15,.4-.29,.6-.44,.48-.36,.73-.98,.4-1.54-.28-.48-1.05-.77-1.54-.4-.44,.32-.88,.65-1.32,.97-.16,.12-.28,.27-.38,.43-.47-.23-.93-.49-1.4-.76,.17-.12,.33-.24,.51-.34,1.24-.75,.11-2.69-1.13-1.95-.49,.3-.95,.64-1.38,1.02-.55-.38-1.11-.77-1.65-1.17,.31-.17,.63-.33,.94-.5,1.28-.68,.14-2.62-1.14-1.94-.59,.31-1.19,.63-1.78,.94-.36-.27-.72-.55-1.07-.82,.18-.12,.37-.24,.56-.35,1.27-.71,.13-2.65-1.13-1.94-.45,.25-.87,.55-1.27,.88-.51-.39-1.07-.81-1.64-1.26,.28-.22,.58-.43,.93-.59,.55-.26,.69-1.05,.4-1.54-.33-.56-.99-.66-1.54-.4-.57,.27-1.09,.65-1.55,1.08-.42-.37-.82-.75-1.21-1.14,.36-.24,.72-.48,1.08-.72,1.2-.8,.08-2.75-1.14-1.94-.47,.31-.94,.62-1.41,.93-.52-.73-.93-1.48-1.16-2.26h1.07c1.45,0,1.45-2.25,0-2.25h-1.19c.15-.69,.47-1.39,1.01-2.09,.42,.45,.84,.88,1.34,1.23,.49,.36,1.25,.09,1.54-.4,.33-.56,.09-1.18-.41-1.54,.02,.01,.03,.02,.04,.02-.05-.05-.23-.2-.25-.22-.15-.13-.28-.28-.42-.42-.08-.08-.15-.16-.23-.24,.38-.32,.75-.63,1.12-.95,.44,.42,.85,.86,1.23,1.34,.38,.47,1.19,.39,1.59,0,.47-.47,.38-1.12,0-1.59-.35-.44-.73-.85-1.13-1.24,.54-.48,1.07-.97,1.6-1.45,.43,.38,.86,.75,1.27,1.15,1.03,1.02,2.62-.57,1.59-1.59-.38-.37-.78-.72-1.18-1.07,.61-.55,1.24-1.09,1.87-1.61,.4,.46,.83,.9,1.25,1.36,.96,1.08,2.55-.52,1.59-1.59-.35-.39-.77-.74-1.1-1.15,.28-.22,.56-.44,.85-.64,.41-.3,.81-.61,1.21-.93,.21,.28,.42,.57,.62,.85,.36,.49,.98,.73,1.54,.4,.49-.28,.77-1.04,.41-1.54-.27-.36-.53-.72-.8-1.08,.51-.38,1.03-.73,1.58-1.05,.03,.04,.06,.08,.1,.12,.33,.32,.66,.65,1,.97,1.03,1.01,2.63-.58,1.59-1.59-.19-.19-.38-.37-.57-.56,1.39-.54,2.59-.53,3.52,1.19,1.16,2.18-.06,2.69-1.55,4.21-3.72,3.78-8.47,6.4-12.23,10.07-1.41,1.38-1.99,2.58-.7,4.19,1.66,2.07,5.31,3.54,7.41,5.26,1.64,1.35,3.16,2.82,4.69,4.29,.61,.6,2.5,1.8,2.76,2.66,1.26,4.21-2.13,3.91-4.21,3.23Z"/>
      <path class="cls-3" d="M31.16,62.89c.2-.15,.4-.29,.6-.44,.48-.36,.73-.98,.4-1.54-.28-.48-1.05-.77-1.54-.4-.44,.32-.88,.65-1.32,.97-.16,.12-.28,.27-.38,.43-.47-.23-.93-.49-1.4-.76,.17-.12,.33-.24,.51-.34,1.24-.75,.11-2.69-1.13-1.95-.49,.3-.95,.64-1.38,1.02-.55-.38-1.11-.77-1.65-1.17,.31-.17,.63-.33,.94-.5,1.28-.68,.14-2.62-1.14-1.94-.59,.31-1.19,.63-1.78,.94-.36-.27-.72-.55-1.07-.82,.18-.12,.37-.24,.56-.35,1.27-.71,.13-2.65-1.13-1.94-.45,.25-.87,.55-1.27,.88-.51-.39-1.07-.81-1.64-1.26,.28-.22,.58-.43,.93-.59,.55-.26,.69-1.05,.4-1.54-.33-.56-.99-.66-1.54-.4-.57,.27-1.09,.65-1.55,1.08-.42-.37-.82-.75-1.21-1.14,.36-.24,.72-.48,1.08-.72,1.2-.8,.08-2.75-1.14-1.94-.47,.31-.94,.62-1.41,.93-.52-.73-.93-1.48-1.16-2.26h1.07c1.45,0,1.45-2.25,0-2.25h-1.19c.15-.69,.47-1.39,1.01-2.09,.42,.45,.84,.88,1.34,1.23,.49,.36,1.25,.09,1.54-.4,.33-.56,.09-1.18-.41-1.54,.02,.01,.03,.02,.04,.02-.05-.05-.23-.2-.25-.22-.15-.13-.28-.28-.42-.42-.08-.08-.15-.16-.23-.24,.38-.32,.75-.63,1.12-.95,.44,.42,.85,.86,1.23,1.34,.38,.47,1.19,.39,1.59,0,.47-.47,.38-1.12,0-1.59-.35-.44-.73-.85-1.13-1.24,.54-.48,1.07-.97,1.6-1.45,.43,.38,.86,.75,1.27,1.15,1.03,1.02,2.62-.57,1.59-1.59-.38-.37-.78-.72-1.18-1.07,.61-.55,1.24-1.09,1.87-1.61,.4,.46,.83,.9,1.25,1.36,.96,1.08,2.55-.52,1.59-1.59-.35-.39-.77-.74-1.1-1.15,.28-.22,.56-.44,.85-.64,.41-.3,.81-.61,1.21-.93,.21,.28,.42,.57,.62,.85,.36,.49,.98,.73,1.54,.4,.49-.28,.77-1.04,.41-1.54-.27-.36-.53-.72-.8-1.08,.51-.38,1.03-.73,1.58-1.05,.03,.04,.06,.08,.1,.12,.33,.32,.66,.65,1,.97,1.03,1.01,2.63-.58,1.59-1.59-.19-.19-.38-.37-.57-.56,1.39-.54,2.59-.53,3.52,1.19,1.16,2.18-.06,2.69-1.55,4.21-3.72,3.78-8.47,6.4-12.23,10.07-1.41,1.38-1.99,2.58-.7,4.19,1.66,2.07,5.31,3.54,7.41,5.26,1.64,1.35,3.16,2.82,4.69,4.29,.61,.6,2.5,1.8,2.76,2.66,1.26,4.21-2.13,3.91-4.21,3.23Z"/>
      <path class="cls-2" d="M79.8,33.04c-3.54-2.65-7.78-6.29-12.1-7.57-2.86-.84-7.27,.27-7.47,3.86-.21,3.56,5.28,7.11,7.66,9.2,1.46,1.28,2.99,2.49,4.59,3.6,.69,.49,1.41,.94,2.11,1.42,1.54,1.04,2.15,.81,1.21,2.31-2.38,3.77-21.18,12.77-13.99,18.62,3.13,2.54,7.5,.39,10.29-1.55,5.25-3.64,9.55-8.21,14.51-12.19,7.54-6.59-1.58-13.79-6.81-17.7Zm5.22,16.11c-3.81,3.06-7.08,6.6-11.06,9.45-1.74,1.25-3.27,2.75-5.19,3.72-2.04,1.03-3.77,1.8-5.01-.5-.5-.95-.54-1.57-.32-2.11,.54,.43,1.08,.88,1.64,1.28,.5,.36,1.26,.09,1.54-.4,.33-.57,.09-1.18-.4-1.54-.46-.33-.89-.68-1.33-1.03,.14-.13,.27-.26,.42-.41,.33-.34,.67-.65,1.02-.97,.46,.48,.91,.98,1.42,1.41,.46,.4,1.13,.45,1.59,0,.4-.4,.46-1.19,0-1.59-.47-.4-.89-.85-1.32-1.3,.54-.45,1.09-.89,1.65-1.31,.46,.59,.92,1.19,1.45,1.73,1.01,1.04,2.6-.55,1.59-1.59-.46-.47-.86-.98-1.26-1.49,.46-.34,.92-.69,1.37-1.03,.43,.4,.79,.85,1.17,1.3,.4,.46,1.19,.4,1.6,0,.45-.46,.39-1.13,0-1.59-.32-.38-.63-.75-.97-1.1,.59-.47,1.17-.96,1.73-1.46,.29,.22,.56,.44,.8,.71,1,1.05,2.59-.54,1.59-1.6-.23-.24-.48-.47-.74-.68,.41-.46,.7-.91,.85-1.37,.46,.03,.93,.06,1.4,.08,.6,.04,1.12-.54,1.12-1.12,0-.64-.51-1.09-1.12-1.13-.66-.04-1.32-.08-1.98-.12-.01-.01-.02-.03-.03-.04-.28-.35-.64-.69-1.02-1.01,.36-.17,.72-.34,1.08-.51,.55-.26,.69-1.05,.4-1.54-.33-.56-.98-.66-1.54-.4l-2.04,.96c-.35-.22-.71-.44-1.08-.66,.31-.15,.61-.3,.92-.44,.55-.27,.69-1.05,.4-1.54-.32-.56-.99-.67-1.54-.41-.61,.3-1.23,.6-1.85,.9-.05,.03-.09,.08-.13,.12-.36-.24-.7-.49-1.01-.74-.14-.11-.26-.23-.4-.35,.43-.23,.86-.45,1.3-.66,.55-.25,.69-1.05,.4-1.54-.33-.56-.99-.66-1.54-.4-.66,.31-1.3,.67-1.93,1.04-.43-.39-.86-.8-1.29-1.21,.25-.15,.51-.29,.77-.4,.56-.23,.96-.74,.78-1.38-.14-.53-.82-1.02-1.38-.79-.67,.28-1.26,.63-1.83,1.03-.32-.25-.7-.54-1.08-.86,.28-.24,.57-.45,.9-.63,1.28-.68,.15-2.63-1.13-1.94-.4,.21-.77,.47-1.11,.76-1-4.03,2.7-3.45,4.65-2.72,4.03,1.52,7.93,4.82,11.31,7.39,3.91,2.97,11.81,8.44,5.77,13.73Z"/>
      <path class="cls-3" d="M85.02,49.15c-3.81,3.06-7.08,6.6-11.06,9.45-1.74,1.25-3.27,2.75-5.19,3.72-2.04,1.03-3.77,1.8-5.01-.5-.5-.95-.54-1.57-.32-2.11,.54,.43,1.08,.88,1.64,1.28,.5,.36,1.26,.09,1.54-.4,.33-.57,.09-1.18-.4-1.54-.46-.33-.89-.68-1.33-1.03,.14-.13,.27-.26,.42-.41,.33-.34,.67-.65,1.02-.97,.46,.48,.91,.98,1.42,1.41,.46,.4,1.13,.45,1.59,0,.4-.4,.46-1.19,0-1.59-.47-.4-.89-.85-1.32-1.3,.54-.45,1.09-.89,1.65-1.31,.46,.59,.92,1.19,1.45,1.73,1.01,1.04,2.6-.55,1.59-1.59-.46-.47-.86-.98-1.26-1.49,.46-.34,.92-.69,1.37-1.03,.43,.4,.79,.85,1.17,1.3,.4,.46,1.19,.4,1.6,0,.45-.46,.39-1.13,0-1.59-.32-.38-.63-.75-.97-1.1,.59-.47,1.17-.96,1.73-1.46,.29,.22,.56,.44,.8,.71,1,1.05,2.59-.54,1.59-1.6-.23-.24-.48-.47-.74-.68,.41-.46,.7-.91,.85-1.37,.46,.03,.93,.06,1.4,.08,.6,.04,1.12-.54,1.12-1.12,0-.64-.51-1.09-1.12-1.13-.66-.04-1.32-.08-1.98-.12-.01-.01-.02-.03-.03-.04-.28-.35-.64-.69-1.02-1.01,.36-.17,.72-.34,1.08-.51,.55-.26,.69-1.05,.4-1.54-.33-.56-.98-.66-1.54-.4l-2.04,.96c-.35-.22-.71-.44-1.08-.66,.31-.15,.61-.3,.92-.44,.55-.27,.69-1.05,.4-1.54-.32-.56-.99-.67-1.54-.41-.61,.3-1.23,.6-1.85,.9-.05,.03-.09,.08-.13,.12-.36-.24-.7-.49-1.01-.74-.14-.11-.26-.23-.4-.35,.43-.23,.86-.45,1.3-.66,.55-.25,.69-1.05,.4-1.54-.33-.56-.99-.66-1.54-.4-.66,.31-1.3,.67-1.93,1.04-.43-.39-.86-.8-1.29-1.21,.25-.15,.51-.29,.77-.4,.56-.23,.96-.74,.78-1.38-.14-.53-.82-1.02-1.38-.79-.67,.28-1.26,.63-1.83,1.03-.32-.25-.7-.54-1.08-.86,.28-.24,.57-.45,.9-.63,1.28-.68,.15-2.63-1.13-1.94-.4,.21-.77,.47-1.11,.76-1-4.03,2.7-3.45,4.65-2.72,4.03,1.52,7.93,4.82,11.31,7.39,3.91,2.97,11.81,8.44,5.77,13.73Z"/>
      <path class="cls-2" d="M57.75,29.22c-.39-3.02-2.68-4.09-5.49-4.17-3.29-.09-4.26,2.84-5.17,5.59-2.03,6.12-3.59,12.41-4.77,18.75-.62,3.31-4.76,17.54,2.8,16.65,2.97-.35,4.84-3.48,5.76-5.98,1.96-5.28,3.03-11.14,4.2-16.65,.57-2.69,1.08-5.39,1.59-8.09,.35-1.83,1.32-4.2,1.08-6.1Zm-5.54,16.77c-.55,2.45-1.15,4.9-1.8,7.33-.81,3.09-1.45,9.29-5.31,9.18-2.12-.06-2.23-.26-2.15-1.62,.27,.04,.54,.12,.8,.21,.58,.2,1.23-.22,1.39-.78,.16-.62-.21-1.19-.79-1.39-.41-.14-.83-.22-1.25-.28,.04-.4,.09-.81,.15-1.21,.5,.09,1,.16,1.51,.17,1.44,.03,1.44-2.22,0-2.25-.4-.01-.78-.06-1.16-.14,.04-.22,.08-.45,.12-.68,.01-.12,.04-.24,.06-.35,.49,.06,.97,.14,1.46,.26,1.4,.35,2-1.82,.59-2.17-.55-.14-1.11-.23-1.68-.3,.11-.66,.21-1.32,.34-1.98,.64,.08,1.27,.24,1.88,.47,.57,.21,1.23-.24,1.38-.79,.18-.63-.21-1.17-.78-1.38-.67-.25-1.35-.39-2.04-.49,.1-.48,.19-.97,.3-1.46,.51,.12,1.02,.24,1.53,.35,1.41,.33,2.01-1.84,.6-2.17-.56-.12-1.13-.25-1.69-.38,.09-.48,.2-1.02,.32-1.63,.35,.1,.7,.19,1.06,.28,1.4,.37,2-1.8,.6-2.17-.41-.1-.81-.21-1.21-.32,.06-.28,.12-.56,.18-.85,.64,.14,1.27,.27,1.91,.41,.59,.13,1.21-.18,1.38-.79,.15-.56-.19-1.25-.78-1.38-.67-.14-1.33-.28-2-.43,.11-.44,.23-.89,.34-1.33,.44,.09,.88,.16,1.31,.27,1.4,.37,2-1.79,.6-2.17-.43-.11-.86-.18-1.29-.27,.09-.28,.18-.56,.27-.84,.42,.06,.81,.16,1.2,.31,.57,.21,1.24-.24,1.39-.79,.17-.63-.22-1.17-.79-1.38-.32-.12-.65-.21-.99-.27,.14-.33,.29-.64,.44-.94,.34,.16,.71,.28,1.09,.33,.6,.09,1.21-.15,1.38-.78,.15-.53-.18-1.3-.78-1.39-.14-.02-.25-.06-.37-.09,.42-.41,.87-.63,1.33-.62,5.36,.15,.54,16.11-.05,18.69Z"/>
      <path class="cls-3" d="M52.21,45.99c-.55,2.45-1.15,4.9-1.8,7.33-.81,3.09-1.45,9.29-5.31,9.18-2.12-.06-2.23-.26-2.15-1.62,.27,.04,.54,.12,.8,.21,.58,.2,1.23-.22,1.39-.78,.16-.62-.21-1.19-.79-1.39-.41-.14-.83-.22-1.25-.28,.04-.4,.09-.81,.15-1.21,.5,.09,1,.16,1.51,.17,1.44,.03,1.44-2.22,0-2.25-.4-.01-.78-.06-1.16-.14,.04-.22,.08-.45,.12-.68,.01-.12,.04-.24,.06-.35,.49,.06,.97,.14,1.46,.26,1.4,.35,2-1.82,.59-2.17-.55-.14-1.11-.23-1.68-.3,.11-.66,.21-1.32,.34-1.98,.64,.08,1.27,.24,1.88,.47,.57,.21,1.23-.24,1.38-.79,.18-.63-.21-1.17-.78-1.38-.67-.25-1.35-.39-2.04-.49,.1-.48,.19-.97,.3-1.46,.51,.12,1.02,.24,1.53,.35,1.41,.33,2.01-1.84,.6-2.17-.56-.12-1.13-.25-1.69-.38,.09-.48,.2-1.02,.32-1.63,.35,.1,.7,.19,1.06,.28,1.4,.37,2-1.8,.6-2.17-.41-.1-.81-.21-1.21-.32,.06-.28,.12-.56,.18-.85,.64,.14,1.27,.27,1.91,.41,.59,.13,1.21-.18,1.38-.79,.15-.56-.19-1.25-.78-1.38-.67-.14-1.33-.28-2-.43,.11-.44,.23-.89,.34-1.33,.44,.09,.88,.16,1.31,.27,1.4,.37,2-1.79,.6-2.17-.43-.11-.86-.18-1.29-.27,.09-.28,.18-.56,.27-.84,.42,.06,.81,.16,1.2,.31,.57,.21,1.24-.24,1.39-.79,.17-.63-.22-1.17-.79-1.38-.32-.12-.65-.21-.99-.27,.14-.33,.29-.64,.44-.94,.34,.16,.71,.28,1.09,.33,.6,.09,1.21-.15,1.38-.78,.15-.53-.18-1.3-.78-1.39-.14-.02-.25-.06-.37-.09,.42-.41,.87-.63,1.33-.62,5.36,.15,.54,16.11-.05,18.69Z"/>
    </g>
  </g>
</svg>