<?xml version="1.0" encoding="UTF-8"?>
<svg id="Capa_2" data-name="Capa 2" xmlns="http://www.w3.org/2000/svg" viewBox="0 0 16.62 39.68">
  <defs>
    <style>
      .cls-1 {
        fill: #ffd133;
      }
    </style>
  </defs>
  <g id="Layer_1" data-name="Layer 1">
    <path class="cls-1" d="M16.12,.18c-2.96,3.82-5.24,8.09-7.26,12.47C6.57,9.17,3.94,5.97,.71,3.57c-.29-.23-.91,.36-.65,.59,2.78,3.81,5.02,7.91,7.2,12.07-.36,.85-.73,1.7-1.08,2.55C3.47,25.3,1.11,32.11,.8,39.21c-.05,1.09,1.56-.01,1.72-.56,1.93-6.71,3.4-13.43,5.74-20.04,.04-.1,.07-.19,.11-.29,.23,.43,.45,.85,.68,1.29,1.05,1.99,2.61,6.45,5.26,6.75,.57,.06,1.73-.86,1.38-1.5-1.79-3.42-3.64-7.09-5.79-10.57,.72-1.78,1.47-3.54,2.23-5.3,1.06-2.48,3.17-5.33,3.74-7.92-.06,.28,.31,.11,.37-.03,.11-.26,.23-.51,.34-.78,.18-.39-.29-.31-.46-.1Z"/>
  </g>
</svg>